<?xml version="1.0"?>
<svg id="a" xmlns="http://www.w3.org/2000/svg" version="1.1" viewBox="0 0 1188.7 359.5">
  
  <defs>
    
  </defs>
  <path class="st4" d="M410.6,71.1l12.7,63h4.6l12.7-63h37v99h-20v-82h-5.7l-17.5,82h-18.9l-17.5-82h-4.5v82h-20v-99h37ZM528,91.9c23.7,0,37.4,14.1,37.4,40s-13.7,40-37.4,40-37.4-14.1-37.4-40,13.7-40,37.4-40ZM528,155.6c10.5,0,15.5-5.7,15.5-18.2v-11.1c0-12.5-5-18.2-15.5-18.2s-15.5,5.7-15.5,18.2v11.1c0,12.5,5,18.2,15.5,18.2h0ZM573.5,155.3l39.1-47.2h-38.1v-15h62v15.1l-38.4,46.9h39.4v15h-64v-14.8ZM648.5,93.1h29v77h-20v-62h-9v-15ZM657.5,71.1h20v15h-20v-15ZM691.5,71.1h28v99h-20v-84h-8v-15ZM733.5,71.1h28v99h-20v-84h-8v-15ZM805.9,91.7c11.4,0,18.9,5.6,21,15.4h4.6v-14h24v15h-8v47h8v15h-11.3c-7,0-12.7-5.7-12.7-12.7v-1.3h-4.6c-2.2,9.8-9.7,15.4-21,15.4-18,0-30.7-15.3-30.7-39.9s12.7-39.9,30.7-39.9ZM812.5,155.7c10.3,0,15-5.7,15-18.3v-11.1c0-12.6-4.7-18.3-15-18.3s-15,5.7-15,18.3v11.1c0,12.6,4.7,18.3,15,18.3Z"></path>
  <polygon class="st4" points="153.4 71.1 181.5 209.1 191.6 209.1 219.6 71.1 301.5 71.1 301.5 288.1 256.5 288.1 256.5 109.1 247.7 109.1 208.4 288.1 166 288.1 126.7 109.1 116.5 109.1 116.5 288.1 71.5 288.1 71.5 71.1 153.4 71.1"></polygon>
  <polygon class="st2" points="116.5 109.1 126.6 109.1 166 288.1 116.5 288.1 116.5 109.1"></polygon>
  <polygon class="st3" points="153.4 71.1 181.5 209.1 191.6 209.1 219.6 71.1 153.4 71.1"></polygon>
  <polygon class="st1" points="247.7 109.1 256.5 109.1 256.5 288.1 208.4 288.1 247.7 109.1"></polygon>
  <g>
    <path class="st4" d="M372.5,188.1h72v16h-51v25h39v16h-39v43h-21v-100Z"></path>
    <path class="st4" d="M452.4,278.9c-6.7-7-10.1-16.8-10.1-29.5s3.4-22.5,10.1-29.5c6.7-7,16.2-10.5,28.3-10.5s21.5,3.5,28.2,10.5c6.7,7,10,16.8,10,29.5s-3.3,22.5-10,29.5c-6.7,7-16.1,10.5-28.2,10.5s-21.5-3.5-28.3-10.5h0ZM493.4,268.8c2.7-3.3,4.1-8.4,4.1-15.3v-8.3c0-6.9-1.4-12-4.1-15.3-2.8-3.3-7-4.9-12.8-4.9s-10.1,1.6-12.9,4.9c-2.8,3.3-4.2,8.4-4.2,15.3v8.3c0,6.9,1.4,12,4.2,15.3,2.8,3.3,7.1,4.9,12.9,4.9s10.1-1.6,12.8-4.9Z"></path>
    <path class="st4" d="M535.7,282c-4.1-4.8-6.2-11.8-6.2-21v-49.9h19v46.5c0,5.8,1.1,10,3.4,12.7,2.2,2.7,5.8,4,10.6,4s8.5-1.3,10.7-4c2.2-2.7,3.4-6.9,3.4-12.7v-46.5h20v77h-18v-14h-2.7c-3.7,10-11.1,15.1-22.1,15.1s-13.9-2.4-18.1-7.2Z"></path>
    <path class="st4" d="M610.5,211.1h18v14h2.7c1.8-5,4.6-8.7,8.2-11.3,3.7-2.5,8.3-3.8,13.8-3.8,7.9,0,13.9,2.4,18.1,7.2,4.1,4.8,6.2,11.8,6.2,21v49.9h-20v-46.5c0-5.8-1.1-10-3.4-12.7-2.2-2.7-5.8-4-10.6-4s-8.3,1.3-10.6,4c-2.3,2.7-3.4,6.9-3.4,12.7v46.5h-19v-77h0Z"></path>
    <path class="st4" d="M703.1,284.6c-4.5-3.2-8-7.8-10.5-13.8-2.5-6-3.7-13-3.7-21.1s1.2-15.2,3.7-21.1c2.4-6,5.9-10.6,10.4-13.8,4.5-3.2,9.8-4.8,15.9-4.8s10,1.2,13.7,3.7c3.7,2.4,6.3,5.9,8,10.4h2.6c-.4-6.7-.6-12.2-.6-16.7v-23.3h20v104h-18v-14h-2.7c-1.9,4.9-4.8,8.6-8.7,11.3-3.9,2.7-8.6,4-14.2,4s-11.3-1.6-15.8-4.8h0ZM738.5,269c2.7-3.3,4-8.4,4-15.3v-8.6c0-6.9-1.3-12-4-15.3-2.7-3.3-6.8-4.9-12.5-4.9s-9.8,1.6-12.5,4.9c-2.7,3.3-4,8.4-4,15.3v8.6c0,6.9,1.3,12,4,15.3,2.7,3.3,6.8,5,12.5,5s9.8-1.6,12.5-5Z"></path>
    <path class="st4" d="M787.3,284.1c-4.2-3.1-7.4-7.6-9.7-13.5-2.3-5.9-3.5-12.9-3.5-21s1.2-15.1,3.5-21c2.3-5.9,5.5-10.4,9.7-13.5,4.2-3.1,9-4.7,14.6-4.7s9.6,1.4,13.1,4.3c3.4,2.9,5.8,7,7,12.4h4.5v-16h26v15h-8v47h8v15h-13.1c-4.2,0-7.4-1.1-9.6-3.3s-3.2-5.4-3.2-9.7v-3h-4.5c-1.2,5.4-3.6,9.5-7,12.4-3.4,2.9-7.8,4.3-13.1,4.3s-10.4-1.6-14.6-4.7h0ZM820,269c2.3-3,3.5-7.6,3.5-13.8v-11.6c0-6.2-1.2-10.8-3.5-13.8-2.3-3-6-4.5-11-4.5s-8.7,1.5-11,4.5c-2.3,3-3.5,7.6-3.5,13.8v11.6c0,6.2,1.2,10.8,3.5,13.8,2.3,3,6,4.5,11,4.5s8.7-1.5,11-4.5Z"></path>
    <path class="st4" d="M859.5,211.1h55v14h-55v-14ZM876.7,285c-2.1-2.1-3.2-5.1-3.2-9v-86.8h20v85h21v14h-28.5c-4.1,0-7.2-1-9.3-3.1h0Z"></path>
    <path class="st4" d="M930.5,225.1h-10v-14h29v77h-19v-63ZM928.5,184.1h22v16h-22v-16Z"></path>
    <path class="st4" d="M972,278.9c-6.7-7-10.1-16.8-10.1-29.5s3.4-22.5,10.1-29.5c6.7-7,16.2-10.5,28.3-10.5s21.5,3.5,28.2,10.5c6.7,7,10,16.8,10,29.5s-3.3,22.5-10,29.5c-6.7,7-16.1,10.5-28.2,10.5s-21.5-3.5-28.3-10.5h0ZM1013.4,268.8c2.8-3.3,4.1-8.4,4.1-15.3v-8.3c0-6.9-1.4-12-4.1-15.3-2.8-3.3-7-4.9-12.8-4.9s-10.1,1.6-12.9,4.9c-2.8,3.3-4.2,8.4-4.2,15.3v8.3c0,6.9,1.4,12,4.2,15.3,2.8,3.3,7.1,4.9,12.9,4.9s10.1-1.6,12.8-4.9Z"></path>
    <path class="st4" d="M1049.5,211.1h18v14h2.7c1.8-5,4.6-8.7,8.2-11.3,3.7-2.5,8.3-3.8,13.8-3.8,7.9,0,13.9,2.4,18.1,7.2,4.1,4.8,6.2,11.8,6.2,21v49.9h-19v-46.5c0-5.8-1.1-10-3.4-12.7-2.2-2.7-5.8-4-10.6-4s-8.3,1.3-10.6,4c-2.3,2.7-3.4,6.9-3.4,12.7v46.5h-20v-77h0Z"></path>
  </g>
  <rect class="st0" width="1188.7" height="359.5"></rect>
</svg>