<?xml version="1.0"?>
<svg id="a" data-name="Layer 1" xmlns="http://www.w3.org/2000/svg" width="1188.716" height="359.47" viewBox="0 0 1188.716 359.47">
  <path d="M410.557,71.095l12.68,63h4.559l12.679-63h37.041v99h-20v-82h-5.69l-17.465,82h-18.873l-17.465-82h-4.507v82h-20v-99h37.041ZM527.964,91.902c23.661,0,37.367,14.139,37.367,39.964s-13.706,39.964-37.367,39.964-37.367-14.139-37.367-39.964,13.706-39.964,37.367-39.964ZM528.016,155.613c10.523,0,15.5-5.688,15.5-18.202v-11.092c0-12.514-4.977-18.202-15.5-18.202s-15.5,5.688-15.5,18.202v11.092c0,12.514,4.977,18.202,15.5,18.202ZM573.516,155.279l39.063-47.183h-38.063v-15h62v15.109l-38.435,46.891h39.435v15h-64v-14.817ZM648.516,93.095h29v77h-20v-62h-9v-15ZM657.516,71.095h20v15h-20v-15ZM691.516,71.095h28v99h-20v-84h-8v-15ZM733.516,71.095h28v99h-20v-84h-8v-15ZM805.863,91.675c11.386,0,18.879,5.62,21.042,15.421h4.612v-14h24v15h-8v47h8v15h-11.304c-7.012,0-12.696-5.684-12.696-12.696v-1.304h-4.612c-2.162,9.8-9.656,15.421-21.042,15.421-18.015,0-30.697-15.277-30.697-39.921s12.682-39.921,30.697-39.921ZM812.516,155.723c10.285,0,15-5.714,15-18.286v-11.143c0-12.571-4.714-18.286-15-18.286s-15,5.714-15,18.286v11.143c0,12.571,4.714,18.286,15,18.286Z" fill="#fff"></path>
  <polygon points="153.434 71.095 181.475 209.095 191.557 209.095 219.598 71.095 301.516 71.095 301.516 288.095 256.516 288.095 256.516 109.095 247.713 109.095 208.417 288.095 165.952 288.095 126.657 109.095 116.516 109.095 116.516 288.095 71.516 288.095 71.516 71.095 153.434 71.095" fill="#fff"></polygon>
  <polygon points="116.516 109.095 126.657 109.095 165.952 288.095 116.516 288.095 116.516 109.095" fill="#23a5e9"></polygon>
  <polygon points="153.434 71.095 181.475 209.095 191.557 209.095 219.598 71.095 153.434 71.095" fill="#f06c13"></polygon>
  <polygon points="247.713 109.095 256.516 109.095 256.516 288.095 208.417 288.095 247.713 109.095" fill="#eec700"></polygon>
  <g>
    <path d="M372.516,188.095h72v16h-51v25h39v16h-39v43h-21v-100Z" fill="#fff"></path>
    <path d="M452.363,278.894c-6.734-6.973-10.098-16.808-10.098-29.504s3.365-22.529,10.098-29.503c6.732-6.973,16.159-10.46,28.278-10.46s21.519,3.487,28.205,10.46c6.684,6.975,10.027,16.807,10.027,29.503s-3.343,22.531-10.027,29.504c-6.687,6.975-16.087,10.46-28.205,10.46s-21.546-3.485-28.278-10.46ZM493.391,268.808c2.749-3.272,4.125-8.368,4.125-15.292v-8.251c0-6.922-1.376-12.021-4.125-15.293-2.752-3.272-7.02-4.908-12.804-4.908s-10.078,1.636-12.874,4.908c-2.799,3.272-4.197,8.371-4.197,15.293v8.251c0,6.924,1.398,12.021,4.197,15.292,2.796,3.272,7.088,4.908,12.874,4.908s10.052-1.636,12.804-4.908Z" fill="#fff"></path>
    <path d="M535.677,281.988c-4.108-4.783-6.161-11.767-6.161-20.952v-49.941h19v46.456c0,5.771,1.122,10.004,3.371,12.696,2.247,2.694,5.765,4.04,10.556,4.04,4.886,0,8.452-1.346,10.702-4.04,2.248-2.692,3.371-6.925,3.371-12.696v-46.456h20v77h-18v-14h-2.722c-3.725,10.045-11.082,15.068-22.064,15.068-7.93,0-13.947-2.39-18.053-7.175Z" fill="#fff"></path>
    <path d="M610.516,211.095h18v14h2.723c1.813-4.973,4.559-8.729,8.238-11.266,3.676-2.534,8.285-3.803,13.825-3.803,7.928,0,13.945,2.392,18.052,7.175,4.106,4.785,6.162,11.767,6.162,20.952v49.941h-20v-46.456c0-5.771-1.119-10.002-3.355-12.696-2.238-2.692-5.785-4.04-10.645-4.04-4.764,0-8.29,1.348-10.573,4.04-2.285,2.694-3.427,6.925-3.427,12.696v46.456h-19v-77Z" fill="#fff"></path>
    <path d="M703.113,284.626c-4.491-3.199-7.976-7.783-10.459-13.754-2.485-5.968-3.725-13.012-3.725-21.132s1.218-15.161,3.654-21.132c2.435-5.968,5.896-10.552,10.386-13.753,4.488-3.199,9.789-4.799,15.903-4.799,5.444,0,10.004,1.218,13.682,3.653,3.675,2.436,6.326,5.899,7.951,10.387h2.591c-.387-6.666-.58-12.221-.58-16.667v-23.333h20v104h-18v-14h-2.722c-1.912,4.871-4.824,8.646-8.739,11.318-3.917,2.673-8.645,4.011-14.183,4.011-6.018,0-11.271-1.598-15.759-4.799ZM738.499,268.975c2.676-3.3,4.017-8.393,4.017-15.28v-8.609c0-6.887-1.341-11.98-4.017-15.281-2.679-3.3-6.84-4.95-12.483-4.95s-9.805,1.65-12.483,4.95c-2.679,3.3-4.017,8.393-4.017,15.281v8.609c0,6.887,1.338,11.98,4.017,15.28,2.677,3.3,6.837,4.95,12.483,4.95s9.804-1.65,12.483-4.95Z" fill="#fff"></path>
    <path d="M787.317,284.123c-4.152-3.113-7.382-7.617-9.693-13.514-2.312-5.895-3.467-12.899-3.467-21.014s1.155-15.117,3.467-21.014c2.311-5.895,5.541-10.401,9.693-13.514,4.15-3.113,9.008-4.67,14.576-4.67,5.282,0,9.644,1.439,13.089,4.316,3.442,2.879,5.778,7.005,7.005,12.382h4.529v-16h26v15h-8v47h8v15h-13.145c-4.238,0-7.439-1.092-9.606-3.277s-3.25-5.411-3.25-9.685v-3.039h-4.529c-1.227,5.377-3.562,9.505-7.005,12.382-3.445,2.879-7.807,4.316-13.089,4.316-5.568,0-10.426-1.557-14.576-4.67ZM820.036,268.966c2.32-2.995,3.48-7.588,3.48-13.776v-11.6c0-6.185-1.16-10.778-3.48-13.775-2.319-2.995-5.994-4.495-11.02-4.495s-8.7,1.5-11.02,4.495c-2.319,2.998-3.479,7.59-3.479,13.775v11.6c0,6.188,1.16,10.781,3.479,13.776,2.32,2.998,5.993,4.495,11.02,4.495s8.701-1.497,11.02-4.495Z" fill="#fff"></path>
    <path d="M859.516,211.095h55v14h-55v-14ZM876.715,284.984c-2.132-2.072-3.199-5.091-3.199-9.05v-86.838h20v85h21v14h-28.496c-4.071,0-7.174-1.036-9.305-3.111Z" fill="#fff"></path>
    <path d="M930.516,225.095h-10v-14h29v77h-19v-63ZM928.516,184.095h22v16h-22v-16Z" fill="#fff"></path>
    <path d="M972.021,278.894c-6.734-6.973-10.099-16.808-10.099-29.504s3.366-22.529,10.099-29.503c6.732-6.973,16.158-10.46,28.278-10.46s21.519,3.487,28.204,10.46c6.685,6.975,10.027,16.807,10.027,29.503s-3.342,22.531-10.027,29.504c-6.686,6.975-16.086,10.46-28.204,10.46s-21.546-3.485-28.278-10.46ZM1013.39,268.808c2.75-3.272,4.126-8.368,4.126-15.292v-8.251c0-6.922-1.376-12.021-4.126-15.293-2.752-3.272-7.019-4.908-12.803-4.908s-10.079,1.636-12.875,4.908c-2.798,3.272-4.196,8.371-4.196,15.293v8.251c0,6.924,1.398,12.021,4.196,15.292,2.796,3.272,7.089,4.908,12.875,4.908s10.051-1.636,12.803-4.908Z" fill="#fff"></path>
    <path d="M1049.516,211.095h18v14h2.723c1.813-4.973,4.559-8.729,8.238-11.266,3.676-2.534,8.285-3.803,13.825-3.803,7.928,0,13.945,2.392,18.052,7.175,4.106,4.785,6.162,11.767,6.162,20.952v49.941h-19v-46.456c0-5.771-1.119-10.002-3.355-12.696-2.238-2.692-5.785-4.04-10.645-4.04-4.764,0-8.29,1.348-10.573,4.04-2.285,2.694-3.427,6.925-3.427,12.696v46.456h-20v-77Z" fill="#fff"></path>
  </g>
</svg>