<?xml version="1.0"?><svg id="Layer_1" xmlns="http://www.w3.org/2000/svg" viewBox="0 0 600 600"><path d="M507.74,94.13s.02.07.04.11q.26.42-.25.85c-.11-.39-.1-.83-.42-1.11-.06-.05.07-.27.1-.41-.48.13-.68.49-.93.89.57.3-.02.86-.03,1.35.36-.19.67-.36,1.02-.55.2.11.4.23.63.36-.21.37.06.78-.48,1,.04.25.07.45.09.65.02.19.01.39.01.59.99-.41.99-.3,1.03-1.25.17-.07.34-.18.45.03.18.34.46.63.12,1.12-.07.1-.01.25-.04.37-.06.23-.15.46-.26.78.02.02.1.13.19.23l-.34-.02c0,.33,0,.66,0,.97.13,0,.28.01.42.02.11-.12.2-.25.32-.36.62-.55.69-1.03.22-1.48-.1-.09-.21-.2-.36-.32.28-.13.47-.23.67-.32.57.73.41,1.66.39,2.55-.14.15-.29.31-.39.42.11.2.25.35.26.53.02.2-.07.43-.11.65,1.12-.46,1.11.21,1.15.85.17-.14.26-.22.37-.32.06.1.11.17.13.2-.18.27-.34.49-.51.74q.82-.05.82.63c0,.08,0,.18.05.23.22.21.1.49.04.77-.01.05.01.1.04.23.09-.14.12-.22.18-.29.07-.08.15-.16.22-.23.68.32.69.31.74.96.03.34,0,.69.01,1.03,0,.02.06.04.08.05.12-.14.23-.28.37-.44.07.15.09.34.16.33.66-.03.69.57,1.16.77-.2.17-.33.27-.46.38-.22.2-.24.57-.03.54.06-.15.13-.3.2-.47.43.01.45.31.47.56.02.36.17.59.68.56-.31.27-.53.48-.35.73.31-.05.63-.1.98-.16.07.14.09.4.22.42.5.09.45.5.54.83.05.19.15.37.14.57,0,.2.46.12.22.45-.02.03.3.2.45.32.05.03.07.09.09.14-.37.48-.49.84-.3.92.13-.08.26-.17.39-.26.06.06.1.1.13.15.26.45.23,1.13,1.05,1.11.03,0,.07.04.09.08.09.17.34.22.22.55-.07.18.23.41.36.6-.22.25-.56.41-.37.69.15-.09.29-.18.54-.33.13.58.24,1.11.36,1.66.1-.11.2-.21.32-.33.34.37.72.68.97,1.09.24.4.7.74.42,1.39-.03.07.08.16.13.25.11-.13.18-.21.22-.27.39.29.78.57,1.15.86.1.08.25.23.21.32-.12.31.09.45.2.65.22.41.22.54.09,1.19-.03.16-.04.32-.08.59.2-.18.31-.27.42-.37.45.37,0,1.16.66,1.45-.02-.25-.03-.43-.05-.61l.09-.03c.22.28.45.57.66.83-.52.41-.09.63-.1.93q.51-.19.81.48c-.08.04-.16.09-.22.12.33.78.99,1.32,1.25,2.12.16.49.56.87.86,1.3.52.73,1.09,1.43,1.57,2.19.26.41.39.91.59,1.36.26-.54.78.02.94-.49.45.56.87,1.07,1.28,1.57q-.34.31.17.94c.1-.03.26-.03.33-.1.41-.42,1.09-.48,1.41-1.02.04-.07.22-.13.32-.13.73,0,1.11-.62,1.65-.95.05-.41.49-.59.76-.67.5-.15.94-.42,1.38-.66.48-.26.99-.36,1.47-.66.42-.27.66-.75,1.18-.86.03,0,.08-.07.09-.11.09-.23.29-.34.51-.47.16-.09.3-.31.34-.48.23-.84-.18-1.49-1.03-1.69-.47-.11-.54-.27-.45-.74.06-.27.1-.57,0-.79-.31-.74-.68-1.46-1.04-2.17-.08-.15-.2-.31-.36-.38-.56-.23-.57-.87-1-1.2-.05-.04-.05-.15-.05-.23.03-.45-.23-.7-.6-.89-.25-.13-.38-.28-.37-.6,0-.22-.24-.43-.42-.59-.16-.14-.39-.22-.37-.49.04-.43-.23-.65-.56-.85-.15-.09-.33-.2-.37-.35-.08-.32-.28-.53-.49-.77-.18-.2-.13-.6-.18-.91,0-.02-.02-.04-.03-.05-.35-.36-.77-.66-.78-1.25,0-.11-.19-.18-.32-.25-.14-.08-.29-.15-.45-.21-.27-.09-.39-.25-.34-.55.07-.39-.19-.62-.4-.88-.4-.49-.72-1.04-1.07-1.56-.03-.04-.01-.12-.01-.18,0-.33-.19-.54-.4-.76-.16-.18-.31-.41-.34-.65-.06-.48-.28-.83-.71-1.03-.26-.12-.38-.31-.44-.59-.13-.59-.64-1-.67-1.65,0-.12-.16-.22-.26-.31-.31-.26-.51-.58-.64-.96-.11-.32-.39-.57-.6-.84-.16-.2-.47-.33-.49-.56-.06-.54-.43-.82-.8-1.12-.13-.11-.26-.24-.33-.39-.2-.43-.42-.84-.87-1.09-.11-.06-.21-.2-.21-.32-.02-.56-.32-.91-.78-1.18-.15-.09-.28-.23-.32-.39-.12-.48-.38-.86-.77-1.16-.12-.09-.2-.24-.27-.38-.22-.41-.36-.87-.83-1.1-.06-.03-.12-.12-.12-.19.01-.72-.43-1.12-1.01-1.42-.23-.12-.3-.29-.23-.55.09-.37-.02-.64-.32-.84-.38-.26-.72-.56-1.12-.89.3-.57.04-.96-.4-1.27-.21-.15-.44-.29-.61-.48-.1-.1-.2-.29-.14-.4.31-.68.02-1.08-.39-1.47-.21-.2-.43-.45-.46-.73-.06-.53-.4-.83-.74-1.16-.11-.1-.24-.23-.26-.37-.04-.54-.38-.84-.81-1.1-.15-.09-.28-.28-.29-.46-.05-.47-.22-.83-.61-1.08-.21-.14-.46-.34-.48-.57-.08-.75-.53-1.21-1.13-1.58-.11-.07-.25-.19-.23-.3.08-.7-.41-1.02-.85-1.41-.26-.23-.51-.53-.57-.86-.08-.47-.31-.8-.67-1.06-.31-.23-.51-.52-.67-.87-.18-.4-.47-.77-.78-1.08-.19-.19-.29-.35-.3-.65-.02-.55-.15-1.05-.68-1.37-.2-.12-.39-.27-.56-.44l-2.01-2.09c-2.61-2.71-6.91-2.79-9.62-.18-.68.66-1.21,1.45-1.56,2.27-.09.22-.21.42-.35.59-.28.33-.44.68-.49,1.11-.02.17-.08.35-.18.49-.31.39-.47.83-.59,1.32-.05.2-.23.37-.41.48-.4.25-.54.65-.68,1.07-.11.33-.24.66-.45.93-.27.35-.5.69-.47,1.18.02.31-.1.54-.42.65-.54.2-.77.65-.95,1.15-.09.25-.23.51-.45.65-.54.34-.73.86-.85,1.45-.08.37-.11.82-.56.92-.64.14-.79.64-.81,1.13-.02.48-.26.68-.66.84-.22.09-.43.25-.52.45-.15.33-.18.72-.31,1.06-.1.25-.28.45-.43.68-.13.19-.32.36-.38.57-.15.51-.24,1.04-.35,1.58-.16.05-.42.05-.52.18-.28.37-.5.79-.43,1.33.04.33,0,.65-.02.99-.21,0-.38,0-.52.03-.14.03-.33.06-.37.16-.22.54-.54,1.07-.56,1.66-.02.45-.21.68-.51.89-.09.06-.2.13-.3.2.12.23.24.45.37.69-.16.1-.32.16-.43.27-.26.26-.8.27-.79.77,0,.5-.33.71-.83.78-.11.01-.21.05-.27.06-.12.42-.18.82-.35,1.16-.13.25-.36.47-.62.6-.23.11-.33.25-.41.46-.15.44-.24.94-.68,1.21-.62.39-.94.98-1.15,1.66-.1.33-.23.7-.51.88-.25.16-.23.35-.3.57-.16.55-.25,1.18-.62,1.57-.43.47-.71.96-.84,1.58-.07.32-.16.68-.56.78-.47.12-.68.45-.71.87-.05.66-.46,1.04-.99,1.35,0,.58-.11,1.1-.57,1.49-.2.17-.29.5-.33.79-.05.4-.18.69-.67.7-.11,0-.2.06-.33.1.17.73-.18,1.24-.55,1.7-.48.59-.73,1.29-1.05,1.96-.12.26-.22.48-.53.59-.13.04-.26.24-.22.36.12.41-.08.66-.22.96-.38.83-.99,1.49-1.58,2.18-.29.34-.46.76-.7,1.14-.25.39-.52.77-.81,1.14-.16.2-.39.34-.25.75.58-.28,1.09-.59,1.51-1,.22-.21.5-.51.79-.49.35.02.44-.14.63-.26l.56-.76.12.09-.68.67c.39.26.43.55.25.83-.1.16-.23.32-.33.48-.19.32-.35.64-.03,1.07.63-.1,1.33-.03,1.75-.58.11.43-.11.6-.29.77-.28.25-.03.59-.03.89,0,.34.36.33.44.41.05.34-.01.68.13.79.45.36.22.63.26.96.06.53-.14.89-.38,1.27-.04.07-.02.18-.02.28l.09.05c.13-.15.26-.3.38-.45.76.22.85.35.43.75-.35.33-.64.66-.64,1.19,0,.13-.13.23-.2.36-.07.15-.13.31-.23.53.59.03,1.1.05,1.71.08.02-.02.08-.12.18-.18.37-.24.52-.72,1.06-.78h-.02c.04-.1.06-.23.14-.32.29-.34.56-.71.93-.98.22-.16.69.02.84-.3.3.17.4.35.29.57-.09.15-.18.3-.29.44-.24.27-.51.57-.76.85.57.75.04,1.11-.1,1.62.65-.76,1.29-1.51,1.98-2.32.1.19.16.29.21.4h.12c-.03-.27-.07-.56-.11-.88-.22,0-.37,0-.56,0,.07-.34.13-.64.2-1-.46-.1-.84-.17-1.23-.26.16-.38.32-.77.49-1.18.72.03.77-.01.85-.87-.22-.06-.45-.11-.7-.18-.14-.54.21-1-.11-1.55-.04-.06.07-.17.13-.25.05-.08.17-.16.16-.24-.1-.48.27-.39.56-.37.01-.19.03-.38.04-.52.29.08.5.14.71.2.09-.59-.61-.61-.73-.96-.26-.02-.48-.03-.72-.04,0-.34.21-.27.43-.23.24.04.49.14.69-.04.31-.29.67-.54,1.01-.81.21.27.41.52.74.37.01-.21-.61-.29-.25-.54.13.04.25.09.45.16-.11-.21-.17-.33-.24-.44-.08-.12-.17-.23-.28-.33-.26-.26-1.09-.53-1.16-.36-.22.52-.56.09-.86.03.01-.25.06-.45.02-.66-.04-.24-.19-.45-.5-.51-.22-.05-.44-.01-.38.19.15.42-.21.62-.22.97,0,.06-.13.08-.2.13-.01-.23.08-.38.12-.54.04-.17.06-.36-.18-.53-.44-.32-.39-.64-.2-.95.09-.14.2-.27.32-.44-.48-.45-1.12-.77-1.29-1.4-.02-.06-.18-.13-.28-.19.35-.34.48-.32.82.08.07.08.24.19.33.17.35-.05.4.17.42.38.01.17-.05.33-.09.56.6-.01.98.31,1.33.74.11-.25.19-.45.28-.65.48.21.33.49.34.71.02.34-.03.67-.06.97.27.18.47.31.77.5.35-.35,1.05-.38,1.18-1-.39-.28-.73-.53-1.1-.8-.18-.05-.27.38-.65-.04.39-.19.76-.37,1.28-.61-.55-.1-.95-.17-1.45-.26-.03-.16-.15-.38-.09-.5.15-.3.01-.5-.3-.7-.1.03-.21.07-.42.14-.03-.36-.07-.62-.05-.88,0-.1.13-.23.23-.22.59.01.7-.42.93-.79.22.6.42,1.16.65,1.78.23-.13.4-.22.63-.35-.1.28-.17.51-.25.74.59.42,1.21.42,1.83.39,0-.11,0-.21.01-.41.26.24.43.39.58.53.32.04.65-.01.9.13.48.27.81.1,1.34.1-.37-.25-.61-.4-.85-.56-.32.09-.65.11-.99.06-.19-.03-.28-.42-.19-.39.37.14.43-.32.8-.16.1.05.25-.03.49-.06-.45-.36-.06-.47.05-.74-.3-.03-.52-.04-.85-.07.14-.17.23-.28.33-.41-.19-.1-.31-.16-.44-.23l.02-.08c.36.03.72.06,1.07.09-.27-.42-.26-.48.17-.49.2,0,.41.03.62.06.03,0,.06.06.09.09-.07.13-.13.26-.2.39.72.28.77.27,1.14-.07-.36-.24-.72-.47-1.09-.72,0-.39.7-.17.63-.67-.35-.03-.67-.15-.74-.66.36.11.66.2,1.03.31-.14-.21-.22-.34-.25-.38.22-.34.41-.62.63-.97.23.23.46.46.72.72.16-.15.55-.09.64-.39-.37-.07-.7-.12-1.09-.19.07-.19.15-.3.13-.41-.03-.26.51-.35.09-.72.17-.08.28-.2.27-.39.11.06.27.1.32.18.11.17.15.36.27.65.25-.49.54-.78,1.16-.7-.51-.48-1.03-.23-1.6-.48.3-.24.54-.44.82-.67-.01-.03-.06-.12-.09-.21.12-.1.23-.2.34-.3.09-.08.18-.23.29-.22.18.02.34.16.37.36.01.07.08.15.14.25.14-.14.24-.25.34-.35.7.39.93-.16,1.54-.22-.52-.28-.91-.5-1.29-.71-.15-.02-.3.19-.52-.2.23.1.38.16.53.23.01-.22.05-.44.03-.66-.03-.34.18-.41.48-.37.12.01.25.07.35.11.19-.25.07-.64.45-.8.15.24.29.46.44.7.12-.05.23-.07.3-.12.08-.05.12-.14.18-.21v.02c-.54-.38-.9-.87-1.15-1.46.15-.04.3-.08.41-.12-.38-.53-.82-.51-1.25-.31-.24-.21-.43-.38-.7-.61-.07.23-.12.4-.18.57-.27-.12-.5-.27-.51-.55-.02-.49-.45-.7-.84-.93-.46-.28-.79-.1-1.14.1-.08-.16-.13-.28-.2-.41.18-.11.34-.21.53-.33-.42-.33-.82-.65-1.2-.95.23-.49.44-.95.66-1.41.31.25.57.47.88.72.08-.03.22-.07.36-.11l.13.14c-.08.24-.15.48-.22.7-.26-.06-.42-.09-.59-.13-.04.22-.07.41-.12.66.17.07.39.23.49.19.39-.17,1.07.07,1.19-.54.04.59.59.4.85.61,0,.32-.02.63-.02.9.44.14.79.24,1.17.36.16-.2.59-.4.84-.21.35.26.5.08.73.09.36.01.72.02,1.09.05.24.02.48.08.53-.25-.37-.2-.75-.41-1.12-.61.05-.19.09-.36.14-.56-.25-.23-.49-.46-.69-.64,0-.35,0-.64,0-.97.45.23.88.38,1.21.07.12.13.24.33.3.33.44-.05,1.01.22,1.31-.25-.28-.08-.57-.1-.78-.24-.32-.22-.38-.51-.16-.74-.32-.62-.9-.67-1.44-.75-.08-.43.1-.63.42-.46.47.25,1.06.4,1.21,1.09.11-.28.17-.46.25-.65-.17-.17-.32-.33-.49-.5.13-.1.26-.2.37-.28-.05-.25-.62-.4-.29-.69.18.18.34.35.57.58.14-.29.26-.53.36-.74.27-.02.54-.05.91-.08-.31-.25-.51-.4-.81-.64.39-.07.66-.13,1-.19-.2-.2-.37-.37-.53-.54-.23-.51.44-.51.39-.95.3.11.53.2.82.3-.18-.39-.29-.71-.47-1.01-.18-.31-.31-.59-.29-.92.02-.49.07-.52.6-.19.05.03.09.07.16.12-.01-.17-.02-.31-.04-.53.22.22.36.36.51.51.06-.12.11-.22.17-.35.27.22.46.58.86.43-.37-.4-.13-.75-.18-1.13-.07-.48.56-.56.39-1.07.27,0,.57-.09.68,0,.19.17.25.45.37.69.64.12.69.11,1.28-.47-.53-.1-1.08-.06-1.5-.59.19-.09.36-.17.6-.28-.33-.09-.56-.15-.83-.22-.1-.39-.2-.76-.31-1.17.29.17.56.33.82.49-.18-.29-.5-.5-.57-.73-.08-.25.08-.52.13-.76-.17-.15-.46.08-.51-.27.44-.04.82-.14.93-.59l.19.79c.41-.01.2.48.61.48-.16.25-.28.43-.41.62.13.1.28.22.47.36.09-.23.16-.4.22-.55.24-.1.54.31.73,0-.21-.34-.85-.54-.59-1.11.08.03.23.08.41.15-.35-.46-.58-.77-.81-1.07-.07.09-.13.18-.21.28q-.04-.26.22-.26c.24-.03.49-.05.84-.09-.29-.19-.48-.3-.65-.43-.17-.13-.31-.29-.46-.42.37-.61,1.18-.38,1.65-.58.4.48.64.93,1.22,1.27q-.31-.77-.2-1.09c.08.08.17.16.32.31,0-.32.4-.41.18-.79,0,0,.25-.12.27-.1.26.26.49.54.68.76.9.18,1.52-.12,2.1-.48-.21-.25-.42-.49-.62-.73h.03c-.75-.01-.84.65-1.3,1.01-.26-.25-.5-.49-.73-.72.07-.14.15-.23.17-.35.11-.7.37-1.31.86-1.81.06-.06.12-.2.08-.26-.26-.37.03-.54.14-.77-.07-.08-.15-.16-.18-.21.2-.21.4-.41.58-.6-.14-.16-.23-.26-.33-.36.26-.13.5-.25.73-.37l-.08-.15c-.35-.01-.7-.02-1.12-.04-.09-.17-.18-.35-.31-.59.31.01.51.02.78.03-.1-.26-.19-.49-.3-.76.1-.07.21-.15.23-.16.6.21,1.1.39,1.72.6-.18-.31-.31-.53-.45-.75.2.09.28.04.34-.11.01-.03.26.07.42.11-.08-.28-.16-.49-.19-.7-.01-.09.07-.25.11-.24.42.08.36-.47.78-.39.01,0,.03-.04.05-.09h-4.15c.07.06.17.13.23.12.33-.06.32.1.3.31-.01.12,0,.24,0,.34.87.1.59.78.57,1.34.28-.09.5-.16.65-.2.5.47.96.9,1.45,1.35-.12.11-.28.24-.36.31.18.34.34.63.51.94.07,0,.18-.03.28-.04-.14.36.39.38.34.7q-.85.52-.84.65c.23-.09.46-.22.7-.27.27-.06.45.14.33.37-.27.53-.15.92.21,1.25-.58.28-.55.61-.34,1.02-.69-.22-1.26-.4-1.83-.59l-.06.08c.16.21.32.42.46.61-.09.3-.18.58-.27.86.3-.04.56-.07.81-.1,0-.08.01-.2.03-.46.19.3.31.48.48.73.5-.46.97-.89,1.41-1.29.17.1.33.18.47.27.19.12.21.88,0,.97-.57.23-.23.37-.11.55h-.03c.21-.12.42-.25.61-.36.28.28.54.53.82.81-.14.17-.27.3-.36.45-.05.08-.06.26-.02.28.09.03.28.02.34-.04.35-.36.28.01.36.17-.29.05-.58.1-.86.14-.45.76-.51,1.44-.02,1.92-.12.29-.21.5-.31.74.4-.14.8-.41,1.05-.35.35.07.68.12,1.14-.03-.12.16-.18.23-.23.3.33.06.77.02.54.56ZM486.08,101.45c-.35,0-.44-.14-.38-.56.25.09.47.46.76.26l.18.26c.19.32.4.4.61.1.22.45-.08.49-.38.56.12.25.23.47.34.71-.57-.05-.61-.77-1.15-.76-.08-.35.09-.49.38-.41.33.1.09-.2.21-.22-.19.02-.38.06-.58.06ZM486.31,102.96c.13.05.26.09.48.16-.13.24-.27.42-.35.64-.08.22-.11.47-.14.62-.4.02-.67.03-1.02.05,0-.07-.08-.25-.02-.29.31-.19.45-.42.2-.82,0,0,.12-.05.18-.07-.06-.06-.16-.15-.27-.26.12-.13.24-.25.36-.37.21.11.41.22.62.33h-.04ZM509.37,95.26c.12.31.23.58.36.89-.41.2-.77.25-1.06.08-.2-.12-.45-.25-.2-.61.3-.12.61-.24.91-.35ZM473.48,126.84c-.15.2-.31.42-.56.75-.06-.39.02-.61-.27-.86-.29-.25-.1-.55.05-.96.31.42.53.73.79,1.07ZM474.23,120.49c-.39.01-.77.03-1.13.04-.18-.32.08-.29.18-.39.09-.1.07-.29.11-.53.3.17.57.32.85.47,0,.17-.01.28-.01.41ZM484.91,102.78c-.49.36-.56.34-1.36-.41.17.04.27.06.36.09.09.02.17.04.3.08,0-.16-.01-.29-.02-.57.31.36.52.59.72.82ZM483.83,98.34c.19.09.38.19.66.32-.39.19-.72.36-1.09.54-.25-.63.36-.55.44-.86ZM483.52,109.36c-.39.05-.72.1-1.05.14l-.07-.1c.2-.22.41-.45.67-.74.14.22.27.43.45.71ZM482.83,107.84c-.03-.46-.01-.82.56-.8.1.29-.39.57.2.87l-.08.1c-.23-.06-.46-.12-.68-.17ZM472.56,116.04c.11,0,.31.03.31.04.04.22.09.45.07.66,0,.07-.18.14-.29.13-.06,0-.19-.18-.21-.27-.03-.17,0-.33,0-.46.05-.05.07-.1.1-.1ZM484.27,101.14c.2.37.62.55.67.99-.32-.17-.64-.33-.98-.51.12-.18.2-.3.32-.48ZM472.79,134.23c.03-.52.43-.78.79-1.07.05.58-.45.76-.79,1.07ZM477.6,117.6q.37.41.07.68c-.02-.21-.04-.43-.07-.68ZM527.51,126.19c.14.26.24.44.34.62l-.16.1c-.31-.08-.45-.24-.18-.71ZM506.6,91.79c-.19.19-.32.33-.59.6-.02-.3-.03-.46-.05-.67.24.03.39.05.64.08ZM477.76,118.89c.04.06.09.1.08.12-.09.24-.2.43-.63.04.25-.08.4-.12.55-.17ZM486.65,108.82c-.21.04-.37.1-.59-.13.2-.14.37-.22.59.13ZM483.73,101.53s-.15-.01-.18-.05c-.18-.19-.11-.32.23-.35-.01.13-.03.27-.05.4ZM468.69,128.33l.17.07-.15.51-.18-.07.16-.51ZM506.51,90.92c.14.03.23.03.28.07.07.05.1.14.2.29-.46.08-.51-.06-.48-.36ZM486.33,100.41s-.03.15-.04.15c-.12-.04-.24-.08-.35-.13l.03-.19c.12.05.24.1.36.17ZM481.97,105.76q-.29.05-.45-.32c.18.13.3.21.45.32ZM487.68,105.34s.09-.03.11-.01c.05.05.08.11.12.16-.04,0-.08.01-.13.02l-.1-.17ZM485.53,108.4l.07-.02.15.24-.08.03-.14-.24ZM488.41,103.14s.07-.02.1-.04l.17.29-.11.03c-.06-.1-.11-.19-.17-.28ZM478.73,117.82s.05.16.04.16c-.08.02-.16.01-.25,0-.02,0-.03-.1-.06-.2.11.01.2,0,.27.03ZM471.2,126.23l.08.05-.24.36-.08-.06.23-.36Z" fill="#161616" stroke-width="0"></path><path d="M501.39,87.39c-.1-.07-.26-.21-.3-.19-.54.25-.82-.24-1.26-.56.81-.44,1.73-.58,2.55-.88.14.27.27.45.09.65-.13.14-.11.41-.17.67-.52-.24-.78-.05-.93.3h.03Z" fill="#161616" stroke-width="0"></path><path d="M477.81,122.16c.15-.48.45-.45.84-.26.17.08.37.08.55.14.12.04.22.14.34.33-.26,0-.53-.03-.77.02-.24.04-.45.15-.78.27-.05-.03-.21-.13-.36-.24-.21-.16-.4-.35-.61-.51-.23-.17-.28-.36-.13-.48.07-.05.35.05.48.15.14.11.23.29.44.58Z" fill="#161616" stroke-width="0"></path><path d="M476.59,120.92c-.18-.31-.29-.5-.43-.75.76.07,1.43.64,2.13.49.14.13.29.27.47.44-.05.04-.07.1-.12.11-.19.02-.41-.02-.58.03-.14.04-.22.17-.34.27-.16-.29-.32-.56-.47-.83-.26-.07-.52-.16-.65.25Z" fill="#161616" stroke-width="0"></path><path d="M502.64,84.37c.27-.15.54-.3.78-.43.12.04.17.04.21.07.62.53.61.66-.11.81-.55.11-.55.11-.88-.44Z" fill="#161616" stroke-width="0"></path><path d="M475.22,133.01q-.16-.63-.61-.97c.05-.08.09-.17.16-.23.14-.14.32-.32.56-.11.2.18.42.44.3.69-.09.19-.23.35-.4.61Z" fill="#161616" stroke-width="0"></path><path d="M488.52,111.61c-.48.11-.95.06-1.39-.33-.09-.08-.17-.25-.14-.33.02-.09.17-.17.28-.16.15,0,.36.07.46.17.23.26.75.21.8.66Z" fill="#161616" stroke-width="0"></path><path d="M502.33,84.62c-.19.29-.37.56-.56.85-.31-.48-.62-.09-.9-.28.24-.64.55-.77,1.46-.57Z" fill="#161616" stroke-width="0"></path><path d="M491.35,105.89c.06.15.11.28.18.45-.33-.04-.62-.07-.96-.11.09.13.16.23.23.33l-.04.06c-.17-.1-.36-.19-.49-.32-.09-.1-.17-.31-.12-.39.06-.11.24-.22.38-.22.25.01.51.11.82.19Z" fill="#161616" stroke-width="0"></path><path d="M465.4,132.1c.09-.47.1-.98.29-1.39.15-.33.52-.55.87-.9-.37.86-.7,1.62-1.03,2.37l-.14-.07Z" fill="#161616" stroke-width="0"></path><path d="M489.6,109.12c.03.07.1.21.16.36-.29.1-.55.19-.81.28q-.37-.66-.34-1.04c.3.12.61.25.99.4Z" fill="#161616" stroke-width="0"></path><path d="M499.79,82.24c-.17.15-.4.34-.63.54-.44-.48-.43-.56.09-.83-.06-.04-.13-.09-.22-.15.14-.07.26-.12.37-.18l.05-.35.12-.03c.07.3.13.6.22.99Z" fill="#161616" stroke-width="0"></path><path d="M499.61,83.61c-.2.69-.3.8-1.2,1.18.13-.21.18-.43.33-.54.4-.3.32-.5.08-.71-.06-.05-.07-.16-.1-.25l.12-.09c.11.1.2.23.33.31.11.06.26.07.43.11Z" fill="#161616" stroke-width="0"></path><path d="M497.31,82.69c.09-.48.17-.87.24-1.26.32-.14.56-.13.64.17.09.32-.17.68-.88,1.09Z" fill="#161616" stroke-width="0"></path><path d="M503.83,82.51c-.17.43-.55.43-.91.51,0-.13,0-.24,0-.41-.18.04-.32.07-.48.1-.02-.52,0-.54.44-.46.29.05.58.16.94.26Z" fill="#161616" stroke-width="0"></path><path d="M497.29,96.95c-.38.05-.75.11-1.12.16-.1-.65-.08-.71.26-.71.49,0,.7.15.86.54Z" fill="#161616" stroke-width="0"></path><path d="M494.43,99.12c-.41-.04-.72.41-1.3-.04-.31-.24-.11-.43-.46-.68.7.29,1.23.5,1.75.72Z" fill="#161616" stroke-width="0"></path><path d="M504.3,82.72c.07-.32.14-.65.22-1.03.43.34.95.31,1.31.73-.72-.09-1.11-.14-1.53.3Z" fill="#161616" stroke-width="0"></path><path d="M492.32,103.94c-.17-.28-.33-.54-.54-.88.32.04.62.02.87.13.18.08.31.34.48.55-.3.07-.55.13-.8.19Z" fill="#161616" stroke-width="0"></path><path d="M485.7,115.21c-.33.13-.6.24-.89.35-.2.08-.22.07-.47-.29.39-.02.67-.16.5-.61.49-.02.56.38.85.55Z" fill="#161616" stroke-width="0"></path><path d="M478.6,125.17c.79-.06.84-.03,1.33.77-.18-.05-.33-.09-.48-.12-.16-.02-.31-.03-.48-.04-.1-.16-.23-.38-.37-.61Z" fill="#161616" stroke-width="0"></path><path d="M476.57,125.8c-.05-.18-.14-.37-.13-.53,0-.05.26-.07.4-.04.18.03.39.09.53.2.1.07.13.26.15.39,0,.02-.19.04-.3.04-.18,0-.37-.03-.64-.06Z" fill="#161616" stroke-width="0"></path><path d="M467.34,132.9c.03-.37-.02-.74.39-.97.24-.13.33-.46.49-.71,0,0,.02,0,.04.02.02.01.05.04.04.05-.26.57-.53,1.14-.79,1.71l-.18-.1Z" fill="#161616" stroke-width="0"></path><path d="M481.39,122.67c-.37-.04-.65-.06-.96-.09-.07-.12-.17-.24-.18-.36-.01-.1.04-.26.12-.28.12-.03.34-.01.44.07.21.17.36.4.59.67Z" fill="#161616" stroke-width="0"></path><path d="M497.41,89.77c-.2-.36-.39-.7-.58-1.05.5-.11.38.37.64.47.22.09.43.23.75.4-.37.08-.61.14-.8.18Z" fill="#161616" stroke-width="0"></path><path d="M466.23,127.26c-.17.59-.52.77-1.14.76.17-.51.49-.73,1.14-.76Z" fill="#161616" stroke-width="0"></path><path d="M486.99,113.56c-.32.06-.58.11-.86.16-.01-.59.11-.76.56-.81.09.18.17.37.3.65Z" fill="#161616" stroke-width="0"></path><path d="M496.16,99.01c-.4-.09-.71-.15-1.06-.23,0,.11-.02.21-.03.33-.05-.06-.14-.13-.13-.16.09-.24.19-.46.3-.72.43.12.63.41.91.77Z" fill="#161616" stroke-width="0"></path><path d="M499.16,92.51c-.08-.31-.12-.51.19-.55.37-.05.56.17.77.42-.2.36-.64,0-.96.13Z" fill="#161616" stroke-width="0"></path><path d="M474.45,128.31c-.32-.75-.31-.88,0-1.02.08-.04.23-.04.3,0,.07.05.14.21.11.27-.09.22-.23.42-.41.74Z" fill="#161616" stroke-width="0"></path><path d="M500.43,89.73c.21.19.43.38.62.55-.17.21-.33.4-.51.63-.31-.39-.13-.77-.26-1.15l.15-.03Z" fill="#161616" stroke-width="0"></path><path d="M497.76,80.94l.05-.25h7.04s-.94.2-.94.2c-.04-.16-.07-.28-.11-.44.18-.02.35-.1.53-.11h-6.01c-.06.14-.17.27-.41.36-.03,0-.02.15-.04.23h-.12Z" fill="#161616" stroke-width="0"></path><path d="M504.8,91.46c-.2.26-.37.48-.56.75-.32-.25.25-.68-.07-.87.47-.33.47.03.64.12Z" fill="#161616" stroke-width="0"></path><path d="M471.15,133.81c.26-.21.53-.43.87-.7-.28.59-.58,1.05-1.21,1.41.16-.31.26-.51.36-.72h-.02Z" fill="#161616" stroke-width="0"></path><path d="M498.43,92.72c-.31.1-.59.2-.99.33.05-.31-.07-.56.19-.6.23-.03.52-.04.79.27Z" fill="#161616" stroke-width="0"></path><path d="M503.05,89.78c.15.12.26.21.44.36-.26.2-.48.37-.71.55l-.07-.06c.11-.26.22-.52.35-.84Z" fill="#161616" stroke-width="0"></path><path d="M476.24,130.14c.1-.48-.32-.29-.53-.38-.03-.37.27-.25.52-.23.12.2.24.39.39.64-.15-.01-.26-.03-.38-.04v.02Z" fill="#161616" stroke-width="0"></path><path d="M482.89,120.46c-.75-.1-.81-.18-.67-.73.2.22.4.43.67.73Z" fill="#161616" stroke-width="0"></path><path d="M500.7,85.94c.05.62-.39.85-.87,1.09.21-.33.59-.58.57-.96,0-.02.16-.07.3-.13Z" fill="#161616" stroke-width="0"></path><path d="M494.49,96.79c.46.12.63.26.56.47-.03.09-.25.09-.44.16-.05-.28-.08-.45-.12-.63Z" fill="#161616" stroke-width="0"></path><path d="M464.2,127.34c-.09.23-.17.47-.27.74-.35-.46-.35-.47.27-.74Z" fill="#161616" stroke-width="0"></path><path d="M493.79,101.03c.17-.4.2-.4.84-.03-.26.16-.56-.02-.84.03Z" fill="#161616" stroke-width="0"></path><path d="M465.06,129.81c-.2.2-.22.55-.61.64.09-.44.16-.52.61-.64Z" fill="#161616" stroke-width="0"></path><path d="M500.24,84.56c.26-.08.46-.13.66-.19.19.27-.06.39-.35.55-.09-.11-.18-.22-.3-.36Z" fill="#161616" stroke-width="0"></path><polygon points="464.76 126.99 465.14 126.08 465.3 126.16 464.91 127.06 464.76 126.99" fill="#161616" stroke-width="0"></polygon><path d="M491.31,101.02c.35-.15.6-.27,1.02.06-.36,0-.57.2-1.02-.06Z" fill="#161616" stroke-width="0"></path><path d="M477.56,127.56c.23.21.38.35.6.55-.27-.03-.47-.05-.74-.08.05-.17.09-.29.14-.47Z" fill="#161616" stroke-width="0"></path><path d="M492.11,98.29q.42.31.08.73c-.03-.24-.05-.44-.08-.73Z" fill="#161616" stroke-width="0"></path><path d="M502.24,86.63c-.12-.1-.24-.19-.39-.31.3-.01.52-.02.89-.03-.24.16-.38.25-.52.34h.02Z" fill="#161616" stroke-width="0"></path><polygon points="465.48 129.58 465.9 128.95 465.98 129 465.57 129.61 465.48 129.58" fill="#161616" stroke-width="0"></polygon><path d="M498.38,94.38l-.3-.61c.15.2.57.31.3.61Z" fill="#161616" stroke-width="0"></path><path d="M517.08,110.82c.25.15.23.31-.01.55-.17-.17-.21-.31.01-.55Z" fill="#161616" stroke-width="0"></path><path d="M499.03,90.22c-.11.17-.19.28-.27.42-.08-.09-.16-.14-.17-.19-.06-.23.08-.28.45-.23Z" fill="#161616" stroke-width="0"></path><path d="M504.67,89.53c.07.1.14.21.29.44-.32-.03-.48-.05-.81-.08.29-.19.42-.28.55-.36h-.03Z" fill="#161616" stroke-width="0"></path><path d="M464.81,128.29c-.1.15-.19.29-.35.53-.12-.4.05-.5.35-.53Z" fill="#161616" stroke-width="0"></path><path d="M475.24,127.34c.19.1.33.16.57.28-.16.06-.22.11-.29.11-.31.02-.25-.17-.28-.39Z" fill="#161616" stroke-width="0"></path><path d="M483.86,117.62c.22.11.35.17.49.24-.04.07-.05.12-.07.12-.19.02-.35,0-.42-.36Z" fill="#161616" stroke-width="0"></path><path d="M473.54,134.67c.16-.24.25-.38.37-.57.19.39-.07.42-.37.57Z" fill="#161616" stroke-width="0"></path><path d="M492.5,97.32c.07-.07.13-.15.21-.21.01-.01.11.06.16.1l-.22.24-.15-.13Z" fill="#161616" stroke-width="0"></path><polygon points="496.7 94.85 496.23 94.95 496.17 94.84 496.6 94.68 496.7 94.85" fill="#161616" stroke-width="0"></polygon><path d="M487.73,109.49q.32-.21.65.18c-.29-.09-.47-.15-.66-.2v.02Z" fill="#161616" stroke-width="0"></path><path d="M476.24,130.12l-.32.47c-.21-.43.18-.33.33-.45v-.02Z" fill="#161616" stroke-width="0"></path><polygon points="492.46 101.53 491.99 101.63 491.94 101.54 492.39 101.39 492.46 101.53" fill="#161616" stroke-width="0"></polygon><path d="M502.22,86.63c.03.12.06.23.1.43-.36-.13-.13-.29-.08-.43h-.02Z" fill="#161616" stroke-width="0"></path><polygon points="503.23 89.52 502.86 89.47 502.9 89.35 503.27 89.43 503.23 89.52" fill="#161616" stroke-width="0"></polygon><polygon points="523.94 120.97 523.92 121.34 523.84 121.36 523.79 121 523.94 120.97" fill="#161616" stroke-width="0"></polygon><polygon points="480.82 119.93 481.09 120.31 480.97 120.37 480.7 119.98 480.82 119.93" fill="#161616" stroke-width="0"></polygon><path d="M490.78,101.56c-.01-.06-.04-.12-.02-.16,0-.02.09-.01.14-.02,0,.06.02.12.02.17,0,.01-.07,0-.14,0Z" fill="#161616" stroke-width="0"></path><path d="M486.31,102.96c.2.2.1.27-.15.28l.19-.28h-.04Z" fill="#161616" stroke-width="0"></path><path d="M362.76,521.24c-.12,0-.45.06-.68.1-2.96.53-2.96.51-3.56-.09,2.34-.22,4.52-.41,6.97-.94.44-.1,1.16,0,1.77,0,.79-.64-.4-.77-1.63-1-3.29.9-4.27.27-6.71.42-.14.43-.27.8-.4,1.21-1.18.25-2.45.52-3.83.82-1.21-.23-4.17.15-3.55-.5-1.37,0-2.47,0-3.56,0-1-.03-2-.06-3.03-.08-1.14,1.14-1.69,1.12,3,1.32-.2.2-.2.39-1.62.48-1.15.06-2.32.18-3.38.18-1.06-.03-2-.13-2.69-.38-.28-.11-1.22-.11-1.73-.2-.95-.16-1.81-.33-3.06-.57-.18.01-.98.04-1.81.05l1.24-.27c-1.69-.18-3.38-.36-4.97-.53-.46.1-1.01.23-1.53.34.26.15.62.31.78.47.76.8,3.01,1.17,6.89.96.85-.06,1.7-.11,2.82-.19-.24.31-.41.53-.58.75-1.4.05-2.69.07-3.96.02-1.27-.06-2.48-.15-3.66-.25-2.35-.21-4.56-.5-6.83-.75-.3-.2-.61-.41-.84-.56-1.41-.02-2.64.01-3.63-.07-1.11-.09-2-.3-3-.45-1.45,1.19-4.86.81-8.31.5.17.22.27.34.38.49h-1.48c-.76-.3-1.4-.55-2.11-.84q-2.49.71-6.05.34c-.42-.04-.94-.1-1.36-.08-1.85.07-2.9-.18-4.1-.39-.23-.04-.59-.04-1.32-.1.45.15.72.22.89.31.21.1.32.22.46.31-3.94.39-3.96.4-7.49.09-1.83-.16-3.56-.37-5.35-.56-.12-.01-.38.03-.54.04.32.17.63.35,1.01.56-.99-.03-2.06-.11-2.27-.05-2.09.57-5.29.27-7.93.55-.17-.26-.24-.42-.39-.59-.27-.29-2.1-.52-2.72-.32.55.14,1.13.28,1.76.43-1.54.35-3.12.21-4.45.08-1.96-.18-3.64-.18-5.22.26-.38-.41-.66-.71-2.58-.69-.79.29-1.59.58-2.48.9-.95-.02-2.38-.14-2.94-.05-2.18.37-4.12.1-6.16,0-1.16-.06-2.42-.08-3.45-.19-1.02-.11-2.17.32-3.1-.06-.08-.03-2.06.14-3.16.2-.33.02-.71,0-1.04,0-1.2-.57-2.68-.87-3.75-.76v.47c-.51.01-.87.03-1.22.03-3.19-.03-6.63-.43-9.33.27-.11.03-.46.03-.69.03-1.18-.02-2.29.17-3.61-.12-.73-.16-2.9-.03-4.34-.03-.56-.32-.2-.69-2.31-.69-.04.18-.08.34-.14.63-3.41-.21-6.56-.41-9.79-.61.2.15.38.28.61.45-3.04.08-5.98.23-8.9.21-2.9-.02-6.22.17-8.59-.41-.24-.06-1.06-.02-1.75-.03.29.16.49.26.62.33-2.84.17-5.61.33-8.37.49-.77.04-2.02.09-2.38,0-1.21-.27-2.63-.18-4.03-.19-2.86-.04-3.58-.11-6.5-.58-.77-.11-1.54-.21-2.78-.39.23.26.36.41.49.56-3.43.17-6-.65-9.76-.24,1.35.12,2.34.21,3.33.3l-.14.1c-2.23.03-4.45.06-6.54.09-.36-.66-2.92-.42-4.45-.59q-.76.53-5.24.42c.05-.09.09-.18.13-.25-5.14-.15-10.16.1-15.24-.12-3.07-.13-6.41-.01-9.63,0-5.56.04-11.11.12-16.67.11-3.02,0-6.03-.17-9.05-.26,1.89.51-2.72.64-.66,1.06-4.41.07-8.47.14-12.48.2q-.49-.45-5.41-.37c-.2.1-.72.24-.58.33.81.57-1.25,1.17.5,1.74.22.07-.06.26-.4.34-2.5.6-.57,1.27-.67,1.9,1.96.27,1.37.74.89,1-.92.5-1.03,1.01-1.29,1.51-.29.54-1.5,1.02-1.56,1.59-.05.5,1.65.96.43,1.46-.07.03.08.1.23.14.91.21.76.43.71.69-.04.18.61.42,1.32.55,3.57.66,8.35.67,12.26.06,2.15-.33,3.26-.3,5.34.03,1.19.19,2.62.4,4.06.44,4.9.15,9.84.23,14.77.32,1.05.02,2.29,0,3.18-.09,3.12-.34,6.46,0,9.61-.17.39-.02.95.04,1.35.08,2.23.27,4.43.19,6.61-.01,1.5-.14,2.74-.17,4.4.02,1.14.13,3.01.04,4.48-.03,1.29-.05,2.46-.21,3.8-.04,2.09.26,4.16.16,6.28,0,.97-.07,2.15-.17,3.05-.11,1.95.11,3.69.06,5.64,0,1.66-.04,3.52.22,5.29.35.11,0,.24,0,.36,0,3.04-.1,6.05-.29,9.11.03.56.06,1.61-.06,2.38-.12.9-.07,1.79-.16,2.61-.26,1.38-.17,2.64-.19,4.02.02,1.81.27,3.82.18,5.92.15,3.9-.06,7.83-.04,11.75-.04.33,0,.66.06.99.09,1.71.18,3.46.14,5.3.09,1.48-.04,3.16-.04,4.51.07,2.67.22,5.21.22,7.73-.02,1.54-.15,2.9-.14,4.53-.04,3.51.22,7.36.01,10.84.35.65.06,1.67-.01,2.49-.05,2.39-.11,4.7-.11,7.15,0,2.04.08,4.27,0,6.4-.04,1.55-.03,3.32-.21,4.58-.1,3,.24,5.69.09,8.51-.06,1.01-.05,2.12-.09,3.14-.06,2.9.07,5.75.11,8.56-.13.69-.06,1.73-.07,2.38,0,2.96.3,5.81.23,8.76,0,.95-.07,2.16-.11,3.11-.06,2.9.16,5.71.15,8.59,0,.9-.05,1.91-.03,2.86-.02,2.86.04,5.72.17,8.52-.09.39-.04,1.02-.03,1.38,0,3.68.41,7.26.26,10.8-.07,1.37-.13,2.5-.09,3.66.11,1.59.28,3.37.33,5.43.19,2.63-.17,5.35-.29,8.38-.45.96.28,2.17.42,3.53.47,1.37.04,2.97-.07,4.59-.2,1.57-.13,3.13-.28,4.74-.37.87-.08,2.25-.17,2.7-.09,1.29.22,2.74.26,4.31.2.78-.04,1.6-.07,2.43-.18.83-.13,1.69-.26,2.57-.39,1.8-.29,3.92-.62,5.55-.7,3.07-.28,5.87-.91,8.78-1.54.93-.24,2.03-.54,2.84-.66,3.04-.45,5.81-1.13,8.59-2.2.99-.36,2.39-.76,3.41-.96.66-.13,1.31-.27,1.96-.42.64-.17,1.27-.37,1.9-.57,1.26-.41,2.53-.87,3.83-1.41.69-.29,1.5-.61,2.28-.91.78-.32,1.54-.63,2.18-.82,2.08-.64,4.07-1.36,6-2.15,1.89-.88,3.73-1.83,5.57-2.82.67-.37,1.7-.87,2.24-1.06,1.67-.6,3.26-1.35,4.82-2.18.78-.41,1.55-.84,2.33-1.28.77-.45,1.52-.95,2.29-1.43,1.82-1.16,3.99-2.42,5.78-3.36,2.49-1.38,4.68-2.76,6.86-4.4,1.83-1.47,3.7-2.8,5.75-4.18,2.33-1.62,4.61-3.54,6.79-5.35,1.3-1.11,2.19-1.94,3.56-2.89,1.23-.88,2.49-1.81,3.74-2.86,1.21-1.09,2.43-2.28,3.64-3.62,1.9-2.01,4-4.42,6.05-6.49,1.99-1.95,3.5-3.88,5.01-5.9.6-.82,1.34-1.74,2.05-2.55,1.98-2.47,3.8-4.87,5.48-7.41.66-1.04,1.61-2.28,2.41-3.25.88-1.09,1.72-2.16,2.44-3.3.72-1.15,1.4-2.31,2.09-3.49.56-.94,1.13-1.9,1.69-2.85.56-.97,1.11-1.93,1.66-2.88,1.43-2.44,2.81-4.71,3.66-7.12.57-1.51,1.28-2.96,2.27-4.45,1.62-2.55,2.86-5.55,4.11-8.61.55-1.57,1.24-3.38,1.91-4.78.4-.85.78-1.69,1.13-2.53.35-.84.62-1.71.9-2.56.55-1.71,1.04-3.42,1.51-5.15.57-2.2,1-4.72,1.9-6.67.32-.7.6-1.43.86-2.16.24-.74.41-1.49.58-2.23.33-1.48.57-2.95.75-4.3.41-2.67.74-4.51,1.41-6.72.35-1.2.74-2.8.93-4.17.24-2.3.33-4.52.54-6.8.19-1.67.33-3.43.47-5.16.12-1.48.3-3.03.34-4.42.03-3.27-.18-6.46-.28-9.77.11-.82.33-1.72.34-2.69.03-2.89-.02-5.77-.37-8.35-.22-1.56-.35-3.39-.53-5.16.17-.77.32-1.26.42-1.91.1-.62.24-1.46.22-2.1-.11-3.54-.14-7.33-.45-10.46-.24-2.41-.2-4.2-.06-6.35.05-.68.09-1.35.14-2.08-.23-.77-.45-1.5-.69-2.32.08-1.06.18-1.92.21-2.83.07-2.23.52-4.13.24-6.68-.28-2.59-.11-4.82.27-6.84.08-.44.15-.94.19-1.22-.13-2.55-.3-4.83-.35-7.17-.03-1.72.04-3.67.19-5.23.13-1.34.14-2.4.09-3.76-.11-2.82-.31-5.66-.1-8.58.3-4.13.25-8.26.05-12.47-.1-2.04-.19-4.43-.06-6.27.12-1.66,0-2.6-.06-3.96-.17-3.38-.44-6.94-.35-10.23.1-3.87.07-7.36-.16-11.02-.12-1.9-.24-4.05.03-5.95.33-2.22.32-4.67.12-6.91-.32-3.6-.18-6.94.08-10.37-.32-3.01-.51-6.06-.34-9.62.08-1.6-.03-3.57-.16-5.18-.18-2.25-.23-4.15.18-5.9.09-.38.14-.98.22-1.62-.54-3.17-.53-7.05-.47-10.69.07-4.67-.1-9.16-.2-13.7-.04-1.74-.08-3.25.12-4.86.08-.65.08-2.12-.01-2.6-.33-1.69-.29-3.69-.34-5.71-.13-5.59,0-11.09.12-16.63.06-2.72-.04-5.5-.04-8.26,0-2.88,0-5.77.05-8.64.02-1.55.14-3.09-.2-4.74-.33,3.44-.58,6.75-.71,10.33-.07,1.85-.14,4.32-.4,5.22-.3,1.06-.29,2.25-.38,3.49l-.05,5.83-.15-.04c.07-1.93.13-3.86.2-5.8-.47-.04-.66-1.38-.66-3.48v-3.61c-.01-2.26-.05-4.5-.56-5.63-.47,2.64-1.09,4.68-1.14,8.94-.33-1.87-.24-3.47-.18-4.95.09-2.23-.3-3.14-.47-4.67-.19-1.73-.49-.5-.59-.62-.23-1.61-.36-3.58-.54-3.68-.58-.3-.53-2.53-.74-4.1-.34-2.51-.37-5.1-.38-7.86,0-.5-.09-1-.13-1.5l-.1.07c-.03,1.22-.05,2.45-.07,3.61-.75,1.44-.9,1.08-.77-2.39.11-2.91.17-5.59-.12-8.33-.07-.68-.02-1.67-.03-2.51-.03-1.02-.06-2.05-.1-3.5-.51,1.88-.95,3.49-1.47,5.41,0,.15,0,.89-.05,1.56-.18,2.52-.04,5.48-.46,7.66v-.11c.04.72.09,1.45.08,2.15-.06,2.75-.07,5.59-.24,8.21-.1,1.55-.58,2.25-.54,4.39-.35.12-.53-.46-.55-1.95-.01-1.08-.02-2.18,0-3.25.06-2.36.12-4.72.17-6.98-.89-1.94-.64-5.63-.8-8.75-.12,6.11-.25,12.22-.38,18.76-.19-.64-.29-.99-.39-1.34l-.1.34c.18,1.35.37,2.71.58,4.23.18-.77.31-1.29.47-1.95.13,1.98.24,3.75.38,5.84.44-1.07.8-1.95,1.17-2.86.08,2.53.15,5.06.23,7.76-.62,2.28-.64,2.7-.23,7.42.22-.47.44-.94.68-1.46.41,2.32.38,5.86.95,7.62.06.19.03,1.14.03,1.74,0,.6-.06,1.41,0,1.77.35,2.13-.01,2.94-.27,3.85.09,1.04.18,2.05.25,2.84-.28.56-.49.96-.7,1.38.25,3.32.84,1.09,1.14,2.46.23-.8.42-1.47.63-2.22.18,1.75-.03,2.12-.23,2.66-.23.59-.49.93-.56,2.55-.1,2.54-.26,5.03-.4,7.65-.32-.67-.62-1.29-.82.59.11,1.15.66-.56.5,1.94-.13.2-.25.39-.47.71.21.69.32,1.14.45,1.47.13.33.27.61.41.8.36.45,1.21-.95,1.17-2.09-.1-3.41.42-2.38.7-3.1.13,1.34.2,2.53.34,3.48.17,1.1.41,1.65.7.94.21-.49.38-1.45.21-2.24-.35-1.68-.17-3.93-.35-5.75-.03-.3.06-.88.1-1.32.14,1.14.14,2.21.2,3.2.06,1.02.15,2.05.44,2.13.55.15.68,1.99.68,4.23,0,1.05-.02,2.09-.03,3.36.65.73,1.36.18,1.85,2.86.05.28.22.04.34.04-.11,2.96-.22,3.27-.73,2.4-.11-.19-.3-.14-.37.21-.26,1.42-.43.52-.56-.51-.1-.83-.14-1.86-.23-3.17-.5,2.09-.99,1.75-1.52.73.05,1.65.08,2.99.12,4.31-.52.57-.54-1.42-.68-2.5-.2-1.67-.34-3.56-.49-5.21h-.92c-.1,2.98-.67,5.55-.44,9.18.48.14.9.26,1.36.39.17-.34.01-2.88.56-2.02-.22,2.28-.44,4.5-.73,7.52.51-1.36.89-2.37,1.35-3.6.11.69.34,1.44.35,2.29.04,2.08.27,2.63.64,2.61.07-.53.13-1.05.27-2.14.22,1.76.4,2.99.53,4.35.05.52.01,1.62-.07,1.95-.5,1.95-.35,4.57-.34,7.26-.51-2.34-.99-4.57-1.52-6.98-.12,1.47-.21,2.51-.33,3.94-.08-1.8-.14-3.24-.2-4.71-.72-.18-1.25,1.95-1.74,4.17.06.56.11,1.12.21,2.18-.35-.34-.58-.57-.78-.77-.29.88-.54,2.28-.82,2.39-.55.22-.73,2.22-1.17,4.03h1.02c.22-1.59.49-2.78.79-3.69.17-.52.47,1.23.37,1.36-.38.55-.18,3.12-.58,3.51-.11.11-.19.98-.38,2,.57.32.31,2.24.37,4.03.26-.89.46-1.55.75-2.53-.02,1.38-.04,2.21-.05,3.21.21-.13.35-.22.49-.31l.03.49c-.32,1.07-.64,2.14-.94,3.17.46,1.27.48,1.61.12,3.1-.17.7-.36,1.23-.55,1.79-.03.08-.08-.1-.13-.16-.01-.89-.03-1.78-.05-2.73-.75,1.01-.8,1.23-.92,4.23h1.31c.21,2.05-.49,3.27-.16,5.64.31-1.05.65-1.49.98.88-.36.66-.66,1.21-1.03,1.88.23.61.37.99.42,1.12v7.15c-.32-.41-.63-.8-.99-1.26-.05,1.35-.41,2.37-.32,4.2.35-.92.65-1.73,1.01-2.69.05,1.22.04,2.04.11,2.59.17,1.25-.23,3.56.32,4.02-.1.97-.12,1.94-.01,2.94-.13.06-.28.39-.37.14-.18-.52-.33-1.34-.59-2.46.06,3.35-.02,5.86-.58,7.57.69.72.99-2.32,1.6-2.96-.12,2.26-.21,4.11-.32,6.24.02.09.12.45.19.75-.04.94-.08,1.83-.12,2.73-.03.74-.02,1.82-.12,2.14-.16.55-.37.31-.51-.61-.05-.33-.15-.51-.25-.85-.04,1.19-.06,2.11-.09,2.96-.8.34-.69,4-1.16,6.37.59-.29,1.03-.51,1.47-.73.14-.4.15-2.01.54-.7-.24.27-.4.44-.56.62.11,1.19.19,2.45.34,3.55.21,1.64.07,2.7-.2,3.58-.11.34-.25.46-.35.64-.02,1.96.29,3.54.06,5.7-.26-.75-.49-1.42-.75-2.16-.08.64-.15,1.12-.19,1.66-.03.54-.03,1.15-.04,1.74l-.02-.09c.67.09,1.24,1.4,1.77,3.61-.1.71-.2,1.44-.28,2.01.61,1.45.97-.14,1.21-2.61.31.28.57.5.92.81-.07-1.43-.12-2.48-.17-3.54.29-.28.56-.28.73,1.12.29,2.44.76,2.06,1.21,1.98.54-.09.72-2.15.9-4.42.15.57.26.98.39,1.45-.09,1.16-.17,2.23-.26,3.51.54.29,1.04.57,1.53.83.08,3.31.15,6.42.22,9.52-.4-.26-.74-.48-1.13-.74-.06.41-.15,1.1-.24,1.79l-.19-.28c-.07-1.51-.14-3.02-.2-4.35.25-.58.4-.93.56-1.32-.09-1.27-.16-2.38-.26-3.83-.18.21-.46.15-.51.67-.24,2.2-.93,3.28-.7,6.82-.36-2.91-.71-.06-1.05-.28-.17-1.66-.33-3.31-.48-4.74-.45.79-.79,1.41-1.18,2.1-.02,1.6-.27,4.06-.59,3.96-.43-.14-.46,1.28-.66,2.04-.31,1.17-.61,2.37-.94,3.42-.22.7-.44,1.22-.3,3.09.42-.2.85-.41,1.27-.62.07,1.15.12,2.18.19,3.4.33.35.67.7.93.98.19,1.79.35,3.32.53,5.02-.5.32-.94,1.01-1.04,3.75-.17-.28-.39-.89-.43-.68-.34,1.73-.96,2.31-.96,5.74.27-.53.53-1.43.78-1.41.39.03.6,1.32.54,3.3.61,2.1,1.12.39,1.62-1.05.3,1.96.27,3.6-.1,3.8-.53.29-1.11,1.52-1.61-1.5.06,1.81.11,2.96.15,4.18.23.32.45.62.68.95-.06.99-.11,1.89-.15,2.71.18,1.14.73-.04.63,2.59-.25-.34-.48-.65-.79-1.07.04,2,.08,3.61.11,5.06-.21,1.06-.42,2.09-.72,3.54.4.22.65.36,1.03.57-.28,1.7-.49,2.91-.73,4.39.28.36.51.66.74.96.47,1.83-.09,4.17.19,6.24-.31.44-.55.78-.85,1.2.35,1.39.65,2.68.93,3.63.29.97.53,1.97.66,3.72.18,2.58.16,2.92-.47,2.96-.06,0-.11-.05-.2-.1.1.85.13,1.48.18,2.57-.27-.4-.45-.65-.63-.92-.04.78-.08,1.47-.13,2.37-.33-.24-.6-1.46-1.01.62.46.81.29,3.4.36,5.15.04,2.24-.75,4.65-.59,6.72-.31.88-.79,2.26-.9,2.1-.2-.28-.19-1.49-.34-2.33-.76,1.4-.9,1.63-1.91,6.36.71-1.16,1.49-3.05,1.9-1.68-.29,1.04-.57,2.01-.94,3.32.44-.59.74-.99,1.09-1.47.01,1.67.02,3.26-.09,5.04-.35.02-.67.05-.99.07.11.92.48,1.01.45,1.95-.04,1.05-.43,2.9-.7,4.31.18.26.79-1.81.65-.18-.79,1.53-1.54,3.18-2.11,5.78l.35-3.4c-.71,1.29.07-1.81-.64-.57.24-.87.46-1.62.66-2.32.16-.71.32-1.38.48-2.06-.15-.11-.31-.24-.51-.4-.28,1.42-.48,2.55-.73,3.45-.51,1.26-.66.07-1.25,2.16.06,1.08,1,.19.06,3.85-.11.09-.32.27-.58.49.16,1.29.24,2.15.33,3.01.22-.63.44-1.27.72-2.05q-.21,1.17-.71,1.97c-.48.85-.97,1.69-1.67,2.91.33.12.56.11.73.28.17.17.26.52.39.79-.66,2.11-1.47,3.4-2.12,4.49-.68,1.09-1.31,1.95-1.91,3.1-.14-1.25-.02-2.82-.72-2.86-.45,2.92-.38,2.96-1.13,4.8-.05-.17-.1-.34-.19-.65-.49,1.53-1.5,3.07-1.62,4.28,0,0-.18.32-.37.64-.18.31-.37.61-.38.59-.13-.58-.19-1.3-.25-1.85-1.57,1.57-3.53,4.56-5.47,7.72.02.63.06,1.27.05,1.88l-.08.09c.87-.9,1.61-2.23,2.39-3.66.75-1.45,1.59-2.98,2.34-4.47.14.54.28,1.03.41,1.53-.41.84-.77,1.5-1.02,2.1-.77,1.8-1.55,3.62-2.46,5.4-.96,1.76-1.97,3.52-3.06,5.28-.28.44-.69,1.24-.73,1.4-.18,1.06-1.3,2.52-2.11,3.86,0,.2,0,.41-.01.51-.5.73-.98,1.43-1.45,2.12-.48.68-.99,1.31-1.46,1.95-.02.4-.04.64-.06.89-1.01,1.17-1.93,2.23-2.84,3.29l-.16.48c.89-.73,1.78-1.47,2.84-2.34-.19.55-.4,1.16-.68,1.95-.79.64-1.27,1.08-2,1.61-.42.9-.81,1.73-1.25,2.66-.47.52-.99,1.1-1.09,1.21-1.06.35-1.94.64-3.03,1-.38.94-.65,1.6-.93,2.28-.29,0-.68.39-1.29,1.13-.11.13-.53.23-.85.36-.59,1.01-.98,1.74-1.5,2.56-.22.34-.98,1.14-1.07,1.19-.97.44-2.53,2.58-3.5,3.02-.07.03-1.19,1.31-1.3,1.55-.36.77-1.02,1.27-1.83,1.86-.49.37-.99.75-1.37,1.04-1.98,2.89-4.37,4.07-6.68,5.66-.19.54-.34.96-.44,1.25-.73.71-1.49,1.37-2.25,2-.75.64-1.5,1.28-2.24,1.91l-2.22,1.89c-.74.63-1.53,1.2-2.31,1.81-.2-.06-.45-.13-.57-.16-.96.66-1.86,1.28-2.74,1.89-.87.61-1.73,1.2-2.65,1.75-.11.15-.3.38-.48.62-1.34.49-2.67,1.85-4,2.45q-.35-.95-.98-.62c-.14.37-.11.69-.46,1.14-.39.52-1.74,1.35-2.53,1.54-1.83.42-3.91,1.61-6.41,2.96.17-.8-1.49-.13-4.01,1.1,2.81-1.98,5.19-3.5,7.41-5.28h-.21c-.68.41-1.35.8-2.01,1.19-.68.36-1.34.71-1.98,1.04-1.16.33-2.26.64-3.39.95-.6.62-1.11,1.14-1.62,1.66.36-.13.89-.32,2.1-.76-1.89,1-3.09,1.52-4.72,2.26.88.33,1.71.65,2.49.95-.92.51-1.77.98-2.61,1.45-.55.3-1.77.77-2.83,1.12-1.05.37-1.99.52-1.91.39.44-.82-1.18.04-2.38.51l.09-.06c.01.26.03.51.04.74-2.15.93-4.13,1.84-6.38,2.64-.44-.07-.72-.17-1.22-.17-.27,0-1.13.18-1.32.27-.42.21-.94.55-.81.6.76.26-.88.53-1.91.87.61-.49,1.21-.98,1.8-1.46-2.44.07-5.68.43-9.51,1.71-1.08.05-1.89,0-2.78,0-.47.53-.37,1-1.41,1.43-1.45.6-2.68,1.14-3.37,1.77-.41-.1-.6-.14-.79-.19-1.33.49-2.55,1.1-4.55.96ZM501.4,318.77c.3-1.16.45-.78.63,1.63-.26.38-.65-.79-.78,1.25l-.29-.73c-.34-.99-.56-.71-.57,1.56-.43-1.56-.2-2.83,0-4.18-.24-.9-.45-1.67-.68-2.53.51-1.7.93,1.92,1.38.05.26,1.55.19,2.86-.1,3.41-.33.62.03,1.31-.06,1.84.15-.77.29-1.63.46-2.28ZM500.38,311.73c-.14.21-.27.43-.49.77-.02-1.68,0-3.11-.06-4.48-.05-1.43-.17-2.8-.23-3.7.32-1.46.54-2.44.83-3.74.04.33.2,1.04.18,1.42-.15,2.03-.15,3.71.28,4.91,0,.01-.07.65-.11.99.08.1.21.25.37.44-.03,1.08-.07,2.1-.1,3.12-.24.13-.47.26-.7.39l.03-.13ZM351.76,523.55c-1.98.14-3.75.17-5.7.27.35-.48,1.22-.87,3.08-1.17.63-.1,1.31-.21,1.96-.26.65-.08,1.26-.09,1.77.05-.37.36-.75.74-1.11,1.1ZM497.99,144.58c.02-1.53.03-3.22.06-5.78.26,1.79.32,3.22.7,3.53.38.31.39,2.47.49,5.13-.49-1.13-.85-1.96-1.25-2.88ZM500.85,179.97c.32-1.39.62-2.76.92-4.06.33,1.07.09,1.78.07,2.61-.03.82.1,1.76.2,3.15-.34.16-.65.3-.97.45-.09-.88-.15-1.51-.21-2.15ZM501.66,307.89c.21-3.49.29-3.66,1.36-2.47-.17.37-.26.57-.35.77-.08.18-.17.36-.29.64.09.8.17,1.44.33,2.87-.46-.79-.76-1.3-1.05-1.81ZM504.99,327.2c-.21.17-.42.33-.73.58.22-2.32.41-4.29.62-6.51.55,2.41,0,4.06.11,5.93ZM499.21,269.13c.3-1.61.55-2.95.8-4.29l.12.28c-.05,1.85-.09,3.7-.15,6.14-.24-.67-.46-1.29-.76-2.13ZM500.61,274.63c.28,2.29.46,4.18-.03,6.04-.24-1.19.01-4.24-.65-3.82v-.8c.24-.48.46-.96.68-1.42ZM504.69,197.28c-.09.34-.28.89-.28.84-.16-1-.32-2.03-.42-3.18-.04-.4.07-1.35.17-1.66.05-.18.25.29.32.71.12.75.18,1.69.25,2.41-.01.43,0,.78-.03.88ZM503.09,314.23c-.37-1.25-.82-.75-1.11-2.87.36-.22.71-.44,1.11-.68v3.56ZM494.51,104.02c.26,2.77.07,5.47-.07,8.2-.36-2.83-.04-5.48.07-8.2ZM499.62,206.39q-.53-.84-.43-3.3c.14,1.03.27,2.06.43,3.3ZM130.4,522.64c-1.83-.02-3.09-.04-4.34-.05l.04-.18c1.46-.22,2.77-.24,4.3.24ZM378.1,518.14c-.4-.16-.68-.27-1.24-.5,1.58-.29,2.39-.45,3.52-.66-.86.44-1.39.7-2.28,1.16ZM498.78,200.24c-.07-.18-.13-.25-.13-.37-.06-1.52-.07-2.89.5-2.37-.16,1.23-.27,1.99-.37,2.74ZM496.88,282.55c.15-.92.26-1.78.57-1.32-.09,1.4-.19,2.38-.57,1.32ZM503.33,310.34s.13-.44.18-.37c.25.38.27,1.24,0,2.61l-.18-2.24ZM501.17,120.56l-.18.22-.16-3.15.19-.23.15,3.16ZM382.77,517.23c-.57.26-.83.42-1.18.54-.48.16-1.02.3-2.08.6.98-.72,1.83-.93,3.26-1.13ZM501.77,324.98s-.02-.21-.03-.43c0-.22-.02-.43-.02-.44.12-.22.24-.38.37-.55l.07,1.07c-.13.13-.26.29-.39.35ZM502.47,282.44q.22-1.27.55.13c-.22-.05-.36-.09-.55-.13ZM497.93,304.08c-.03.15-.06.46-.08.43-.07-.08-.13-.27-.19-.43.03-.16.06-.32.1-.54.06.18.11.36.17.54ZM498.05,280.89l-.04.35-.26-.74.05-.42.25.8ZM498.53,317.95s-.04.35-.07.54l-.3-.92.07-.52.3.89ZM498.56,209.07s-.13-.65-.12-.7c.06-.34.13-.64.21-.84.01-.04.08.4.16.8-.1.33-.17.66-.25.75ZM500.23,139.97h-.1s0-2.67,0-2.67l.1.02v2.64Z" fill="#161616" stroke-width="0"></path><path d="M476.56,437.71c.11.05.2.31.34.12,1.69-2.52,1.41-.94,1.84-.56-2.79,4.11-5.2,7.03-7.98,10.26.25-.88.33-1.39,1.25-2.75.68-.94,1.13-2.15,1.8-3.47.74-.16,1.75-1.68,2.82-3.68l-.08.09Z" fill="#161616" stroke-width="0"></path><path d="M496.94,183.51c.14,3.01-.13,3.84-.56,4.19-.19.15-.35.86-.54,1.14-.12.18-.26.03-.46-.56.21-.88.45-1.66.63-2.69.18-1.04.29-2.33.5-4.07.06,0,.25-.07.43.02.26.13.52.48.79.56.29.09.43.93.37,2.06-.03.49-.32.93-.48.87-.18-.07-.35-.74-.68-1.52Z" fill="#161616" stroke-width="0"></path><path d="M498.64,185.75c.32.99.52,1.6.77,2.39-.68,2.22-1.54,1.56-2.05,4.72-.18-.2-.39-.42-.63-.68.02-.37,0-.78.04-.97.15-.73.35-1.28.47-2.12.09-.66.09-1.64.14-2.55.3.93.57,1.8.85,2.69.26-.52.52-.98.4-3.48Z" fill="#161616" stroke-width="0"></path><path d="M466.79,454.37c-1.08,1.23-2.11,2.56-3.13,3.6-.22.08-.36.19-.37.14-.14-.48-.11-.87.24-1.4.34-.54.97-1.25,2.07-2.36,1.7-1.71,1.71-1.72,1.19.01Z" fill="#161616" stroke-width="0"></path><path d="M493.15,118.56q.48,2.7,1.04,2.91c0,.57.02,1.16,0,1.73-.04,1.19-.09,2.74-.41,2.47-.27-.23-.59-.81-.63-2.58-.03-1.29,0-2.59,0-4.52Z" fill="#161616" stroke-width="0"></path><path d="M493.79,274.49c.34-2.22.76-3.52,1.34-3,.12.11.28.72.3,1.24.03.52-.05,1.45-.14,1.78-.13.46-.34.89-.47.69-.34-.52-.74,1.45-1.03-.7Z" fill="#161616" stroke-width="0"></path><path d="M468.23,452.55c1.27-1.7,2.23-3.36,3.39-5.13-.32,1.46,1.34-1.04,1.61-.84-2.07,3.47-3.11,4.87-5.01,5.97Z" fill="#161616" stroke-width="0"></path><path d="M494.57,313.69c-.13-.59-.24-1.06-.39-1.73.3-.92.55-1.72.87-2.68-.15-.36-.26-.64-.38-.92v-.47c.19-.03.4-.27.58-.02.13.2.31,1.01.32,1.6.01.81-.07,1.96-.2,2.43-.21.78-.49,1.14-.79,1.79Z" fill="#161616" stroke-width="0"></path><path d="M501.85,89.88c.18,2.72.45,5.4.52,8.19.06,2.24-.13,4.62-.23,7.64-.16-5.74-.3-10.74-.44-15.74l.16-.08Z" fill="#161616" stroke-width="0"></path><path d="M494.25,291.01c-.07-.27-.2-.78-.33-1.32.19-1.49.36-2.85.53-4.21q.68,2.17.86,4.25c-.32.39-.65.79-1.05,1.28Z" fill="#161616" stroke-width="0"></path><path d="M440.27,484.68c-.28-.06-.64-.14-1.01-.22,2.87-2.63,3.16-2.81,3.28-2.14.3-.3.61-.61,1.06-1.06,0,.2.01.36.02.53.46-.29.91-.58,1.34-.9l-.11.26c-1.38,1.09-2.8,2.14-4.59,3.52Z" fill="#161616" stroke-width="0"></path><path d="M434.8,487.98c-2.55,1.32-2.81,1.32-2.55-.09.65-.23,1.45-.65,1.62-.54.45.29,1.45-.45,2.87-1.68.37-.31.85-.62,1.25-.95l.15.07c-.63.62-1.38,1.17-1.98,1.74-.49.45-.83.88-1.36,1.45Z" fill="#161616" stroke-width="0"></path><path d="M443.23,479.01c1.74-1.19,3.17-2.17,4.61-3.16,0,.48-.49,1.21-1.84,2.37-1.48,1.27-2.42,1.59-2.76.78Z" fill="#161616" stroke-width="0"></path><path d="M458.65,464.91c.43-.54.82-.98,1.19-1.37.34-.4.66-.74.96-1.05.6-.61,1.15-1.07,1.74-1.62-.36.57-.66,1.04-1.11,1.77.58-.53,1.06-.98,1.58-1.46-1.35,2.2-1.46,2.35-2.44,2.93-.67.36-1.2.5-1.92.79Z" fill="#161616" stroke-width="0"></path><path d="M493.33,379.28c.47-1.45.96-2.9,1.32-4.35.13,1.47.14,2.3.08,2.89-.05.59-.17.95-.38,1.47-.61,1.52-.86,1.46-1.02-.02Z" fill="#161616" stroke-width="0"></path><path d="M495.71,359.16c.36-1.22.37-4.59,1.1-4.22.39.2.33,1.86.76,1.97-.74.9-1.3,1.58-1.86,2.25Z" fill="#161616" stroke-width="0"></path><path d="M457.97,464.92c-1.13,1.48-2.23,2.97-3.61,4.72-.21-.57-1.79.49-1.56-.53,1.8-.93,2.7-1.55,5.17-4.19Z" fill="#161616" stroke-width="0"></path><path d="M494.82,327.09c.29.84.57,1.65.94,2.69-.29.87-.53,1.99-.8,2.25-.2.19-.44-.72-.71-1.23.21-1.37.39-2.53.57-3.71Z" fill="#161616" stroke-width="0"></path><path d="M494.17,246.27c.2-1.78.37-3.31.55-4.83.13-1.09.14-1.08.55-.07-.32,1.47-.47,3.11-.08,4.88-.4,1.77-.68-.08-1.01.02Z" fill="#161616" stroke-width="0"></path><path d="M494.62,170.6c-.62,3.01-.69,3.04-1.53.57.18-.39.33-.64.46-1.02.14-.4.27-.92.43-1.45.17.49.4,1.19.64,1.9Z" fill="#161616" stroke-width="0"></path><path d="M495.97,160.45c.15.77.32,1.43.4,2.28.02.25-.18,1.24-.31,1.58-.17.44-.37.84-.56.76-.12-.05-.25-.89-.33-1.5-.02-.11.14-.89.23-1.24.16-.6.33-1.11.57-1.89Z" fill="#161616" stroke-width="0"></path><path d="M499.79,92.33c.18,2.01.42,3.8.2,6.37-.13,1.52-.02,3.5-.02,5.32,0,0-.02.05-.04.05-.02,0-.06-.07-.06-.13l-.28-11.5.2-.1Z" fill="#161616" stroke-width="0"></path><path d="M493.66,193.04c.33-1.06.58-1.89.86-2.79.12.4.28.69.35,1.23.07.5.11,1.48.05,1.88-.08.58-.28,1.22-.4,1.12-.27-.2-.52-.85-.86-1.45Z" fill="#161616" stroke-width="0"></path><path d="M488.73,415.55c0,1.23-.13,2.36-.21,3.56-1.16,1.97-.26-.75-.64-.52-.32.19-.55.09-.96.13.86-1.46,1.42-2.37,1.81-3.17Z" fill="#161616" stroke-width="0"></path><path d="M503.81,117.71c-.18-3.61.02-5.74.54-7.8.14,3.2,0,5.43-.54,7.8Z" fill="#161616" stroke-width="0"></path><path d="M493.99,259.21c.23-1.39.43-2.54.63-3.77.33,3.01.32,4.31-.03,6.09-.17-.66-.35-1.31-.61-2.31Z" fill="#161616" stroke-width="0"></path><path d="M494.19,365.41c.41-.88.71-1.54,1.06-2.3-.04-.55-.07-1.11-.12-1.73.07.14.19.21.19.37,0,1.46.02,2.93.03,4.56-.45.77-.75-.02-1.17-.9Z" fill="#161616" stroke-width="0"></path><path d="M488.42,407.04c-.11,1.34-.29,2.15-.9,3.27-.73,1.3-.86.78-.97.12.75-2.36,1.24-1.83,1.87-3.39Z" fill="#161616" stroke-width="0"></path><path d="M496.36,140.24c.68,2.82.74,3.47.56,5.24-.05.45-.17.99-.26.99-.08,0-.23-.59-.24-.99-.04-1.46-.04-2.96-.06-5.24Z" fill="#161616" stroke-width="0"></path><path d="M482.64,424.13c-.16-.33-.32-.65-.47-.95.66-1.44,1.19-2.84,1.86-4.42.09,1.02-.73,3.38-1.04,4.86l-.35.52Z" fill="#161616" stroke-width="0"></path><path d="M449.41,474.96c1.36-1.03,2.71-2.05,4.23-3.2-.37.57-.66,1-1.03,1.56-1.13.8-2.7,2.29-2.55,1.34,0-.05-.53.43-.84.63.06-.11.13-.22.19-.34Z" fill="#161616" stroke-width="0"></path><path d="M385.06,514.65c-.72-.08-1.34-.15-2.07-.23,2.15-.86,2.61-.27,4.5-1.09.29.51-1.5.91-2.44,1.32Z" fill="#161616" stroke-width="0"></path><path d="M496.11,100.55c-.1,2-.21,4.01-.34,6.62-.09-4.02-.1-7.4.23-11.42.04,2.15.07,3.54.1,4.92,0-.01.02-.12.02-.12Z" fill="#161616" stroke-width="0"></path><path d="M489.83,403.85c.31-.72.6-1.39.91-2.11.16-.36.32-.74.49-1.14.15-.41.31-.84.49-1.31-.24,1.71-.3,2.59-.77,3.56-.43.87-.92,1.72-1.13,1Z" fill="#161616" stroke-width="0"></path><path d="M398.21,509.15c-.97.52-1.76.82-2.93,1.38-.25-.25-.48-.46-.71-.68l.52-.23c.96-.15,1.96-.23,3.12-.46Z" fill="#161616" stroke-width="0"></path><path d="M493.87,136.91c.18,2.84.43.41.65.18.23,1.81-.09,2.21-.31,2.95-.21-.61-.41-1.19-.68-1.95.13-.42.24-.76.34-1.1v-.07Z" fill="#161616" stroke-width="0"></path><path d="M493.63,209.57c.69-2.04.78-1.81.96,1.5-.29-.45-.57-.89-.96-1.5Z" fill="#161616" stroke-width="0"></path><path d="M422.13,496.56c-2.91,1.51-2.93.94-2.9.29,1.01-.21,1.24.17,3.01-.74.07-.04-.06.24-.12.45Z" fill="#161616" stroke-width="0"></path><path d="M496.52,371.16c-.52.89-.73.74-.68-.59.02-.56.26-1.27.44-2.23.1,1.23.17,2.01.24,2.82Z" fill="#161616" stroke-width="0"></path><path d="M505.47,110.41c-.06-1.5-.11-3-.18-4.75.55,1.19.55,1.23.18,4.75Z" fill="#161616" stroke-width="0"></path><path d="M495.19,347.13c.08,2.63.05,2.75-.69,2.99.12-1.72.47-1.8.69-2.99Z" fill="#161616" stroke-width="0"></path><path d="M503.39,100.59c.06-1.72-.12-3.58.16-5.35.16,2.6.15,3.23-.16,5.35Z" fill="#161616" stroke-width="0"></path><path d="M429.34,492.1c-.24.49-.42.86-.61,1.24-1.61,1.16-1.61.81-1.66.45.68-.5,1.36-1.01,2.27-1.68Z" fill="#161616" stroke-width="0"></path><polygon points="505.19 114.14 505.38 120.11 505.2 120.23 505.03 114.26 505.19 114.14" fill="#161616" stroke-width="0"></polygon><path d="M497.27,338.76c-.21,1.96-.35,3.42-.89,3.14.31-1.17.36-2.98.89-3.14Z" fill="#161616" stroke-width="0"></path><path d="M494.18,154.71c-.31-.31-.51-.52-.8-.82.24-.77.42-1.32.66-2.09.05,1.06.09,1.81.14,2.91Z" fill="#161616" stroke-width="0"></path><path d="M498.1,355.62q-.52-.21-.47-3.47c.16,1.16.28,2.09.47,3.47Z" fill="#161616" stroke-width="0"></path><path d="M415.24,501.8c.75-.49,1.5-.98,2.43-1.58-.69.69-1.19,1.2-2.05,2.06-.14-.25-.23-.4-.31-.54l-.07.06Z" fill="#161616" stroke-width="0"></path><polygon points="503.16 103.2 503.16 107.85 503.07 107.88 503.07 103.34 503.16 103.2" fill="#161616" stroke-width="0"></polygon><path d="M491.07,395.45l.11,2.13c-.11-.56-.69.14-.11-2.13Z" fill="#161616" stroke-width="0"></path><path d="M245.38,522.37c-1.65.13-2.38.03-2.82-.32,1.46-.05,2.34,0,2.82.32Z" fill="#161616" stroke-width="0"></path><path d="M486.13,417.9c.45-1.17.77-1.89,1.06-2.8.06.2.14.23.11.45-.14.97-.53,1.59-1.17,2.36Z" fill="#161616" stroke-width="0"></path><path d="M394.95,512.07c-.7.28-1.4.55-2.96,1.17,1.04-.68,1.57-1.03,2.63-1.72.13.32.19.47.24.61l.09-.06Z" fill="#161616" stroke-width="0"></path><path d="M504.43,107.57v-3.9c.32,1.69.23,2.79,0,3.9Z" fill="#161616" stroke-width="0"></path><path d="M496.24,147.95c-.21.17-.36.28-.63.49.1-.86.12-1.3.18-1.56.25-1.15.3.03.45,1.08Z" fill="#161616" stroke-width="0"></path><path d="M494.38,227.51c-.24.19-.39.31-.54.43,0-.47-.03-.77,0-.87.15-.72.3-1.17.55.44Z" fill="#161616" stroke-width="0"></path><path d="M493.64,104.29v4.22c-.37-1.38-.17-2.42,0-4.22Z" fill="#161616" stroke-width="0"></path><path d="M498.26,361.88c-.03.59-.05,1.19-.1,1.76,0,.09-.12.03-.19.04l.1-1.95.2.15Z" fill="#161616" stroke-width="0"></path><polygon points="493.72 387.94 494.42 385.98 494.47 386.35 493.8 388.53 493.72 387.94" fill="#161616" stroke-width="0"></polygon><path d="M495.61,282.74q-.15,2.15-.64,1.28c.29-.53.48-.86.66-1.19l-.02-.09Z" fill="#161616" stroke-width="0"></path><path d="M493.88,136.98v-3.55c.42,1.51.04,2.33-.01,3.46,0,.01.01.09.01.09Z" fill="#161616" stroke-width="0"></path><polygon points="496.03 340.03 496.37 337.91 496.46 338.19 496.17 340.49 496.03 340.03" fill="#161616" stroke-width="0"></polygon><path d="M415.31,501.74c-.61.31-1.23.61-2.25,1.12,1.49-1.12,1.7-.92,2.18-1.06l.07-.06Z" fill="#161616" stroke-width="0"></path><polygon points="398.97 509.13 400.21 508.25 400.64 508.17 399.28 509.07 398.97 509.13" fill="#161616" stroke-width="0"></polygon><polygon points="169.56 522.52 167.71 522.31 167.9 522.23 169.93 522.38 169.56 522.52" fill="#161616" stroke-width="0"></polygon><polygon points="495.65 205.27 495.21 204.22 495.29 203.5 495.72 204.59 495.65 205.27" fill="#161616" stroke-width="0"></polygon><path d="M497.42,334.14c.04.25.1.48.11.75,0,.15-.07.37-.11.56-.04-.27-.08-.54-.11-.83,0-.06.06-.26.11-.48Z" fill="#161616" stroke-width="0"></path><path d="M500.38,311.73c-.28-.32-.23-1.09-.03-1.96v2.09s.03-.13.03-.13Z" fill="#161616" stroke-width="0"></path></svg>