<?xml version="1.0"?><svg id="Layer_1" xmlns="http://www.w3.org/2000/svg" viewBox="0 0 600 600"><path d="M417.07,215.04c.12.14.55.47.85.7,1.79,1.63,2.67,2.47,3.14,3,.43.57.45.84.48,1.36-.32-.35-.61-.72-.93-1.05l-.98-.98c-.65-.65-1.29-1.31-1.96-1.95-1.42-1.17-2.8-2.47-4.52-3.49-.61-.37-1.38-1.23-2.15-1.8-1.51-.3-.08.85,1.17,2.29,4.6,2.81,5.05,4.47,7.64,7.27.51-.05.96-.09,1.45-.14.7.67,1.42,1.36,2.18,2.08.71.77,1.44,1.58,2.21,2.41.91,1.69,3.64,5.66,2.53,5.07,1.09,1.93,2.01,3.45,2.73,5.03.35.74.7,1.47,1.05,2.2.31.75.61,1.5.93,2.27.9.65,1.44,1.19,1.4.67-.02-.26-.19-.78-.53-1.67-.18-.46-.39-1-.64-1.65-.27-.65-.63-1.38-1.03-2.24.33.23.54.13,1.6,2.2,1.67,3.38,3.3,6.98,3.53,9.27.05.46.55,1.92.75,2.74.31,1.53.54,2.94.89,4.97.08.29.43,1.55.78,2.81l-.77-1.84c.24,1.33.54,2.64.74,3.95.19,1.31.39,2.6.57,3.85.23.71.5,1.54.76,2.33.08-.43.13-1.03.25-1.3.32-.69.35-1.91.11-3.74-.2-1.84-.79-4.25-1.73-7.27-.47-1.32-.87-2.67-1.54-4.38.43.28.73.47,1.03.69,2.92,8.73,3.61,15.76,3.93,23.06-.16.51-.32,1.02-.44,1.4.1,1.13.19,2.18.27,3.15.04.97.07,1.86.07,2.65.02,1.78-.18,3.21-.33,4.8,1.26,2.31.71,7.83-.22,13.27.25-.25.39-.39.56-.56-.13,1.14-.24,2.05-.28,2.36-.42,1.18-.86,2.14-1.31,3.22.02,1.01.03,1.77.02,2.43-.04.65-.09,1.2-.2,1.8-.21,1.19-.53,2.58-1.44,5.28-.21.64-.45,1.43-.62,2.08-.77,2.9-1.48,4.47-2.29,6.25-.15.34-.33.89-.74,2.01.37-.64.57-1.04.73-1.27.2-.28.36-.42.53-.61-1.63,6.18-1.67,6.24-4.06,11.41-1.28,2.67-2.6,5.13-4.04,7.63-.1.17-.24.55-.34.8.38-.38.76-.76,1.22-1.21-.73,1.42-1.55,2.94-1.67,3.24-1.02,3.27-3.85,7.58-6,11.24-.37.08-.57.09-.83.19-.47.2-2.34,2.43-2.77,3.32.64-.61,1.27-1.29,1.99-2.01-.57,1.1-1.24,2.15-1.99,3.08-.73.95-1.5,1.82-2.23,2.59-2.1,2.29-3.92,4.18-5.38,6.24-.36.06-.67.11-1.16.4-.49.3-1.15.84-2.28,1.8-.72,1.05-1.53,2-2.41,3.14-.61.41-1.37.93-2.07,1.41-.71.45-1.36.85-1.7,1.13-2.66,2.1-5.47,3.18-8.35,4.07-.82.26-1.68.47-2.52.69-.84.14-1.66.36-2.4.39-.73.07-1.48.27-2.23.36-.75.14-1.49.15-2.14-.04-.12.04-2.87.03-4.38-.24-.44-.09-.94-.21-1.37-.32-1.41-.99-2.83-2.04-3.94-2.67-.09.12-.17.25-.27.39-.26-.18-.49-.33-.69-.47-.2-.14-.35-.3-.51-.44-1.48-1.31-2.64-3.09-3.52-5.02-.9-1.93-1.53-3.99-2.25-5.87-.05-.16-.14-.67-.19-1.01-.26-1.72-.54-3.41-.33-5.43.09-.56.08-1.67.11-2.93.05-1.26.09-2.67.23-3.8.42-.84.67-.24,1.12-3.51-.17-.09-.32-.17-.59-.31,1.03-5.32,2.45-10.19,4.13-15.12-.23.27-.45.51-.71.82,1.31-4.73,2.76-9.31,4.52-13.74,1.75-4.41,3.78-9.48,5.95-12.74.22-.33.77-1.56,1.26-2.57-.35.37-.59.62-.74.78.91-2.16,1.88-4.2,2.82-6.26,1.01-2.02,1.98-4.06,3.08-6.05.6-1.1,1.59-2.88,1.97-3.34,1.31-1.52,2.4-3.56,3.71-5.43,2.63-3.85,3.39-4.76,6.59-8.31.82-.9,1.69-1.85,3.06-3.35-.44.13-.68.2-.93.28.83-1.13,1.68-2.12,2.52-3.09.83-.97,1.68-1.88,2.56-2.78.87-.91,1.74-1.84,2.63-2.84.92-.98,1.85-2.04,2.81-3.24-1.55,1.55-2.74,2.66-3.85,3.84l.07-.23c2.38-2.75,4.83-5.45,7.2-7.9.85,0,3.68-3.07,5.58-4.68.27-.62.41-.92,1.16-1.68.38-.38.9-.87,1.68-1.58.39-.35.84-.75,1.36-1.22.54-.45,1.15-.96,1.85-1.55,0,.12,0,.24,0,.33,6.41-5.37,12.78-10.54,19.79-14.92,4.21-2.69,8.84-5.51,13.4-8.06,7.93-4.3,16.17-8.03,24.69-10.93l3.49-1.14c1.17-.35,2.35-.65,3.53-.97,1.18-.3,2.35-.66,3.54-.92l3.57-.8c-3.1.24,4.13-1.68.8-1.29,6.98-1.66,13.51-2.75,20-3.45.42.17.62.28,1.72.25.55-.01,1.32-.06,2.45-.14,1.13-.06,2.62-.25,4.62-.28.32-.11,1.16-.26.94-.35-1.34-.54,2.02-1.22-.87-1.72-.36-.06.09-.26.65-.35,4.11-.7.93-1.29,1.07-1.92-3.28-.19-2.32-.69-1.52-.97,1.53-.54,1.71-1.05,2.15-1.56.48-.55,2.55-1.08,2.65-1.65.1-.5-2.85-.9-.74-1.45.13-.03-.15-.1-.41-.13-1.57-.17-1.32-.4-1.24-.66.06-.18-1.08-.4-2.31-.5-.78-.06-1.6-.12-2.44-.16-.84-.02-1.71,0-2.59.01-1.77.05-3.62.09-5.48.27-1.85.2-3.72.45-5.55.73-1.82.29-3.58.73-5.25,1.13-.92.23-1.72.42-2.47.58-.74.19-1.43.35-2.12.48-1.38.27-2.76.46-4.58.66-2.07.3-4.55.71-6.99,1.27-8.31,2.1-16.52,4.93-24.45,8.33-1.71.67-3.63,1.68-5.01,2.41-2.41,1.28-4.87,2.63-7.4,3.9-1.26.64-2.48,1.35-3.71,2.03-1.21.7-2.45,1.35-3.58,2.12-.57.37-1.43.83-2.05,1.16-.86.45-1.71.92-2.55,1.4-.83.49-1.63,1.02-2.43,1.55-1.59,1.07-3.17,2.15-4.64,3.35-2.04,1.62-3.8,2.87-6.19,4.48-.82.55-1.88,1.32-2.96,2.18-1.05.89-2.16,1.82-3.14,2.65-1.72,1.43-3.14,2.91-5.01,4.3-1.47,1.07-2.81,2.28-4.14,3.51-.66.62-1.32,1.24-1.97,1.89-.62.66-1.25,1.32-1.89,1.99-1.15,1.22-2.56,2.71-3.66,3.81-1.21,1.18-2.35,2.3-3.43,3.48-1.06,1.19-2.13,2.39-3.26,3.66-1.85,2.21-4.19,4.44-6.21,6.78-.13.14-.27.32-.4.49-3.26,4.16-6.21,8.47-9.48,12.69-.59.78-1.52,2.36-2.22,3.52-.78,1.37-1.53,2.72-2.21,3.99-1.12,2.14-2.2,4.04-3.59,6.02-.88,1.32-1.73,2.76-2.56,4.29-.79,1.55-1.6,3.17-2.39,4.82-2.87,6.05-5.64,12.24-8.08,18.6-.2.53-.46,1.06-.7,1.57-1.22,2.72-2.18,5.64-3.12,8.72-.37,1.25-.77,2.58-1.16,3.88-.38,1.31-.75,2.6-1.12,3.74-1.39,4.54-2.31,9.05-2.64,13.67-.12,1.4-.17,2.76-.31,4.1-.05,1.38-.22,2.75-.25,4.3-.16,3.32.01,6.91.69,10.61.67,3.68,1.84,7.49,3.7,11.06.69,1.34,2.08,3.31,3.45,4.73.96,1.07,2.05,2.01,3.15,2.93,1.15.85,2.31,1.7,3.56,2.36,2.47,1.38,5.11,2.42,7.79,3.02,4.44,1.12,9.33,1,13.72.21,3.2-.55,6.58-1.79,8.94-2.63,5.62-2.04,10.05-4.94,14.14-8.31,1.48-1.2,3.02-2.57,4.46-3.83,4.02-3.59,7.53-7.47,10.45-11.63.74-1.02,1.83-2.53,2.55-3.45,3.32-4.17,5.91-8.59,8.16-13.32.75-1.51,1.65-3.46,2.43-4.94,2.35-4.55,4.24-9.14,5.83-13.94.46-1.5,1.11-3.16,1.62-4.74l1.18-3.56c.36-1.19.72-2.39,1.07-3.58.36-1.17.65-2.43.94-3.66.28-1.23.58-2.46.74-3.7.1-.68.33-1.78.5-2.42,1.66-6.37,2.21-12.78,2.13-19.07-.02-1.21,0-2.32.04-3.39.01-1.06.06-2.08.16-3.11.15-1.42.17-2.92.12-4.52-.02-.8-.06-1.63-.11-2.48-.07-.85-.18-1.73-.29-2.64-.55-4.65-1.37-9.43-2.62-14.68-.12-3.48-1.43-8.55-3.41-13.78-.51-1.25-1.03-2.51-1.54-3.77-.52-1.26-1.13-2.49-1.69-3.77-.58-1.4-1.67-3.55-1.89-4.28-1.41-4.24-4.18-9.21-8.14-14.15-.99-1.27-2.18-2.59-3.27-3.92-1.14-1.3-2.31-2.51-3.26-3.62-3.75-4.07-7.93-7.25-12.58-10.03-1.54-.82-3.33-1.89-4.66-2.58-1.23-.66-2.46-1.28-3.69-1.87-1.26-.52-2.52-.99-3.78-1.45-1.25-.5-2.55-.78-3.84-1.12-1.29-.33-2.58-.67-3.92-.85-.94-.15-2.06-.35-3.17-.57-1.11-.23-2.22-.32-3.14-.48-1.2-.17-2.38-.42-3.57-.49-1.18-.08-2.36-.15-3.55-.2-1.2-.08-2.36-.03-3.55.03-1.18.06-2.39.12-3.61.22-2.62.32-5.91.72-8.25,1-7.5.78-14.32,2.72-20.91,5.34-1.2.5-3.02,1.2-3.94,1.48-5.75,1.79-10.99,4.52-16.27,7.51-1.57.91-3.26,1.9-4.92,2.86-1.64,1-3.27,1.96-4.74,2.78-2.03,1.23-3.98,2.39-5.81,3.66-1.82,1.3-3.65,2.54-5.4,3.99-3.09,2.45-6.04,4.78-9.25,7.32-1.82,1.49-3.68,3.01-5.45,4.64-.89.81-1.78,1.62-2.67,2.42-.86.83-1.71,1.66-2.55,2.47-2.04,1.95-3.43,3.4-5.5,5.21-3.69,3.36-7.47,7.09-11.13,11.8-2.84,3.56-6.06,7.75-9.02,11.55-2.8,3.66-5.11,6.97-7.26,10.56-.86,1.45-1.92,3.09-2.86,4.62-2.88,4.41-5.23,8.85-7.47,13.41-.88,1.87-2.13,4.18-3.06,6-2.16,4.04-3.83,8.07-5.46,12.31-1.29,3.36-2.57,6.91-3.8,10.36-1.58,4.44-2.87,8.72-3.65,12.95-.47,2.68-1.06,5.37-1.77,8.35-1.22,5.03-1.81,10.73-1.36,16.79.21,3.05.74,6.67,1.46,9.64.85,3.6,2.37,7.18,4.74,10.34,2.35,3.16,5.59,5.83,9.2,7.49,2.28,1.04,4.77,1.76,7.17,2.21,2.39.4,4.73.66,6.85.75,3.06.19,6.18-.15,9.02-.91,2.84-.76,5.46-1.8,7.7-2.98,4.45-2.32,7.32-4.1,10.79-6.34.94-.61,1.97-1.38,3.02-2.17,1-.84,2.05-1.68,2.92-2.53,2.97-2.79,5.45-5.77,7.92-8.88,1.83-2.27,3.66-4.69,5.37-7.12.71-1.05,1.44-2.13,2.15-3.19.68-1.08,1.34-2.15,1.94-3.18,2.72-4.86,4.97-9.77,7.04-14.94.67-1.24,1.47-2.64,2.14-4.19,1.92-4.68,3.51-9.44,4.5-13.83.27-1.33.6-2.77.94-4.24.33-1.48.63-3.04.93-4.56.52-1.26.8-2.08,1.15-3.16.32-1.05.81-2.46.96-3.57,1.07-6.11,1.82-12.74,1.78-18.22.02-2.11-.03-3.95.04-5.73.02-1.78.02-3.51.08-5.39,0-1.19-.02-2.38-.03-3.65-.28-1.34-.61-2.6-.99-4-.04-.92-.07-1.77-.11-2.58-.07-.81-.13-1.58-.22-2.38-.09-.96-.18-1.9-.28-2.85l-.34-2.79c-.2-1.88-.64-3.81-1.25-5.99-1.38-4.39-2.36-8.21-3.31-11.73-.23-.79-.47-1.64-.61-2.11-1.89-4.2-3.82-7.85-6.1-11.44-.41-.67-.83-1.36-1.26-2.05-.46-.68-.92-1.37-1.39-2.05-.46-.68-.89-1.37-1.35-2.01-.46-.63-.92-1.25-1.35-1.83-1.4-2.04-2.82-3.43-4.58-5.25-3.83-3.6-8.16-6.67-12.77-9.56-6.56-4.08-14.06-6.54-21.72-7.53-1.85-.25-3.87-.36-5.83-.56-1.96-.1-3.87-.14-5.53-.27-1.51-.08-2.69.01-3.8.06-1.11.09-2.15.11-3.36.28-6.09.65-12.24,2.25-17.87,3.69-1.64.5-3.23.98-4.79,1.45-.79.23-1.55.5-2.3.8-.75.29-1.5.57-2.24.86-3,1.08-5.79,2.5-8.67,3.87-1.47.76-3.01,1.63-4.58,2.42-.79.39-1.57.78-2.35,1.16-.76.4-1.52.77-2.27,1.11-.88.4-1.77.83-2.66,1.28l-1.34.7-1.3.78c-1.73,1.05-3.42,2.17-5.01,3.27-2.47,1.89-4.95,3.55-7.35,5.26-1.19.86-2.39,1.7-3.59,2.54-1.21.82-2.42,1.65-3.6,2.53-3.87,3.44-7.75,6.93-12.39,10.85-2.04,1.81-4.51,4.1-6.37,6.13-2.61,2.81-4.92,5.07-7.25,6.97-.51.4-1.26,1.11-2.07,1.84-1.7,2.11-3.61,4.42-5.64,6.76-1.03,1.16-2.07,2.34-3.11,3.51-1.03,1.19-2.05,2.37-3.06,3.54-5.23,5.95-9.78,12.07-14.35,18.25-1.75,2.37-3.17,4.49-4.95,6.57-.7.85-2.19,2.84-2.56,3.59-1.35,2.54-3.3,5.31-5.19,8.16-5.07,7.96-10.21,15.72-14.98,23.77-2.41,3.91-4.59,8.07-6.84,12.14-1.2,2.12-2.34,4.27-3.47,6.42-1.14,2.14-2.29,4.29-3.43,6.43-1.21,2.33-2.45,4.61-3.39,7.23,1.44-2.55,2.84-5.03,4.25-7.51,1.44-2.49,2.88-5.02,4.34-7.65,1.49-2.73,3.63-6.3,4.57-7.51,1.14-1.41,2.07-3.18,3.2-4.94l5-8.43.1.13c-1.7,2.77-3.4,5.54-5.11,8.32.36.29-.59,2.34-2.28,5.43-.98,1.77-1.97,3.54-2.95,5.3-1.78,3.36-3.48,6.72-3.92,8.63,2.5-3.7,4.56-6.46,8.11-12.65-1.22,2.9-2.65,5.18-3.83,7.36-1.82,3.26-2.18,4.8-3.23,7.14-1.18,2.64.05.96.04,1.18-1.03,2.49-2.35,5.51-2.27,5.73.29.71-1.41,4.01-2.38,6.45-1.47,3.94-3.3,7.83-5.21,12.02-.34.77-.6,1.56-.9,2.35l.14-.06c.84-1.86,1.7-3.71,2.56-5.43,1.71-1.84,1.56-1.26-.97,3.93-2.04,4.39-3.99,8.4-5.47,12.72-.37,1.07-1.06,2.56-1.58,3.85-.63,1.59-1.27,3.17-2.16,5.4,1.68-2.68,3.12-4.98,4.83-7.71.1-.22.58-1.37,1.04-2.36,1.82-3.76,3.72-8.29,5.55-11.42l-.09.16c.45-1.1.94-2.22,1.44-3.26,2.01-4.09,3.97-8.37,6.08-12.16,1.23-2.26,2.18-3.08,3.72-6.25.4-.02.13.92-.95,3.14-.78,1.6-1.59,3.22-2.4,4.8-1.81,3.46-3.46,7-5.12,10.33-.61,3.24-3.24,8.74-5.21,13.51,1.05-2.29,2.11-4.58,3.17-6.89.53-1.15,1.06-2.3,1.59-3.46.56-1.14,1.11-2.29,1.68-3.45,1.12-2.31,2.25-4.63,3.4-6.99,1.19-2.33,2.4-4.69,3.63-7.08-.3,1.03-.47,1.59-.63,2.15l.34-.46c.84-2.07,1.64-4.17,2.61-6.49-.77,1.04-1.24,1.75-1.87,2.65,1.32-2.99,2.64-5.6,4.11-8.72-1.21,1.37-2.21,2.49-3.23,3.64,1.89-3.72,3.72-7.51,5.85-11.43,1.19-1.5,1.87-2.39,2.68-3.79.41-.7.84-1.53,1.4-2.62.56-1.07,1.26-2.41,2.17-4.15-.58.56-1.17,1.13-1.81,1.74,1.58-3.52,4.56-8.58,5.64-11.32.11-.3.97-1.62,1.48-2.47.52-.85,1.28-1.95,1.54-2.5,1.59-3.18,2.65-4.08,3.68-5.22.86-1.49,1.7-2.95,2.36-4.08.73-.62,1.3-1.05,1.86-1.51,2.9-4.67.33-1.96,1.37-4-.94.97-1.72,1.78-2.6,2.68,1.49-2.5,2.02-2.89,2.69-3.5.75-.68,1.28-.99,2.85-3.16,1.28-1.66,2.56-3.32,3.84-4.98,1.29-1.66,2.58-3.33,3.96-4.99-.42,1.08-.8,2.07,1.24-.27,1.07-1.57-1.1.34,1.55-2.85.3-.18.59-.35,1.08-.65.53-1.02.84-1.64,1.13-2.2.25-.51.43-.96.5-1.28.2-.8-1.96.46-3.06,2-3.35,4.55-2.74,2.89-3.68,3.66,1.25-1.85,2.4-3.46,3.24-4.8.98-1.57,1.4-2.4.41-1.67-.68.51-1.77,1.69-2.44,2.83-1.41,2.44-3.88,5.28-5.48,7.86-.27.42-.91,1.15-1.37,1.73,1-1.61,2.04-3.07,2.98-4.44.99-1.39,1.96-2.8,1.81-3.09-.28-.52,1.47-3.07,3.77-6.02,1.11-1.36,2.22-2.71,3.55-4.35.28-1.35-.89-1.12,1.62-4.88.26-.38-.13-.19-.22-.27,3.32-3.72,3.75-4.04,3.18-2.6-.12.31.08.37.51-.03,1.75-1.64.89-.37-.14,1.02-.83,1.13-1.92,2.45-3.27,4.19,2.64-2.36,2.66-1.59,1.96.04,1.75-2.12,3.17-3.84,4.57-5.53,1-.38-1.13,2.16-2.2,3.61-.85,1.14-1.74,2.31-2.61,3.48-.87,1.2-1.73,2.38-2.54,3.5.25.2.44.35.71.58,3.16-3.81,6.38-6.65,10.14-11.34-.21-.49-.38-.91-.58-1.39-.54.28-3.16,3.59-2.64,2.15,1.3-1.39,2.67-2.67,4.11-4.1,1.46-1.41,2.97-2.98,4.83-4.68-1.95,1.26-3.32,2.3-5.05,3.49.69-.93,1.37-2.01,2.3-3.07,2.35-2.55,2.85-3.36,2.55-3.6-.66.59-1.32,1.18-2.68,2.39,1.88-2.27,3.18-3.89,4.67-5.62.56-.67,1.9-1.96,2.35-2.27,2.69-1.93,5.69-5.13,9.05-8.14-1.27,1.52-2.53,2.97-3.74,4.49-1.2,1.52-2.41,3.06-3.66,4.65,1.83-1.62,3.14-2.77,4.93-4.35-2.08,2.14-3.76,3.87-5.46,5.62.3.72,3.2-1.38,6.17-3.59.62-.7,1.28-1.36,2.48-2.61-.18.64-.3,1.06-.41,1.43,1.26-.77,3.13-2.14,3.45-2.05.64.16,3.16-1.94,5.73-3.49-.29-.34-.48-.56-.67-.77-1.06.76-2.01,1.41-2.86,1.97-.83.57-1.56,1.06-2.21,1.44-.75.45,1.18-1.71,1.41-1.8.93-.32,4.02-3.21,4.76-3.33.21-.02,1.33-.92,2.75-1.83.05-.77,2.68-2.53,4.94-4.4-1.31.7-2.28,1.22-3.71,2,1.8-1.39,2.85-2.25,4.18-3.24-.3-.04-.51-.06-.71-.08l.63-.5c1.6-.79,3.21-1.58,4.76-2.34,1.39-1.62,1.88-1.92,4.1-3.01,1.04-.51,1.87-.83,2.73-1.19.12-.05-.09.16-.14.25-1.2.83-2.39,1.66-3.66,2.54,1.8-.29,2.09-.52,6.23-3.06-.23-.36-.46-.72-.71-1.1,2.74-1.92,4.74-2.46,7.97-4.58-1.64.57-2.45.63.77-1.56,1.12-.2,2.02-.41,3.18-.56.78-.65,1.27-1.05,1.44-1.19,1.83-.9,3.48-1.79,5.21-2.5.86-.38,1.72-.76,2.6-1.14.88-.4,1.79-.79,2.76-1.14-.5.54-.98,1.03-1.51,1.68,2.02-.79,3.68-.98,6.39-2.12-1.5.2-2.83.37-4.39.58,1.82-.74,3.05-1.2,3.87-1.59,1.87-.78,5.52-1.52,6.08-2.25,1.54-.28,3.06-.63,4.58-1.13.13.1.66.12.29.31-.76.38-2,.84-3.67,1.52,1.29-.33,2.5-.63,3.63-.92,1.13-.29,2.2-.39,3.19-.55.99-.14,1.89-.24,2.73-.31.83-.03,1.59.01,2.27.07.52-.41-.41-.55-1.62-.66-1.21-.1-2.68,0-3.24-.22.89-.13,1.75-.26,2.58-.39.83-.07,1.64-.13,2.45-.19.8-.06,1.6-.13,2.41-.19.81-.08,1.62-.03,2.46-.05.14-.03.71-.14,1.18-.24.74,0,1.47-.03,2.18-.02.72.05,1.43.09,2.14.14,1.17.09,2.88.08,3.36.28.84.27.45.4-.99.43-.53.03-.8.12-1.35.21,1.87.05,3.27.32,4.59.46.21.43,1.74.71,3.58,1.24.92.26,1.96.44,2.94.78.98.34,1.94.68,2.76,1.02-.27-.68-.47-1.19-.67-1.7-.56-.29-2.97-.95-.91-.81.34.34.56.57.79.79,1.82.3,3.66.93,5.31,1.36.62.14,1.16.36,1.65.57.49.21.93.41,1.33.62.79.42,1.45.77,1.96,1.25.41.35.49.56.69.78.65.37,1.28.7,1.9,1.01.61.33,1.18.71,1.77,1.07.59.37,1.19.74,1.8,1.15.57.46,1.16.95,1.77,1.51-1.07-.48-1.96-1-3.06-1.36.78.57,1.27,1.11,1.88,1.63.61.54,1.36,1.07,2,1.65l-.11-.07c.27-.21.86-.08,1.74.34.89.42,2.1,1.11,3.43,2.22.68.88,1.4,1.75,1.87,2.52.94.68,1.1.5.73-.27-.33-.8-1.32-2.06-2.57-3.58.53.11.96.2,1.55.32-1.57-1.68-2.91-2.73-4.18-3.86-.13-.52.03-.74,1.81.68,1.58,1.21,2.24,1.75,2.63,1.83.38.1.42-.2.54-.4.31-.49-1.94-3.14-4.84-5.67.85.47,1.48.8,2.14,1.28.69.7,1.36,1.37,2.05,2.06.69.68,1.3,1.49,2.01,2.29.74,0,1.43.02,2.11.02,3.84,4.28,6.84,8.78,9.37,13.51-.56-.21-1.03-.39-1.59-.6.28.65.73,1.72,1.19,2.8l-.39-.33c-.62-1.12-1.24-2.23-1.85-3.32-.67-1.04-1.31-2.06-1.92-3-.28-.98-.52-1.54-.75-2.17-.66-.86-1.27-1.67-1.91-2.5-.69-.79-1.41-1.61-2.22-2.53.09.39-.19.5.31,1.2.53.76.99,1.43,1.37,2.12.37.7.74,1.39,1.12,2.1.84,1.43,1.71,3.14,3.3,5.63-2.76-3.98-.66.26-1.13.1-.78-1.12-1.55-2.24-2.29-3.32-.79-1.04-1.59-2.01-2.3-2.93.37,1.3.65,2.32.97,3.44.66,1.1,1.44,2.53,2.01,3.68.51,1.19.81,2.09.64,2.09-.5.02.58,1.98.85,3.19.24.9.48,1.81.71,2.71.21.9.36,1.79.52,2.62.1.55.17,1.03.36,1.71.17.69.43,1.59.95,2.96.3-.43.61-.88.91-1.32.31.86.63,1.67.9,2.51.26.85.53,1.71.82,2.64.46.45.95.91,1.31,1.3.41,1.4.78,2.7,1.16,3.97.32,1.3.63,2.58.96,3.93-.4.58-.66,1.77-.25,6.18-.19-.44-.54-1.39-.54-1.04-.09,2.82-.53,3.79-.3,9.28.23-.85.42-2.31.67-2.29.37.02.76,2.1.69,5.32.64,3.41,1.12.65,1.6-1.74.16,1.61.26,3.09.22,4.21-.05,1.12-.17,1.88-.36,2.04-.54.47-1.18,2.44-1.54-2.48-.03,2.94,0,4.81-.13,6.8.2.55.38,1.04.58,1.59-.14,1.61-.4,3.07-.57,4.39-.03,1.87.79.02.08,4.28-.17-.58-.33-1.11-.54-1.85-.22,1.62-.37,3.08-.59,4.42-.22,1.34-.42,2.57-.62,3.74-.57,1.64-1.1,3.25-1.94,5.48.3.45.48.72.77,1.15-.93,2.62-1.71,4.47-2.62,6.73.11.65.16,1.18.24,1.72-.46,3.01-2.21,6.48-3.2,9.74-.55.56-.98,1-1.5,1.52-.56,2.22-1.04,4.14-1.48,5.85-.36,1.6-.85,3.22-1.99,5.9-1.77,3.92-2.09,4.38-2.7,4.18-.05-.02-.06-.12-.11-.23-.61,1.26-1.02,2.24-1.87,3.83.07-.69.12-1.14.16-1.61-.67,1.12-1.25,2.09-2.02,3.38-.11-.49.67-2.35-1.43.43-.25,1.38-2.69,4.9-4.28,7.28-2.02,3.08-5.12,5.8-7.23,8.4-1.22.89-3.13,2.27-3.05,2.01.07-.23.44-.7.89-1.24.44-.55.95-1.2,1.35-1.73-1.09.62-1.7,1-2.81,1.81-.55.41-1.21.95-2.16,1.63-.92.71-2.12,1.55-3.72,2.59.97-.34,2.15-.94,2.95-1.19.78-.3,1.18-.27.57.63-.73.46-1.44.91-2.2,1.39-.77.45-1.6.92-2.55,1.43,1.07-.27,1.79-.5,2.67-.74-2.04,1.72-4.09,3.24-6.54,4.73-.28-.25-.54-.47-.8-.69-1.15.86-1.01,1.21-2.36,1.89-1.5.76-4.44,1.64-6.72,1.97-.31.27,3.18-.16.61.49-.69.04-1.39.01-2.12,0-.72.02-1.48-.05-2.27-.09-.8,0-1.63-.16-2.54-.2-.89-.15-1.88-.21-2.9-.46.88.14,1.79.13,2.68.17.9-.03,1.78-.03,2.67-.14-2.24-.32,2.75-.45.59-.78,2.77-.06,4.82-.45,6.96-.98.07-.2.14-.41.24-.69-2.16.62-3.88.97-5.3,1.09-1.03.02-1.13-.13-1.37-.27-.25-.16-.65-.19-2.25-.28-.76.13-.76.39-1.26.57-.48.11-1.57.32-4.28-.45-.14-.13-.41-.38-.74-.69-1.76-.16-3.01-.4-4.18-.82.21.15.41.3.62.45.23.13.45.26.69.4.23.14.48.28.73.42.27.12.54.25.83.38-.88-.27-1.28-.48-1.63-.68-.34-.21-.64-.4-1.13-.91-.27-.25-.54-.49-.8-.76-.24-.28-.49-.57-.76-.87-.27-.28-.5-.65-.76-1.01-.26-.36-.53-.74-.76-1.2-.28.21-.37.45-.64.45-.27,0-.71-.26-1.08-.41-1.95-2.94-2.47-5.38-2.8-7.36-.23-2.03-.3-3.7-.33-5.79.19.43.37.89.56,1.34.21.44.41.86.61,1.22.38.71.76,1.13,1.06.9-.36-1.05-.62-1.86-.8-2.52-.16-.67-.28-1.19-.37-1.66-.16-.96-.23-1.75-.29-3.35.12.22.21.44.45.83-.22-2.56.21-5.47.04-7.38,0,0,.08-.6.2-1.18.12-.58.24-1.15.25-1.11.24.82.46,1.87.69,2.65,1.15-3.25,2.4-8.89,4.31-14.72-.06-.96-.14-1.91-.17-2.85l.08-.17c-1.74,3.69-2.95,9.64-3.83,14.98-.25-.73-.51-1.41-.71-2.09.26-1.52.46-2.72.65-3.79.99-6.38,2.81-12.82,5.28-19.28.29-.81.83-2.23.86-2.5.19-1.72,1.47-4.51,2.45-6.95.02-.31.03-.62.04-.78,1.2-2.7,2.41-5.21,3.57-7.6.06-.6.09-.98.13-1.36,1.23-2.29,2.41-4.3,3.58-6.31.08-.26.15-.53.24-.79-1.12,1.52-2.24,3.04-3.54,4.88.24-.92.57-1.91.96-3.22.97-1.35,1.61-2.22,2.52-3.38.59-1.52,1.1-2.96,1.76-4.52.63-.99,1.33-2.07,1.46-2.28,1.32-1.05,2.48-1.87,3.86-2.91.57-1.55,1.02-2.62,1.47-3.73.35-.14.9-.89,1.76-2.24.15-.24.7-.57,1.13-.92.93-1.69,1.54-2.92,2.37-4.3.35-.57,1.44-2.07,1.57-2.18,1.26-1.11,3.72-4.78,5.05-5.85.09-.07,1.85-2.31,2.05-2.7.61-1.24,1.55-2.23,2.76-3.4.71-.72,1.46-1.47,2.03-2.05,3.33-4.73,6.71-7.44,10.27-10.5.39-.79.69-1.4.9-1.82,4.79-4.88,9.41-9.19,14.44-13.47.27,0,.61-.02.78-.02,3.06-2.42,5.82-4.45,8.73-6.5.2-.22.53-.57.87-.92,1.05-.53,2.13-1.36,3.25-2.14,1.12-.78,2.25-1.58,3.32-2.15q.24,1.02,1.28.43c.31-.48.37-.82,1.01-1.47.74-.73,2.96-2.18,4.21-2.6,1.44-.49,3.03-1.24,4.8-2.09.89-.41,1.83-.87,2.8-1.36.96-.5,1.98-1.02,3.04-1.53-.26.47.3.43,1.46.03.58-.2,1.31-.48,2.15-.84.86-.34,1.85-.72,2.93-1.15-5.06,2.53-9.07,4.99-13.01,7.54l.31-.06c1.13-.67,2.31-1.22,3.43-1.82,1.13-.59,2.23-1.18,3.32-1.67,1.89-.59,3.65-1.23,5.51-1.7,1.14-.77,2.11-1.41,3.07-2.06-.61.2-1.49.48-3.51,1.14,3.26-1.4,5.31-2.09,8.09-3.11-1.24-.26-2.42-.5-3.52-.73,1.61-.67,3.06-1.32,4.59-1.84.98-.33,3.05-.98,4.88-1.29,1.82-.35,3.34-.59,3.15-.42-.51.45-.04.41.81.24.86-.15,2.1-.46,3.14-.67l-.16.05c.09-.27.17-.53.25-.77.47-.11.94-.21,1.4-.31.47-.08.93-.16,1.4-.24.93-.16,1.85-.32,2.77-.47,1.85-.29,3.72-.44,5.67-.68.65.19,1.05.36,1.83.5.43.07,1.85.14,2.21.1.77-.11,1.74-.23,1.56-.31-1.04-.53,1.63-.16,3.4-.08-1.19.22-2.37.45-3.54.67,3.79.87,8.86,1.6,15.03,3.2.76.36,1.43.64,2.04.96.6.34,1.17.66,1.76,1,.5-.03.8-.16,1.19-.22.38-.05.88-.09,1.7.22,1.16.41,2.25.78,3.22,1.07.94.36,1.76.63,2.43.74.44.47.64.68.84.89,1.04.46,1.99.99,3.03,1.6,1.06.58,2.04,1.47,3.12,2.63ZM317.35,269.01c.13-1.96.34-1.36.86,2.68-.23.64-.71-1.27-.68,2.14l-.35-1.21c-.41-1.62-.61-1.14-.44,2.61-.28-1.28-.38-2.45-.41-3.58-.07-1.13-.06-2.22-.05-3.34-.34-1.46-.75-2.7-1.15-4.08.14-2.86,1.33,3.03,1.38-.11.63,2.52.72,4.73.51,5.66-.24,1.06.23,2.17.16,3.06.11-1.29.09-2.73.17-3.83ZM314.72,257.56c-.07.38-.14.75-.26,1.35-.22-1.37-.55-2.61-.8-3.8-.14-.59-.27-1.17-.4-1.73-.15-.56-.31-1.11-.47-1.65-.34-1.12-.66-2.23-1.01-3.21-.36-.97-.69-1.85-.95-2.53-.2-1.19-.44-2.17-.67-3.12-.23-.95-.43-1.88-.72-2.93.27.48.82,1.53,1.02,2.11.27.8.53,1.56.79,2.28.23.73.45,1.42.68,2.06.46,1.29.94,2.39,1.39,3.3,0,.02.21,1.06.33,1.61.13.14.32.35.55.61.45,1.75.72,3.42,1.07,5.09-.19.26-.37.51-.55.76v-.21ZM429.82,228.03c.84,1.39,1.64,2.7,2.43,4.01.71,1.36,1.46,2.69,2.17,4.13-.68-.36-1.69-1.49-3.33-4.07-1.2-1.7-2.58-3.67-3.22-5.15.64.35,1.31.72,1.95,1.07ZM113.15,315.36c-1.43,2.1-2.88,4.49-5.14,8.09,1.34-2.66,2.54-4.72,2.49-5.36-.08-.66,1.89-3.65,4.22-7.42-.61,1.84-1.06,3.19-1.56,4.69ZM146.15,266.6c-1.78,1.52-3.47,3.08-5.13,4.54.91-1.57,1.86-2.32,2.79-3.36.9-1.04,1.87-2.28,3.36-4.07.44.03.82.06,1.23.09-.92,1.14-1.58,1.97-2.25,2.8ZM314.49,251.05c-.63-2.87-1.08-4.34-1.08-4.92,0-.58.4-.27,1.23.54.04.65.06,1,.07,1.35,0,.32,0,.64,0,1.12.42,1.29.85,2.29,1.54,4.62-.72-1.21-1.26-1.96-1.76-2.7ZM321.38,283.19c-.22.28-.44.56-.75.97.08-.99.16-1.94.24-2.87.04-.93.09-1.85.13-2.76.11-1.82.12-3.62.13-5.53.38,2.06.46,3.81.4,5.44-.04,1.63-.13,3.14-.14,4.75ZM272.78,206.66c-1.22-.48-2.34-.92-3.4-1.34-1.08-.4-2.14-.67-3.19-1.01l.47-.03c.74.15,1.49.3,2.25.45.75.18,1.5.42,2.29.64.78.23,1.6.44,2.45.71.83.31,1.71.64,2.64.98-1.11-.12-2.12-.31-3.5-.39ZM281.64,208.62c.88.34,1.69.76,2.48,1.13.78.4,1.57.72,2.24,1.19.69.45,1.35.9,1.98,1.38.31.24.62.48.92.73.29.26.56.55.82.83-1.66-1.04-5.8-3.9-5.56-2.92l-1.14-.65c-.58-.56-1.14-1.18-1.75-1.69ZM163.68,243.11c.49-.32,1.3-.81,1.24-.75-1.18,1.29-2.38,2.59-3.64,3.97-.46.5-1.67,1.54-2.12,1.84-.25.17.17-.52.64-1.07.83-.96,1.91-2.15,2.77-3,.54-.48.97-.89,1.12-.98ZM318.1,261.21c-.74-2.02-.99-1.12-1.95-4.58.27-.44.54-.88.83-1.36.52,2.2.71,3.71,1.12,5.94ZM83.94,375.83c.86-2.12,1.8-4.17,2.79-6.2,1.01-2.01,2.1-3.97,3.16-5.96-.88,2.17-1.89,4.19-2.91,6.19-1.01,1.98-2.03,3.98-3.04,5.97ZM178.51,236.86c-.76,1.27-.73,1.29-3.9,3.86,1.22-1.2,2.4-2.46,3.9-3.86ZM433.12,241.31c1.16-.94,2.16-1.71,3.08-2.39.92-.68,1.74-1.3,2.56-1.91l.06.19c-1.76,1.64-3.48,2.89-5.7,4.11ZM394.79,203.87c.48.38.84.58,1.48,1.17-1.21-.4-2.17-.58-3.02-.82-.86-.21-1.61-.46-2.53-.59.78-.03,1.39.04,2.01.09.63.05,1.26.1,2.06.16ZM171.32,244.12c-.17.25-.21.37-.36.51-1.81,1.74-3.48,3.29-3.23,2.28,1.61-1.25,2.6-2.03,3.59-2.79ZM290.11,218.6c-1.01-.98-1.99-1.9-1.25-1.7,1.68,1.38,2.71,2.51,1.25,1.7ZM317.09,254.68c-.01-.05-.04-.76.04-.65.19.29.37.79.54,1.52.17.72.31,1.67.36,2.84-.26-1.24-.61-2.45-.94-3.71ZM90.23,348.28l.33-.24-2.31,4.73-.34.25,2.32-4.74ZM387.25,202.32c1.01.02,1.5,0,2.1.05.41.04.84.09,1.39.15.27.03.58.07.93.11.34.07.73.15,1.17.23-.47.02-.91,0-1.34-.01-.44,0-.86-.01-1.3-.05-.88-.08-1.8-.24-2.94-.48ZM318.2,279.38s-.02-.36-.04-.72c-.01-.37-.02-.72-.03-.74.12-.38.24-.64.36-.93l.09,1.8c-.13.22-.25.48-.38.59ZM293.58,214.23c-1.56-1.5-1.57-1.52.53-.28-.21.11-.35.19-.53.28ZM309.12,246.14c.05.24.17.72.14.69-.1-.11-.26-.38-.39-.59-.05-.25-.1-.5-.18-.86.14.25.28.51.43.76ZM288.81,216.11l.4.37-1.06-.51-.48-.45,1.14.58ZM314.37,267.94s0,.58.01.89l-.43-1.46c0-.28-.02-.56-.03-.84.17.45.31.91.45,1.41ZM182.63,234.94c.06-.01-.76.77-.83.82-.47.31-.9.55-1.22.7-.06.03.47-.48.93-.94.49-.26.95-.54,1.12-.58ZM107.17,320.65l.09.04-2.34,3.79-.07-.08,2.32-3.75Z" fill="#161616" stroke-width="0"></path><path d="M239.96,334.33c-.12-.02-.23-.38-.37,0-1.65,4.74-1.44,2.18-1.92,1.83,1.29-3.9,2.67-7.27,4.12-10.44,1.42-3.19,2.95-6.18,4.54-9.36-.3,1.47-.43,2.27-1.48,4.84-.36.9-.69,1.86-1.03,2.89-.32,1.03-.66,2.14-1.02,3.32-.82.62-1.92,3.46-2.91,7.1l.08-.17Z" fill="#161616" stroke-width="0"></path><path d="M153,264.87c1.6-1.9,2.74-3,3.53-3.68.79-.67,1.25-.9,1.6-.96.31-.05,1.24-.78,1.69-.98.29-.13.23.14-.31.98-1.16.9-2.21,1.64-3.51,2.74-1.31,1.1-2.8,2.63-4.88,4.6-.05-.04-.27-.08-.3-.31-.05-.34.14-.93.04-1.22-.11-.3.71-1.43,2.01-2.78.56-.58,1.27-.92,1.32-.74.05.21-.57,1.15-1.18,2.33Z" fill="#161616" stroke-width="0"></path><path d="M154.27,260.99c.9-1.4,1.46-2.27,2.19-3.39,3.04-2.17,2.86-.82,6.95-4.09-.1.36-.22.77-.36,1.23-.45.41-.93.9-1.17,1.08-.98.73-1.74,1.25-2.78,2.16-.82.72-1.94,1.88-3.02,2.93.85-1.31,1.65-2.54,2.47-3.8-.78.44-1.5.8-4.29,3.87Z" fill="#161616" stroke-width="0"></path><path d="M251.3,303.98c1.34-2.39,2.72-4.82,4.02-6.88.27-.24.44-.46.45-.39.23,1.29-.32,2.29-3.09,6.67-2.1,3.44-2.1,3.47-1.38.6Z" fill="#161616" stroke-width="0"></path><path d="M95.79,354.95q1.64-4.16,1.31-4.73c.44-.83.87-1.71,1.34-2.51.99-1.7,2.27-3.9,2.33-3.36.05.46-.13,1.46-1.51,4.02-.99,1.87-1.99,3.77-3.47,6.58Z" fill="#161616" stroke-width="0"></path><path d="M278.43,214.66c-1.39-.79-2.46-1.53-3.11-2.01-.66-.47-.85-.8-.39-.94.19-.05,1.12.07,1.83.4.71.29,1.95.93,2.35,1.22.58.37,1.01.92.69.88-.82-.05,1.51,1.64-1.37.46Z" fill="#161616" stroke-width="0"></path><path d="M249.52,307.46c-1.5,3.25-2.81,6.2-4.16,9.48.41-2.38-1.53,2.27-1.83,2.1,2.39-6.35,3.83-8.9,5.99-11.59Z" fill="#161616" stroke-width="0"></path><path d="M309.54,261.72c-.29-.89-.52-1.59-.85-2.59,0-1.46-.03-2.72-.05-4.27-.26-.53-.5-.91-.72-1.29l-.19-.7c.18-.09.28-.52.56-.17.2.26.75,1.44.93,2.35.28,1.24.6,3.03.62,3.78,0,1.25-.17,1.85-.3,2.91Z" fill="#161616" stroke-width="0"></path><path d="M67.71,394.34l2.36-6.39c.83-2.11,1.68-4.24,2.6-6.39.74-1.72,1.54-3.48,2.47-5.36.94-1.87,1.96-3.9,3.09-6.16-.99,2.19-1.94,4.31-2.87,6.37-.89,2.08-1.76,4.11-2.61,6.11-.85,2-1.68,3.96-2.51,5.9-.78,1.96-1.56,3.9-2.34,5.85l-.2.07Z" fill="#161616" stroke-width="0"></path><path d="M296.75,229.76c-.28-.29-.8-.84-1.43-1.36-.62-.9-1.19-1.8-1.79-2.63-.63-.81-1.25-1.6-1.87-2.39,1.32.93,2.01,1.41,2.63,1.92.6.54,1.11,1.13,2.17,2.29.13.64.22,1.32.3,2.16Z" fill="#161616" stroke-width="0"></path><path d="M290.29,248.95c.37-.04.84-.1,1.33-.16-1.15,1.17-2.03,2.06-2.71,2.75-.67.7-1.14,1.17-1.47,1.46-.67.59-.78.48-.78.06-.48.54-.96,1.08-1.67,1.89.04-.26.07-.47.1-.69-.69.59-1.33,1.2-1.99,1.81l.21-.4c1.02-1.07,2.1-2.07,3.23-3.18.57-.55,1.15-1.12,1.77-1.71.63-.58,1.29-1.19,1.99-1.83Z" fill="#161616" stroke-width="0"></path><path d="M298.64,242.32c3.9-2.76,4.29-2.85,3.55-.96-.97.56-2.2,1.44-2.4,1.37-.55-.18-2.17,1.17-4.39,3.41-.58.57-1.31,1.18-1.96,1.77l-.19-.03c1.05-1.05,2.19-2.12,3.15-3.11.77-.81,1.35-1.5,2.24-2.45Z" fill="#161616" stroke-width="0"></path><path d="M284.99,257.8c-2.64,2.34-4.72,4.35-6.83,6.37.11-.66.91-1.87,2.94-4.07,2.27-2.37,3.62-3.21,3.89-2.29Z" fill="#161616" stroke-width="0"></path><path d="M262.31,284.6c-2.43,3.94-3.78,5.54-5.33,7.71.51-.99.9-1.84,1.59-3.1-.81,1.04-1.42,1.94-2.11,2.88,1.89-3.86,2.14-4.09,3.4-5.39.85-.86,1.51-1.33,2.45-2.09Z" fill="#161616" stroke-width="0"></path><path d="M282.84,360.31c1.77-1.65,3.5-3.35,5.13-5.14-2.46,4.05-2.94,4.5-4.26,5.67-2.01,1.63-2.16,1.41-.87-.54Z" fill="#161616" stroke-width="0"></path><path d="M300.91,332.69c1.14-1.64,3.08-6.72,3.55-5.92.25.43-.77,2.93-.44,3.26-1.22,1.1-2.18,1.88-3.11,2.67Z" fill="#161616" stroke-width="0"></path><path d="M263.15,284.25c1.61-2.68,3.28-5.29,5.37-8.39.16.71,2.35-1.56,1.87-.01-1.22,1.1-2.17,1.95-3.23,3.16-1.07,1.21-2.31,2.73-4.01,5.24Z" fill="#161616" stroke-width="0"></path><path d="M311.22,282.75c.24,1.35.54,2.64.76,4.31-.39,1.38-.73,3.13-1.04,3.53-.21.29-.36-1.19-.57-2,.17-1.07.34-2.07.49-3.03.12-.96.24-1.89.36-2.82Z" fill="#161616" stroke-width="0"></path><path d="M237.29,211.23c-1.37.24-2.64.46-3.85.67-1.21.29-2.37.56-3.52.83-1.67.39-1.66.37-.27-.49,1.15-.2,2.35-.45,3.58-.81,1.24-.3,2.51-.66,3.81-1.19,2.77-.28.03.69.26.98Z" fill="#161616" stroke-width="0"></path><path d="M140.93,282.46c3.59-3.45,3.66-3.43,1.78.24-.54.38-.91.61-1.41,1-.53.42-1.16,1-1.82,1.57.37-.73.91-1.77,1.45-2.82Z" fill="#161616" stroke-width="0"></path><path d="M129.67,294.86c.63-1.12,1.12-2.1,1.91-3.26.23-.34,1.38-1.51,1.83-1.89.58-.48,1.14-.87,1.21-.66.05.14-.69,1.31-1.23,2.16-.1.15-1,1.07-1.43,1.48-.69.65-1.34,1.27-2.3,2.17Z" fill="#161616" stroke-width="0"></path><path d="M71.19,391.36c1.11-3.17,2.16-5.97,4.08-9.8.57-1.13,1.17-2.46,1.78-3.85.64-1.38,1.3-2.82,1.94-4.2-.01.01.05-.07.07-.05.02.02,0,.14-.04.23l-1.97,4.37-1.88,4.41c-1.24,2.95-2.55,5.86-3.73,8.83l-.25.07Z" fill="#161616" stroke-width="0"></path><path d="M166.2,255.94c-1.46.98-2.6,1.74-3.85,2.57.37-.56.61-.98,1.19-1.66.53-.61,1.65-1.77,2.16-2.18.73-.6,1.61-1.19,1.59-.99-.05.42-.63,1.35-1.09,2.26Z" fill="#161616" stroke-width="0"></path><path d="M237.49,373.52c-.63-.61-1.11-1.33-1.66-2.02-.46-.74-.99-1.47-1.4-2.3-.66-3.49.76.77.87.15.09-.5.33-.55.61-.93.47,2.48,1.02,3.93,1.57,5.1Z" fill="#161616" stroke-width="0"></path><path d="M85.68,351.27c-1.35,2.71-2.42,4.87-3.42,6.7-1.01,1.83-1.96,3.32-2.97,4.76,2.29-4.86,4.02-8.2,6.39-11.46Z" fill="#161616" stroke-width="0"></path><path d="M256.79,209.36c-1.04-.14-2-.33-2.93-.4-.93-.07-1.84-.13-2.78-.2,1.16-.12,2.13-.22,2.99-.3.87-.03,1.64,0,2.34.02,1.41.07,2.59.13,3.9.5-.5.04-1,.04-1.56.12-.57.08-1.19.17-1.95.27Z" fill="#161616" stroke-width="0"></path><path d="M295.24,341.43c1.04-1.1,1.76-1.98,2.63-2.98.37-.84.71-1.7,1.08-2.66-.02.24.03.39-.07.64-.96,2.21-2,4.41-3.24,6.8-.98.95-.67-.35-.39-1.8Z" fill="#161616" stroke-width="0"></path><path d="M247.23,377.67c-1.63-.26-2.62-.63-3.7-1.65-.63-.59-.72-.92-.63-1.02.11-.12.39,0,.76.04.28.19.51.36.7.53.21.14.4.26.54.38.3.24.49.45.7.6.39.34.64.72,1.62,1.11Z" fill="#161616" stroke-width="0"></path><path d="M110.69,322.3c1.86-4.34,2.41-5.26,4.17-7.62.45-.6,1.03-1.28,1.11-1.24.07.04-.34.94-.69,1.51-.65,1.02-1.31,2.05-2.06,3.22-.73,1.19-1.54,2.52-2.53,4.13Z" fill="#161616" stroke-width="0"></path><path d="M236.5,358.15c.28.37.55.74.83,1.06.02,2.43.26,4.64.76,7.01-.18-.29-.4-.71-.57-1.25-.16-.55-.33-1.17-.48-1.84-.12-.69-.24-1.4-.36-2.08-.08-.7-.18-1.36-.28-1.93.01-.31.07-.64.1-.96Z" fill="#161616" stroke-width="0"></path><path d="M275.95,266.15c-2.02,1.99-3.96,4.06-6.14,6.38.57-.97,1.04-1.69,1.63-2.65,1.59-1.66,4-4.38,3.59-3.03-.02.07.8-.81,1.23-1.25l-.32.56Z" fill="#161616" stroke-width="0"></path><path d="M382.4,203.85c1.05.35,1.94.65,3,1-3.65-.06-4.1-.67-7.42-.41-.21-.56,2.77-.48,4.42-.59Z" fill="#161616" stroke-width="0"></path><path d="M80.07,380.35c1.47-2.98,3.01-5.92,4.96-9.78-1.38,3.02-2.66,5.8-3.99,8.56-1.29,2.78-2.59,5.55-4.1,8.52,1.41-3.28,2.32-5.39,3.22-7.48,0,.02-.1.18-.1.18Z" fill="#161616" stroke-width="0"></path><path d="M251.65,378.95c2.11.31,4.07.4,7,.03-2.43.65-3.71.99-5.24.82-.33-.04-.66-.09-.99-.13-.3-.06-.56-.15-.75-.22-.38-.16-.47-.32-.03-.49Z" fill="#161616" stroke-width="0"></path><path d="M359.47,207.56c1.73-.49,3.05-.95,5.12-1.4.3.27.56.51.82.74l-.9.21c-1.57.04-3.12.26-5.04.45Z" fill="#161616" stroke-width="0"></path><path d="M109.93,328.29c2.3-4.06,0-.8-.41-.59,1.37-2.65,1.99-3.05,2.82-3.98-.35.96-.68,1.88-1.11,3.09-.48.52-.86.94-1.25,1.36l-.05.11Z" fill="#161616" stroke-width="0"></path><path d="M186.32,238.3c-2.99,1.52-2.8,1.19,1.33-2.25-.42.65-.8,1.32-1.33,2.25Z" fill="#161616" stroke-width="0"></path><path d="M319.03,226.71c4.72-2.77,4.61-2.08,4.37-1.3-1.54.6-1.81.16-4.66,1.89-.11.07.15-.32.29-.59Z" fill="#161616" stroke-width="0"></path><path d="M292.89,350.75c-1.2,1.03-1.25.75-.14-1.15.46-.8,1.26-1.71,2.14-3.04-.81,1.87-1.43,2.98-2,4.18Z" fill="#161616" stroke-width="0"></path><path d="M78.66,361.48c-1.1,2.28-2.12,4.58-3.31,7.27.18-1.02.27-1.55.68-2.47.4-.92,1.12-2.24,2.62-4.81Z" fill="#161616" stroke-width="0"></path><path d="M306.83,314.25c-1.1,4.1-1.22,4.26-2.04,4.41.96-2.59,1.28-2.64,2.04-4.41Z" fill="#161616" stroke-width="0"></path><path d="M73.46,377.28c-1.23,2.6-2.33,5.54-3.79,8.13,1.62-4.06,2.07-5.01,3.79-8.13Z" fill="#161616" stroke-width="0"></path><path d="M307.4,234.88c.48-.71.83-1.24,1.19-1.78,2.61-2.08,2.54-1.59,2.51-1.19-1.13.84-2.21,1.78-3.7,2.96Z" fill="#161616" stroke-width="0"></path><path d="M81.7,355.98c1.41-3.04,2.98-6,4.46-9l.26-.11c-1.49,3.01-3.07,5.97-4.48,9.01l-.24.1Z" fill="#161616" stroke-width="0"></path><path d="M311.83,301.62c-.73,3.11-1.41,5.36-1.83,4.8.74-1.77,1.26-4.64,1.83-4.8Z" fill="#161616" stroke-width="0"></path><path d="M125.62,303.59c-.04.6-.07,1-.1,1.56-.92.91-1.57,1.54-2.49,2.46.94-1.46,1.61-2.49,2.6-4.02Z" fill="#161616" stroke-width="0"></path><path d="M305.27,328.26c-.38-.5-.32-.48,1.48-5.5-.5,1.83-.83,3.33-1.48,5.5Z" fill="#161616" stroke-width="0"></path><path d="M330.78,218.38c-1.29.77-2.57,1.53-4.1,2.56.61-.52,1.13-.97,1.7-1.45.58-.46,1.2-.95,1.98-1.57.14.25.22.4.3.54l.12-.09Z" fill="#161616" stroke-width="0"></path><polygon points="75.51 373.41 78.83 366.35 78.94 366.34 75.69 373.23 75.51 373.41" fill="#161616" stroke-width="0"></polygon><path d="M263.22,375.98c-.87.52-1.74,1.1-2.65,1.54.66-.48-.59-.39,2.65-1.54Z" fill="#161616" stroke-width="0"></path><path d="M393.28,378.09c-1.12.48-1.96.69-2.59.83-.64.09-1.07.08-1.41-.02.51-.13.96-.24,1.37-.33.41-.12.77-.22,1.1-.29.65-.14,1.15-.2,1.53-.18Z" fill="#161616" stroke-width="0"></path><path d="M237.11,368.78c.58,1.69,1.04,2.7,1.7,3.81-.22-.14-.3-.09-.49-.32-.36-.57-.66-1.07-.85-1.63-.16-.58-.32-1.15-.36-1.86Z" fill="#161616" stroke-width="0"></path><path d="M365.75,204.58c.61-.12,1.21-.27,2.01-.39.8-.12,1.79-.27,3.15-.47-1.94.57-2.94.75-4.88,1.45-.07-.34-.1-.49-.13-.64l-.16.06Z" fill="#161616" stroke-width="0"></path><path d="M77.49,366.22c-.78,1.65-1.56,3.3-2.79,5.93.92-2.71,1.79-4.34,2.79-5.93Z" fill="#161616" stroke-width="0"></path><path d="M117.66,311.64c.33-.11.55-.19.97-.33-.85,1.13-1.27,1.73-1.56,2.06-1.25,1.46-.22-.21.59-1.73Z" fill="#161616" stroke-width="0"></path><path d="M209.88,221.82c.39.06.62.1.85.14-.65.37-1.06.63-1.21.69-1.07.43-1.77.65.35-.83Z" fill="#161616" stroke-width="0"></path><path d="M84.92,375.79c1.25-2.65,1.95-4.15,2.96-6.29-.64,2.22-1.54,3.67-2.96,6.29Z" fill="#161616" stroke-width="0"></path><path d="M301.47,337.83c-.41.89-.88,1.77-1.32,2.61-.07.14-.14,0-.2-.01.49-.97,1-1.92,1.45-2.91l.08.31Z" fill="#161616" stroke-width="0"></path><path d="M274.18,370.84c.91-.59,1.85-1.15,2.73-1.8l-.36.47c-.98.71-1.98,1.38-2.99,2.02.21-.22.41-.45.61-.69Z" fill="#161616" stroke-width="0"></path><path d="M289.5,219.77c2.26,2.3,2.25,2.28.97,1.77-.39-.76-.62-1.23-.86-1.7l-.11-.07Z" fill="#161616" stroke-width="0"></path><path d="M109.99,328.17c-1.03,1.65-1.98,3.35-2.98,5.02.91-2.35,1.89-3.33,2.91-4.89,0-.02.06-.13.06-.13Z" fill="#161616" stroke-width="0"></path><polygon points="310.25 303.4 311.19 300.11 311.19 300.56 310.26 304.15 310.25 303.4" fill="#161616" stroke-width="0"></polygon><path d="M330.66,218.46c1.03-.5,2.02-1.08,3.76-1.87-2.62,1.62-2.84,1.5-3.63,1.78,0,0-.12.09-.12.09Z" fill="#161616" stroke-width="0"></path><path d="M358.26,207.57c-.76.29-1.51.66-2.26.99l-.7.11,2.45-1.04c.17-.03.34-.04.51-.06Z" fill="#161616" stroke-width="0"></path><polygon points="390.81 288.87 392.6 286.43 392.51 286.73 390.61 289.45 390.81 288.87" fill="#161616" stroke-width="0"></polygon><polygon points="179.61 241.1 178.6 242.54 177.66 243.25 178.72 241.77 179.61 241.1" fill="#161616" stroke-width="0"></polygon><path d="M313.04,294.23c0,.41.02.79-.02,1.22-.03.25-.16.59-.24.89.02-.45.04-.89.07-1.36,0-.09.1-.42.19-.76Z" fill="#161616" stroke-width="0"></path><path d="M314.72,257.56c-.39-.47-.62-1.71-.73-3.17l.74,3.38v-.21Z" fill="#161616" stroke-width="0"></path></svg>