<?xml version="1.0"?><svg id="Layer_1" xmlns="http://www.w3.org/2000/svg" viewBox="0 0 600 600"><path d="M233.64,296.7c-.06-.03-.26-.02-.39-.02q-1.72-.01-2-.68c1.35.12,2.6.37,4.03.26.26-.02.66.2,1,.31.52-.47-.13-.84-.8-1.27-1.96.31-2.45-.48-3.86-.76-.12.4-.22.76-.33,1.16-.69.1-1.43.21-2.24.33-.67-.38-2.39-.38-2-.95-.79-.11-1.43-.18-2.05-.28-.59-.09-1.15-.21-1.75-.31-.7,1.05-1,.99,1.67,1.55-.13.19-.13.38-.95.36-1.32-.04-2.69.04-3.47-.52-.16-.11-.7-.14-.99-.24-.54-.18-1.04-.38-1.76-.65-.11,0-.57.02-1.03.03.23-.09.46-.18.7-.27-.95-.18-1.9-.37-2.79-.54-.26.1-.57.23-.86.34.15.15.35.31.43.47.43.82,1.67,1.14,3.88,1,.49-.03.98-.07,1.62-.12-.14.31-.24.52-.34.74-3.19.07-5.59-.56-8.14-1.07-.17-.2-.34-.41-.47-.56-.79-.02-1.48.01-2.03-.07-.62-.09-1.12-.3-1.68-.45-.81,1.19-2.72.81-4.66.5.1.22.15.34.21.49h-.83c-.43-.3-.78-.55-1.18-.84q-1.4.71-3.39.34c-.24-.04-.53-.1-.76-.08-1.04.07-1.62-.18-2.3-.39-.13-.04-.33-.04-.74-.1.25.15.41.22.5.31.11.1.18.21.26.31-2.21.39-2.22.4-4.2.09-1.03-.16-2-.37-3-.56-.07-.01-.21.03-.3.04.18.17.35.35.57.56-.55-.03-1.16-.11-1.27-.05-1.17.57-2.96.27-4.45.55-.1-.26-.14-.43-.22-.59-.15-.29-1.18-.52-1.52-.32.31.14.63.28.99.43-.86.35-1.75.21-2.5.08-1.1-.18-2.04-.18-2.93.26-.21-.41-.37-.71-1.45-.69-.44.29-.89.58-1.39.9-.53-.02-1.33-.14-1.65-.05-1.22.37-2.31.1-3.45,0-.65-.06-1.36-.08-1.93-.19-.57-.11-1.22.32-1.74-.06-.05-.03-1.15.14-1.77.2-.19.02-.4,0-.58,0-.67-.57-1.5-.87-2.1-.76v.47c-.29.01-.49.03-.68.03-1.79-.03-3.71-.43-5.23.27-.06.03-.26.03-.39.03-.66-.02-1.28.17-2.02-.12-.41-.16-1.63-.03-2.43-.03-.31-.32-.11-.69-1.29-.69-.02.18-.04.34-.08.63-1.91-.21-3.68-.41-5.49-.61.11.15.21.28.34.45-1.7.08-3.35.23-4.99.21-1.63-.02-3.49.17-4.81-.41-.14-.06-.59-.02-.98-.03.16.16.28.26.35.33-1.59.17-3.13.34-4.69.49-.43.04-1.13.09-1.33,0-.68-.27-1.47-.18-2.26-.19-1.6-.04-2-.11-3.64-.58-.41-.12-.86-.21-1.56-.39.13.26.2.41.27.56-1.92.17-3.36-.65-5.47-.24.75.12,1.31.21,1.87.29-.03.03-.05.06-.08.1-1.25.03-2.5.06-3.67.09-.2-.66-1.64-.42-2.5-.59q-.43.53-2.93.42c.03-.09.05-.18.07-.25-2.88-.15-5.69.1-8.54-.12-1.72-.13-3.59-.01-5.4,0-3.11.04-6.23.12-9.34.11-1.69,0-3.38-.17-5.07-.26,1.06.51-1.52.64-.37,1.06-2.47.07-4.75.14-6.99.2q-.27-.45-3.03-.37c-.11.1-.4.24-.33.33.45.57-.7,1.17.28,1.73.12.07-.03.26-.23.34-1.4.6-.32,1.27-.38,1.9,1.1.27.77.74.5,1-.51.5-.58,1.01-.73,1.51-.16.54-.84,1.02-.88,1.59-.03.5.92.96.24,1.46-.04.03.05.1.13.14.51.21.43.43.4.69-.02.18.34.42.74.55,2,.66,4.68.67,6.87.06,1.21-.33,1.83-.3,3,.03.67.19,1.47.4,2.27.44,2.74.15,5.51.23,8.28.32.59.02,1.28,0,1.78-.09,1.75-.34,3.62,0,5.38-.17.22-.02.53.04.76.08,1.25.27,2.48.19,3.7-.01.84-.14,1.54-.17,2.46.02.64.13,1.68.04,2.51-.03.72-.05,1.38-.21,2.13-.04,1.17.26,2.33.16,3.52,0,.54-.07,1.2-.17,1.71-.11,1.09.11,2.07.06,3.16,0,.93-.04,1.97.22,2.97.35.06,0,.14,0,.2,0,1.7-.1,3.39-.29,5.1.03.31.06.9-.06,1.34-.12.5-.07,1-.16,1.46-.26.78-.17,1.48-.19,2.25.02,1.01.27,2.14.18,3.32.15,2.18-.06,4.39-.04,6.58-.04.18,0,.37.06.55.09.96.18,1.94.14,2.97.09.83-.04,1.77-.04,2.53.07,1.5.22,2.92.22,4.33-.02.86-.15,1.63-.14,2.54-.04,1.97.22,4.13.01,6.08.35.37.06.94-.01,1.4-.05,1.34-.11,2.63-.11,4.01,0,1.14.08,2.39,0,3.59-.04.87-.03,1.86-.21,2.56-.1,1.68.24,3.19.09,4.77-.06.57-.05,1.19-.09,1.76-.06,1.63.07,3.22.11,4.8-.13.39-.06.97-.07,1.33,0,1.66.3,3.25.23,4.91,0,.53-.07,1.21-.11,1.74-.06,1.62.16,3.2.15,4.82,0,.5-.05,1.07-.03,1.6-.02,1.6.04,3.21.17,4.77-.09.22-.04.57-.03.78,0,2.06.41,4.07.26,6.05-.07.77-.13,1.4-.09,2.05.11.89.28,1.89.33,3.04.19,1.47-.17,3-.29,4.7-.45,1.08.56,2.7.56,4.45.37.84-.09,1.68-.2,2.55-.25.47-.03,1.21,0,1.45.1,1.37.64,3.08.61,4.99.48.97-.07,2.12-.12,2.99.01,1.65.24,3.17.12,4.76.02.51-.03,1.12-.08,1.56,0,1.64.26,3.16.15,4.74-.07.56-.08,1.34-.08,1.89,0,1.44.22,2.8.27,4.31.08.8-.1,1.85-.2,2.56-.09,2.33.34,4.51.22,6.74-.07.41-.05,1.02-.1,1.33-.03,1.89.45,3.75.22,5.69.06,1.15-.09,2.5-.14,3.57,0,1.52.19,2.9.18,4.36.02,1.25-.14,2.48-.14,3.8-.08,1.52.07,3.11.03,4.63-.06.91-.05,1.57-.05,2.45.11,1.62.29,3.33.45,5.25.19,1.47-.2,3.19-.3,4.75-.25,1.49.05,2.8,0,4.14-.2.54-.08,1.18-.13,1.76-.11,1.7.04,3.31-.07,4.94-.23.66-.07,1.5-.01,2.17.08,1.49.2,2.91.09,4.38-.02,1.17-.09,2.39-.16,3.56-.13,1.52.04,2.94.04,4.3-.25.86-.18,1.73-.21,2.69,0,1.61.35,3.35.28,5.13.16.89-.06,1.93-.09,2.76.02,2.01.26,3.89.13,5.82-.08,1.22-.14,2.59-.36,3.73-.04,1.64.46,3.36.3,4.82.05,1.45-.25,2.46-.15,3.69.1.67.13,1.55.22,2.29.19,1.24-.05,2.43-.25,3.66-.32.91-.05,1.86-.01,2.79,0,.8,0,1.64.07,2.39,0,1.76-.16,3.47-.38,5.26-.57.45.1.96.32,1.51.33,1.62.03,3.23-.02,4.68-.37.88-.22,1.9-.35,2.89-.53.43.17.71.32,1.07.42.35.1.82.24,1.18.22,1.98-.11,4.11-.14,5.86-.45,1.35-.24,2.36-.2,3.56-.06.38.04.76.09,1.16.14.43-.23.84-.45,1.3-.69.59.08,1.08.18,1.59.21,1.25.07,2.32.52,3.74.24,1.45-.28,2.7-.11,3.83.27.25.08.53.15.68.19,1.43-.13,2.71-.3,4.02-.35.96-.03,2.06.04,2.93.19.75.13,1.34.14,2.11.08,1.58-.11,3.17-.31,4.81-.1,2.32.3,4.63.25,6.99.05,1.14-.1,2.48-.19,3.51-.06.93.12,1.46,0,2.22-.06,1.89-.17,3.89-.44,5.73-.35,2.17.1,4.13.07,6.17-.16,1.07-.12,2.27-.24,3.33.03,1.24.33,2.62.32,3.87.12,2.02-.32,3.89-.18,5.81.08,1.69-.32,3.4-.51,5.39-.34.9.08,2-.03,2.9-.16,1.26-.18,2.33-.23,3.31.18.21.09.55.14.91.22,1.78-.54,3.95-.53,5.99-.47,2.62.07,5.13-.1,7.68-.2.98-.04,1.82-.08,2.72.12.36.08,1.19.08,1.46-.01.95-.33,2.07-.29,3.2-.34,3.13-.13,6.22,0,9.32.12,1.52.06,3.08-.04,4.63-.04,1.61,0,3.23,0,4.84.05.87.02,1.73.14,2.65-.2-1.93-.33-3.78-.58-5.79-.71-1.04-.07-2.42-.14-2.92-.4-.59-.3-1.26-.29-1.96-.38-1.09-.02-2.18-.04-3.27-.05,0-.05.01-.1.02-.15,1.08.07,2.17.14,3.25.2.02-.47.77-.66,1.95-.66.67,0,1.35.02,2.02,0,1.27-.02,2.52-.06,3.16-.56-1.48-.47-2.62-1.09-5.01-1.14,1.05-.33,1.95-.24,2.78-.18,1.25.09,1.76-.3,2.62-.47.97-.19.28-.49.35-.59.9-.23,2.01-.36,2.06-.54.17-.58,1.42-.53,2.3-.74,1.41-.34,2.86-.37,4.4-.38.28,0,.56-.09.84-.13-.01-.03-.03-.07-.04-.1-.69-.02-1.37-.05-2.02-.07-.81-.75-.61-.9,1.34-.77,1.63.11,3.13.17,4.67-.12.38-.07.93-.02,1.4-.03.58-.02,1.15-.06,1.96-.1-1.05-.51-1.96-.95-3.03-1.47-.08,0-.5,0-.87-.05-1.41-.18-3.07-.04-4.29-.46h.06c-.4.04-.81.09-1.21.08-1.54-.06-3.14-.07-4.6-.24-.87-.1-1.26-.58-2.46-.54-.07-.35.26-.53,1.1-.55.61-.01,1.22-.02,1.82,0,1.33.05,2.65.12,3.91.17,1.09-.89,3.16-.64,4.91-.8-3.42-.12-6.85-.25-10.51-.38.36-.19.56-.29.75-.39-.06-.03-.13-.07-.19-.1-.76.18-1.52.37-2.37.58.43.18.72.31,1.09.47-1.11.13-2.1.24-3.27.38.6.44,1.1.8,1.6,1.17-1.42.08-2.84.15-4.35.23-1.28-.62-1.51-.64-4.16-.23.26.22.53.44.82.68-1.3.41-3.29.38-4.27.95-.11.06-.64.03-.97.03-.34,0-.79-.06-.99,0-1.2.35-1.64-.01-2.16-.27-.58.09-1.15.18-1.59.25-.31-.28-.54-.49-.77-.7-1.86.25-.61.84-1.38,1.14.45.23.82.42,1.24.63-.98.18-1.19-.03-1.49-.23-.33-.23-.52-.49-1.43-.56-1.43-.1-2.82-.26-4.29-.4.38-.32.72-.62-.33-.82-.64.11.32.66-1.09.5-.11-.13-.22-.25-.4-.47-.39.21-.64.32-.82.45-.19.13-.34.27-.45.41-.25.35.53,1.21,1.17,1.17,1.91-.1,1.34.42,1.74.7-.75.13-1.42.2-1.95.34-.62.17-.92.41-.53.7.28.21.81.38,1.26.21.94-.35,2.2-.17,3.22-.35.17-.03.49.06.74.1-.64.14-1.24.14-1.8.2-.57.06-1.15.15-1.19.44-.08.55-1.12.68-2.37.68-.59,0-1.17-.02-1.88-.03-.41.65-.1,1.36-1.6,1.85-.15.05-.02.22-.02.34-1.66-.11-1.83-.22-1.35-.73.1-.11.08-.3-.12-.37-.8-.26-.29-.43.29-.56.47-.1,1.04-.14,1.78-.23-1.17-.5-.98-.99-.41-1.52-.92.05-1.67.08-2.41.12-.32-.52.8-.54,1.4-.68.94-.2,1.99-.34,2.92-.49v-.92c-1.67-.1-3.11-.67-5.15-.44-.08.48-.15.9-.22,1.36.19.17,1.61.01,1.13.56-1.28-.22-2.52-.44-4.22-.73.76.51,1.33.89,2.02,1.35-.39.11-.81.34-1.28.35-1.16.04-1.48.27-1.47.64.29.07.59.13,1.2.27-.99.22-1.68.4-2.44.53-.29.05-.91.01-1.09-.07-1.09-.5-2.56-.35-4.07-.34,1.31-.51,2.56-.99,3.91-1.52-.82-.12-1.41-.21-2.21-.33,1.01-.08,1.82-.14,2.64-.2.1-.72-1.09-1.25-2.34-1.74-.32.06-.63.11-1.22.21.19-.35.32-.58.43-.78-.49-.29-1.28-.54-1.34-.82-.12-.55-1.24-.73-2.26-1.17v1.02c.89.22,1.56.49,2.07.79.29.17-.69.47-.76.37-.31-.38-1.75-.18-1.97-.58-.06-.11-.55-.19-1.12-.38-.18.57-1.26.31-2.26.37.5.26.87.46,1.42.75-.77-.02-1.24-.04-1.8-.05.08.21.13.35.18.49-.09,0-.18.02-.27.03-.6-.32-1.2-.64-1.78-.94-.71.46-.9.48-1.74.12-.39-.17-.69-.36-1-.55-.04-.03.06-.08.09-.13.5-.01,1-.03,1.53-.05-.56-.75-.69-.8-2.37-.92v1.31c-1.15.21-1.83-.49-3.16-.16.59.3.84.65-.49.98-.37-.36-.68-.66-1.05-1.03-.34.23-.56.37-.63.42h-4.01c.23-.32.45-.64.71-.99-.76-.05-1.33-.41-2.36-.32.52.35.97.65,1.51,1.01-.68.05-1.14.04-1.45.11-.7.17-2-.23-2.25.32-.54-.1-1.09-.12-1.65-.01-.04-.12-.22-.28-.08-.37.29-.18.75-.33,1.38-.59-1.88.06-3.28-.02-4.24-.58-.4.69,1.3.99,1.66,1.59-1.26-.11-2.3-.21-3.5-.32-.05.02-.25.12-.42.19-.52-.04-1.03-.08-1.53-.12-.41-.03-1.02-.02-1.2-.12-.31-.16-.17-.37.34-.51.19-.05.28-.15.48-.25-.67-.04-1.18-.06-1.66-.09-.19-.8-2.24-.69-3.57-1.16.16.59.29,1.03.41,1.47.22.14,1.13.15.39.54-.15-.24-.25-.4-.35-.56-.66.11-1.37.19-1.99.34-.92.21-1.51.07-2.01-.2-.19-.11-.26-.25-.36-.35-1.1-.02-1.98.29-3.19.06.42-.26.8-.49,1.21-.75-.36-.08-.63-.15-.93-.19-.31-.03-.65-.03-.97-.04l.05-.02c-.05.67-.79,1.24-2.02,1.77-.4-.1-.81-.2-1.13-.28-.81.61.08.97,1.46,1.21-.15.31-.28.57-.45.92.8-.07,1.39-.12,1.99-.17.15.29.16.56-.63.73-1.37.29-1.15.76-1.11,1.21.05.54,1.21.72,2.48.9-.32.15-.55.26-.81.39-.65-.09-1.25-.17-1.97-.26-.16.54-.32,1.04-.47,1.53-1.86.08-3.6.15-5.34.22.15-.4.27-.74.41-1.13-.23-.06-.62-.15-1-.24l.16-.19c.85-.07,1.69-.14,2.44-.2.33.25.52.4.74.56.71-.09,1.33-.16,2.14-.26-.12-.18-.09-.46-.37-.51-1.24-.24-1.84-.93-3.82-.7,1.63-.36.03-.71.16-1.05.93-.17,1.86-.33,2.66-.48-.45-.45-.79-.79-1.18-1.18-.9-.02-2.28-.27-2.22-.59.08-.43-.72-.46-1.14-.66-.65-.31-1.33-.61-1.92-.94-.39-.22-.68-.44-1.73-.3.11.42.23.85.35,1.27-.64.06-1.22.12-1.9.19-.19.33-.39.67-.55.93-1,.19-1.86.35-2.81.53-.18-.5-.57-.94-2.1-1.04.16-.17.5-.39.38-.43-.97-.34-1.3-.96-3.22-.96.3.27.8.53.79.78-.02.39-.74.6-1.85.54-1.17.61-.22,1.12.59,1.61-1.1.3-2.02.27-2.13-.1-.16-.53-.85-1.11.84-1.61-1.02.06-1.66.11-2.34.15-.18.23-.35.45-.53.68-.55-.06-1.06-.11-1.52-.15-.64.18.02.73-1.45.63.19-.25.36-.48.6-.79-1.12.04-2.02.08-2.83.11-.59-.21-1.17-.42-1.99-.72-.12.4-.2.65-.32,1.03-.95-.28-1.63-.49-2.46-.73-.2.28-.37.51-.54.74-1.02.47-2.34-.09-3.5.19-.25-.31-.44-.55-.67-.85-.78.36-1.5.64-2.04.95-.55.32-1.12.58-2.1.75-1.46.25-1.65.23-1.69-.39,0-.06.03-.11.05-.21-.48.11-.84.19-1.45.33.22-.3.36-.5.5-.7-.45.02-.84.03-1.35.05.12-.34.81-.71-.39-.96-.45.53-1.93.52-2.91.77-1.26.32-2.68-.16-3.84.26-.52-.22-1.34-.43-1.26-.57.14-.25.83-.46,1.29-.69-.86-.6-1-.63-3.79-.81.73.49,1.87.93,1.15,1.58-.61-.11-1.19-.21-1.96-.35.38.33.64.55.94.82-.93.3-1.82.58-2.81.9-.06-.34-.11-.65-.16-.95-.5.31-.5.7-1.03.88-.59.2-1.65.22-2.46.31-.11.22,1.1.34.19.58-.95-.34-1.96-.61-3.46-.45.64-.2,1.27-.4,1.91-.59-.82-.33,1-.43.22-.77h2.58c.04-.17.09-.35.15-.59-.83.05-1.48.08-2.02.11-.77-.15-.14-.62-1.38-.61-.59.36.05,1.01-2.1,1.11-.07-.08-.2-.23-.36-.42-.67.54-1.13.9-1.58,1.26.38,0,.76.01,1.23.02q-.67.17-1.19-.04c-.54-.19-1.09-.38-1.87-.65,0,.35.05.57-.01.78-.06.21-.23.42-.35.62-2.49.03-3.36-.78-4.83-1.05.63-.59,1.49-1.05,1.36-1.72q-1.65.68-2.79.77c.08-.12.16-.23.3-.44-.92.18-1.96-.1-2.62.29,0,0-.84-.14-.82-.17.27-.36.63-.71.9-.99-1.2-.85-3.26-1.2-5.4-1.49-.32.31-.63.62-.94.92l-.06-.02c1.4.63,3.5.34,5.42.53-.24.35-.47.68-.69,1.01-.54.02-.97,0-1.34.05-2.24.29-4.51.41-6.87.28-.29-.02-.81,0-.9.07-.57.42-1.61.27-2.51.31-.1.11-.2.21-.25.27-1-.05-1.95-.11-2.85-.15-.19.21-.31.34-.43.47-.88-.15-1.67-.28-2.46-.41-.09.05-.18.1-.28.15.63.3,1.27.6,2.02.96-.32.16-.66.35-1.12.58-.56-.26-.92-.43-1.41-.66-.55.22-1.05.43-1.62.66-.39-.05-.83-.1-.91-.11-.53-.61-.98-1.13-1.52-1.77-.55.33-.94.55-1.33.79-.11-.22-.42-.26-.96-.23-.1,0-.29-.25-.47-.41-.65.22-1.11.4-1.65.54-.23.06-.85.07-.91.03-.56-.4-2.05-.04-2.61-.44-.04-.03-1.01.04-1.15.13-.46.31-.92.21-1.48.08-.33-.08-.7-.14-.97-.19-1.95.67-3.39.06-4.98-.26-.28.29-.5.51-.65.66-2.31.16-4.45.31-6.68.47-.07-.16-.16-.37-.21-.47-1.32-.03-2.48-.06-3.69-.09-.1.06-.26.16-.42.26-.79-.32-1.84.12-2.66-.1q.12-.99-.29-1.06c-.18.24-.26.51-.56.73-.34.25-1.24.3-1.68.07-1.02-.52-2.39-.63-4.01-.51.3-.63-.72-.8-2.33-.84,1.95-.45,3.57-.83,5.18-1.2-.04-.03-.07-.07-.11-.1-.91.02-1.81.03-2.64.05-.68-.24-1.33-.46-2-.7-.47.27-.87.5-1.27.73.22.05.54.12,1.28.28h-3.02c.38.67.73,1.3,1.06,1.89-.6.09-1.14.17-1.69.25-.71.09-2.97-.31-2.82-.53.41-.6-.63-.4-1.37-.39l.06-.02c-.05.24-.09.49-.14.71-1.33.08-2.57.16-3.93.24-.22-.21-.36-.39-.62-.55-.15-.09-.64-.19-.77-.17-.27.06-.61.22-.54.31.36.49-.57.23-1.19.21.41-.27.83-.54,1.23-.8-1.34-.79-3.19-1.21-5.52-1.07-.61-.26-1.06-.45-1.55-.66-.34.41-.34.89-.98,1.07-.89.25-1.64.51-2.1.97-.22-.19-.32-.27-.42-.36-.8.24-1.55.63-2.66.15ZM387.47,300.07c.65.3.44.45-.92.63-.21-.26.44-.65-.7-.78.14-.1.27-.19.41-.29.55-.34.4-.56-.87-.57.87-.43,1.59-.2,2.34,0,.5-.24.94-.45,1.42-.68.95.51-1.08.93-.03,1.38-.87.26-1.61.19-1.91-.1-.35-.33-.73.03-1.03-.06.43.15.91.29,1.28.46ZM391.42,299.05c-.12-.14-.24-.27-.43-.49.94-.02,1.74,0,2.51-.06.8-.05,1.57-.17,2.07-.23.82.32,1.37.54,2.09.83-.19.04-.58.2-.79.18-1.14-.15-2.08-.15-2.75.28,0,0-.36-.07-.55-.11-.06.08-.14.21-.24.37-.61-.03-1.18-.07-1.75-.1-.07-.24-.15-.47-.22-.7l.07.03ZM227.24,297.44c-1.13-.07-2.13-.12-3.25-.19.22-.45.73-.78,1.81-.93.73-.1,1.58-.24,2.14.17-.23.31-.47.64-.7.95ZM485.1,296.65c.86.02,1.8.03,3.24.06-1,.26-1.81.32-1.98.7-.17.38-1.38.39-2.87.49.63-.49,1.1-.85,1.61-1.25ZM465.26,299.52c.78.32,1.54.62,2.28.92-.6.33-1,.09-1.46.07-.46-.03-.99.1-1.77.2-.09-.34-.17-.65-.25-.97.49-.09.85-.15,1.2-.21ZM393.57,300.32c1.96.21,2.05.29,1.38,1.36-.21-.17-.32-.26-.43-.35-.1-.08-.2-.17-.36-.29-.45.09-.81.17-1.61.33.44-.46.73-.76,1.01-1.05ZM382.75,303.66c-.09-.21-.19-.42-.32-.73,1.3.22,2.4.41,3.65.62-1.35.55-2.28,0-3.32.11ZM415.29,297.87c.9.3,1.65.55,2.4.8-.05.04-.1.08-.16.12-1.04-.05-2.08-.09-3.44-.15.37-.24.72-.46,1.19-.76ZM412.21,299.28c-1.28.28-2.34.46-3.39-.03.66-.24,2.38.01,2.14-.65.15,0,.3,0,.45.01.27.22.54.45.8.66ZM455.56,303.36c-.19-.09-.5-.28-.47-.28.56-.16,1.14-.32,1.78-.42.22-.04.75.07.93.17.1.05-.16.25-.4.32-.42.12-.95.18-1.35.25-.24-.01-.43,0-.49-.03ZM390.02,301.75c.7-.37.42-.82,1.61-1.11.12.36.25.71.38,1.11h-1.99ZM507.83,293.17c-1.55.26-3.07.07-4.59-.07,1.59-.36,3.07-.04,4.59.07ZM450.45,298.29q.47-.53,1.85-.43c-.58.14-1.16.27-1.85.43ZM103.02,295.61c-1.03-.02-1.73-.04-2.43-.05,0-.06.01-.12.02-.18.82-.22,1.55-.24,2.41.24ZM242.58,297.03c-.2-.26-.33-.45-.61-.82.92.15,1.39.22,2.04.33-.54.19-.87.3-1.43.49ZM453.9,297.45c.1-.07.14-.13.21-.13.85-.06,1.62-.07,1.33.5-.69-.16-1.11-.27-1.53-.37ZM407.77,295.55c.51.15,1,.26.74.57-.79-.09-1.34-.19-.74-.57ZM392.19,301.99s.25.13.21.18c-.21.25-.7.27-1.46,0,.42-.06.83-.13,1.26-.18ZM498.56,299.84c-.04-.06-.08-.12-.12-.18.59-.05,1.18-.11,1.77-.16.04.06.08.13.13.19-.59.05-1.18.1-1.77.15ZM245.28,297.44c-.35.1-.52.17-.73.19-.29.03-.6,0-1.23,0,.65-.42,1.15-.4,1.96-.2ZM383.99,300.44s.48-.06.49-.05c.12.12.21.24.31.37-.2.02-.4.05-.6.07-.07-.13-.16-.26-.2-.39ZM407.83,301.14q.71.22-.07.55c.03-.22.05-.36.07-.55ZM395.71,296.6c-.09-.03-.26-.06-.24-.08.05-.07.15-.13.24-.19.09.03.18.06.31.1-.1.06-.2.11-.3.17ZM408.7,296.71c-.07-.01-.13-.03-.2-.04.14-.09.27-.17.41-.26.08.02.16.04.23.05-.15.08-.3.17-.45.25ZM387.93,297.19s-.2-.04-.3-.07c.17-.1.34-.2.52-.3.1.02.19.05.29.07-.16.1-.32.2-.5.3ZM448.95,297.22s.36-.13.39-.12c.19.06.36.13.47.21.02.01-.22.08-.45.16-.19-.1-.37-.17-.42-.25ZM487.68,298.9s0-.07,0-.1h1.5s0,.07-.01.1h-1.48Z" fill="#161616" stroke-width="0"></path><path d="M317.55,295c0,.12-.1.33.04.36,1.74.32.86.81.79,1.36-2.82-.44-4.97-1.13-7.41-1.65.51-.27.78-.47,1.73-.43.67.03,1.4-.13,2.26-.22.3.57,1.34.68,2.66.61,0,0-.06-.02-.06-.02Z" fill="#161616" stroke-width="0"></path><path d="M463.28,295.6c-1.69.14-2.15-.13-2.35-.56-.09-.19-.48-.35-.64-.54-.1-.12-.02-.26.31-.46.5.21.93.45,1.51.63.58.18,1.31.29,2.28.5,0,.06.04.25,0,.43-.07.26-.27.52-.31.79-.05.29-.52.43-1.16.37-.27-.03-.52-.32-.49-.48.04-.18.42-.35.85-.68Z" fill="#161616" stroke-width="0"></path><path d="M462.02,297.3c-.55.32-.9.52-1.34.77-1.24-.68-.87-1.54-2.64-2.05.11-.18.24-.39.38-.63.21.02.44,0,.54.04.41.15.72.35,1.19.47.37.09.92.09,1.43.14-.52.3-1.01.57-1.51.85.29.26.55.52,1.95.4Z" fill="#161616" stroke-width="0"></path><path d="M306.41,295.62c-.94-.14-1.91-.29-2.74-.41-.12-.12-.21-.17-.19-.21.35-.81.75-.87,2.54-.35,1.38.39,1.38.4.39.98Z" fill="#161616" stroke-width="0"></path><path d="M499.67,291.81q-1.51.48-1.63,1.04c-.32,0-.65.02-.97,0-.67-.04-1.53-.09-1.38-.41.13-.27.46-.59,1.45-.63.72-.02,1.45,0,2.53,0Z" fill="#161616" stroke-width="0"></path><path d="M412.29,292.45c1.24.34,1.97.76,1.68,1.34-.06.12-.4.28-.7.3-.29.03-.81-.05-1-.14-.26-.13-.5-.34-.38-.47.29-.34-.82-.75.39-1.03Z" fill="#161616" stroke-width="0"></path><path d="M307.74,295.73h3.54c-.81.52.92.57.9.9-2.31.15-3.3-.04-4.44-.9Z" fill="#161616" stroke-width="0"></path><path d="M390.32,293.23c.33-.13.59-.24.97-.39.52.3.96.55,1.5.87.2-.15.36-.26.51-.38.09,0,.18,0,.26,0,.02.2.15.4,0,.58-.11.13-.57.31-.9.32-.45.01-1.1-.07-1.36-.2-.44-.21-.64-.49-1-.79Z" fill="#161616" stroke-width="0"></path><path d="M515.75,300.52c-1.53.18-3.02.45-4.59.52-1.25.06-2.59-.13-4.28-.23,3.21-.16,6.02-.3,8.82-.44.02.05.03.1.05.16Z" fill="#161616" stroke-width="0"></path><path d="M403.03,292.91c.15-.07.43-.2.74-.33.84.19,1.6.36,2.36.53q-1.21.68-2.38.86c-.22-.32-.44-.65-.71-1.05Z" fill="#161616" stroke-width="0"></path><path d="M283.25,296.59c-.1-.23-.23-.52-.36-.82,2.23-.11,2.43-.06,2.23.53.25-.03.49-.06.86-.1-.07.15-.13.28-.19.41.31.08.61.15.91.23-.05.04-.1.08-.15.12-1-.11-2.01-.22-3.3-.36Z" fill="#161616" stroke-width="0"></path><path d="M279.62,295.68c-1.62-.54-1.75-.69-1.13-1.65.38.22.9.39.93.57.1.5.82.54,1.9.46.28-.02.6.03.91.05.01.05.03.1.04.15-.51.03-1.04.04-1.52.11-.38.05-.69.18-1.13.3Z" fill="#161616" stroke-width="0"></path><path d="M286.69,294.27c1.21.34,2.2.62,3.19.89-.2.35-.69.53-1.71.44-1.12-.1-1.65-.52-1.48-1.34Z" fill="#161616" stroke-width="0"></path><path d="M298.75,295.64c1.59-.09,2.3.22,3.21.48-.38.07-.7.13-1.19.22.45.13.82.23,1.21.34-1.46.3-1.57.3-2.18-.11-.4-.27-.66-.57-1.06-.93Z" fill="#161616" stroke-width="0"></path><path d="M353.08,293.18c.87.28,1.74.56,2.6.84-1.68.44-1.91.45-2.54.17-.92-.42-.9-.67-.06-1.01Z" fill="#161616" stroke-width="0"></path><path d="M364.84,294.38c.68.36,2.57.37,2.37,1.1-.11.39-1.04.33-1.1.76-.51-.74-.88-1.3-1.26-1.86Z" fill="#161616" stroke-width="0"></path><path d="M298.48,295.13c-1.07.12-2.14.24-3.42.38.16-.55-.91-.96-.38-1.5,1.11.65,1.72,1,3.8,1.11Z" fill="#161616" stroke-width="0"></path><path d="M382.81,293.49c-.47.29-.93.57-1.51.94-.49-.29-1.11-.53-1.26-.8-.11-.2.41-.44.69-.71.77.21,1.42.39,2.08.57Z" fill="#161616" stroke-width="0"></path><path d="M428.1,292.83c1,.2,1.86.37,2.71.55.61.13.6.14.04.55-.82-.32-1.75-.47-2.73-.08-.99-.4.04-.68-.01-1.01Z" fill="#161616" stroke-width="0"></path><path d="M470.51,293.29c-1.69-.62-1.7-.69-.32-1.53.22.18.36.33.57.46.23.14.52.27.81.43-.27.17-.67.4-1.06.64Z" fill="#161616" stroke-width="0"></path><path d="M476.2,294.64c-.43.15-.8.32-1.28.4-.14.02-.69-.18-.89-.31-.25-.17-.47-.37-.43-.56.03-.12.5-.25.84-.33.06-.02.5.14.7.23.34.16.62.33,1.06.56Z" fill="#161616" stroke-width="0"></path><path d="M514.37,298.45c-1.13.18-2.13.42-3.57.2-.85-.13-1.96-.02-2.98-.02,0,0-.03-.02-.03-.04,0-.02.04-.06.07-.06,2.15-.1,4.3-.19,6.44-.28.02.07.04.14.06.2Z" fill="#161616" stroke-width="0"></path><path d="M457.93,292.33c.59.33,1.06.58,1.56.86-.23.12-.39.28-.69.35-.28.07-.83.11-1.05.05-.32-.08-.68-.28-.63-.4.11-.27.48-.52.81-.86Z" fill="#161616" stroke-width="0"></path><path d="M332.04,297.02c-.66.36-1.29.71-1.94,1.07-1.28-.36.34-.52.15-.79-.17-.23-.16-.48-.27-.85.96.27,1.55.43,2.06.57Z" fill="#161616" stroke-width="0"></path><path d="M500.15,302.48c2.02-.18,3.22.02,4.37.54-1.79.14-3.04,0-4.37-.54Z" fill="#161616" stroke-width="0"></path><path d="M420.85,292.66c.78.23,1.42.43,2.11.63-1.69.33-2.41.32-3.41-.03.37-.17.74-.35,1.3-.61Z" fill="#161616" stroke-width="0"></path><path d="M361.2,292.99c.52.38.91.67,1.36,1.01.32-.05.65-.1,1.01-.16-.08.08-.12.19-.21.2-.84.06-1.7.1-2.65.15-.46-.43,0-.75.5-1.19Z" fill="#161616" stroke-width="0"></path><path d="M336.63,294.05c-.76.24-1.24.38-1.97.14-.85-.28-.59-.56-.24-.88,1.45-.03,1.24.54,2.21.74Z" fill="#161616" stroke-width="0"></path><path d="M487.52,295.03c-1.58.68-1.94.74-2.94.56-.25-.05-.55-.17-.56-.26,0-.08.33-.23.56-.24.82-.04,1.66-.04,2.94-.06Z" fill="#161616" stroke-width="0"></path><path d="M326.16,294.52c.14-.28.28-.56.4-.82.92.03,1.79.05,2.79.08-.53.48-1.98.53-2.84.85-.12-.04-.24-.07-.36-.11Z" fill="#161616" stroke-width="0"></path><path d="M290.89,295.6c.96.27,1.93.55,3.01.85-.38.12-.67.21-1.06.33-.78-.26-2.02-.38-1.57-.92.02-.03-.39-.1-.6-.16.07-.04.14-.07.22-.11Z" fill="#161616" stroke-width="0"></path><path d="M246.97,295.7c-.38-.31-.71-.57-1.1-.88,1.34-.12,1.49.58,2.67.42.06.57-.99.38-1.57.47Z" fill="#161616" stroke-width="0"></path><path d="M509.77,294.77c-1.12-.1-2.25-.21-3.71-.34,2.25-.09,4.15-.1,6.4.23-1.21.04-1.98.07-2.76.1,0,0,.07.02.07.02Z" fill="#161616" stroke-width="0"></path><path d="M338.64,294.54c.89.2,1.68.38,2.83.64-.99.13-1.49.36-2.1.17-.55-.18-1.1-.41-.73-.81Z" fill="#161616" stroke-width="0"></path><path d="M255.19,295.17c-.63.06-1.12.1-1.87.17-.08-.32-.16-.61-.23-.89.11,0,.22-.02.33-.03.55.23,1.1.47,1.77.75Z" fill="#161616" stroke-width="0"></path><path d="M489.39,292.53c-1.59.18-.23.43-.1.65-1.01.23-1.24-.09-1.65-.31.34-.21.67-.41,1.09-.68.24.13.43.24.62.34h.04Z" fill="#161616" stroke-width="0"></path><path d="M448.67,292.29c1.14.69,1.02.78-.84.96.25-.29.5-.57.84-.96Z" fill="#161616" stroke-width="0"></path><path d="M270.8,295.31c-1.88-.3-1.73-.79-1.51-1.32.56.36.56.81,1.7,1.01.05,0-.1.17-.2.32Z" fill="#161616" stroke-width="0"></path><path d="M357.94,295.6c-.53-.45-.46-.67.31-.72.32-.02.74.15,1.3.28-.71.2-1.15.32-1.61.45Z" fill="#161616" stroke-width="0"></path><path d="M504.24,304.13c.84-.06,1.68-.11,2.66-.18-.66.55-.69.55-2.66.18Z" fill="#161616" stroke-width="0"></path><path d="M371.58,293.86c-1.47.08-1.54.05-1.68-.69.97.12,1.01.47,1.68.69Z" fill="#161616" stroke-width="0"></path><path d="M509.75,302.06c.96.06,2.01-.12,3,.16-1.46.16-1.81.15-3-.16Z" fill="#161616" stroke-width="0"></path><path d="M275.68,295.69c-.28.26-.49.46-.7.65-1.14,0-1.02-.27-.93-.6.48-.02.97-.03,1.62-.05Z" fill="#161616" stroke-width="0"></path><path d="M502.15,303.86c-1.11.06-2.23.12-3.34.18-.02-.06-.05-.12-.07-.18,1.12-.06,2.23-.11,3.35-.17l.07.17Z" fill="#161616" stroke-width="0"></path><path d="M376.27,295.93c-1.1-.21-1.92-.35-1.76-.89.66.31,1.67.36,1.76.89Z" fill="#161616" stroke-width="0"></path><path d="M479.42,292.84c.17-.3.29-.51.46-.8.43.24.74.42,1.17.66-.59.05-1.01.08-1.63.14Z" fill="#161616" stroke-width="0"></path><path d="M366.82,296.77q.12-.52,1.95-.47c-.65.16-1.17.28-1.95.47Z" fill="#161616" stroke-width="0"></path><path d="M265.85,296.22c.51-.05,1.03-.1,1.66-.16-.54.26-.94.44-1.61.76v-.62l-.05.02Z" fill="#161616" stroke-width="0"></path><path d="M508.29,301.83h-2.61s-.01-.06-.02-.09h2.55s.05.06.08.09Z" fill="#161616" stroke-width="0"></path><path d="M343.55,293.68c-.4.19-.8.39-1.2.58.3-.23-.17-.64,1.2-.58Z" fill="#161616" stroke-width="0"></path><path d="M167.45,295.34c-.92.13-1.33.03-1.58-.32.82-.05,1.31,0,1.58.32Z" fill="#161616" stroke-width="0"></path><path d="M330.25,295.42h1.73c-.1.12-.1.21-.22.25-.55.17-.96.08-1.51-.25Z" fill="#161616" stroke-width="0"></path><path d="M252.82,296.65h-1.82c.7-.25,1.05-.38,1.76-.63,0,.35,0,.5,0,.66,0,0,.06-.02.06-.02Z" fill="#161616" stroke-width="0"></path><path d="M505.83,303.1h2.18c-.95.32-1.56.23-2.18,0Z" fill="#161616" stroke-width="0"></path><path d="M483.21,294.91c-.09-.21-.16-.36-.27-.63.48.1.73.12.88.18.65.25-.02.3-.6.45Z" fill="#161616" stroke-width="0"></path><path d="M438.61,293.04c-.11-.24-.17-.39-.24-.54.26,0,.43-.03.49,0,.4.15.65.3-.25.55Z" fill="#161616" stroke-width="0"></path><path d="M507.67,292.3h-2.36c.77-.37,1.35-.17,2.36,0Z" fill="#161616" stroke-width="0"></path><path d="M363.29,296.97c-.34-.02-.68-.02-1-.06-.05,0-.02-.12-.03-.19.37.02.74.03,1.12.05-.03.07-.06.13-.09.2Z" fill="#161616" stroke-width="0"></path><path d="M348.13,294.82c.39.11.79.22,1.18.34-.07.04-.14.08-.21.12-.44-.09-.87-.18-1.31-.28.11-.06.22-.12.33-.18Z" fill="#161616" stroke-width="0"></path><path d="M407.66,294.28q-1.2-.15-.72-.64c.3.29.48.48.67.66,0,0,.05-.02.05-.02Z" fill="#161616" stroke-width="0"></path><path d="M489.35,292.55c.66,0,1.33,0,1.99.01-.85.41-1.31.03-1.94-.02,0,0-.05.01-.05.01Z" fill="#161616" stroke-width="0"></path><path d="M375.56,294.7c.4.11.79.23,1.19.34-.05.03-.1.06-.16.08-.43-.1-.86-.19-1.29-.29.09-.05.17-.09.26-.14Z" fill="#161616" stroke-width="0"></path><path d="M265.9,296.2c-.39-.04-.79-.08-1.44-.15,1.06-.23,1.11.05,1.39.17,0,0,.05-.02.05-.02Z" fill="#161616" stroke-width="0"></path><path d="M255.6,295.47c.29-.1.57-.19.86-.29.08.03.16.07.25.1-.31.09-.62.17-.92.26-.06-.02-.12-.05-.18-.07Z" fill="#161616" stroke-width="0"></path><path d="M124.96,295.49c-.35-.07-.69-.14-1.04-.21.03-.03.07-.06.1-.08.38.05.76.11,1.14.16-.07.05-.14.09-.21.14Z" fill="#161616" stroke-width="0"></path><path d="M451.08,294.31c.19-.14.39-.29.58-.43.13.02.27.05.4.07-.2.14-.41.29-.61.43-.13-.02-.25-.05-.38-.07Z" fill="#161616" stroke-width="0"></path><path d="M378.86,296.09c-.14.04-.27.1-.42.11-.09,0-.21-.07-.32-.11.15-.04.3-.08.47-.11.03,0,.15.06.27.11Z" fill="#161616" stroke-width="0"></path><path d="M391.42,299.05c.18-.28.61-.23,1.1-.03-.39,0-.78,0-1.17,0,0,0,.07.03.07.03Z" fill="#161616" stroke-width="0"></path><path d="M519.05,306.44s-.07.02-.11.04q-.42.26-.86-.25c.39-.11.83-.1,1.12-.42.05-.06.27.07.41.1-.13-.48-.49-.68-.89-.93-.3.57-.86-.01-1.35-.02.19.36.36.67.55,1.02-.11.2-.23.4-.36.63-.37-.21-.79.06-1-.47-.25.04-.45.07-.65.09-.19.02-.39.01-.59.02.41.99.3.99,1.25,1.03.07.17.18.34-.03.45-.34.18-.63.46-1.12.12-.1-.07-.25-.01-.37-.04-.23-.06-.46-.15-.78-.26-.02.02-.13.11-.23.19l.02-.34c-.33,0-.66,0-.97,0,0,.13-.01.28-.02.42.12.11.25.2.36.32.55.62,1.03.69,1.48.22.09-.1.2-.21.33-.36.13.28.23.47.32.67-.73.57-1.66.42-2.56.4-.15-.14-.31-.29-.42-.39-.2.11-.35.25-.53.27-.2.02-.43-.07-.66-.11.46,1.12-.21,1.11-.85,1.15.14.17.22.26.32.37-.1.06-.17.11-.2.13-.27-.18-.49-.34-.74-.51q.05.82-.63.83c-.08,0-.18,0-.23.05-.21.22-.49.11-.77.04-.05-.01-.1.01-.23.04.14.09.22.12.29.18.08.07.16.15.23.22-.32.68-.31.69-.96.74-.34.03-.69,0-1.03.01-.02,0-.04.06-.05.08.14.12.28.23.44.37-.15.07-.34.1-.33.16.03.66-.57.7-.77,1.17-.17-.2-.27-.33-.38-.46-.2-.22-.57-.24-.55-.03.15.06.3.13.48.2-.02.43-.31.45-.56.47-.36.02-.59.17-.57.68-.27-.3-.48-.53-.73-.35.05.31.1.63.16.98-.14.07-.4.09-.42.22-.09.5-.5.45-.84.54-.19.05-.37.15-.57.14-.2,0-.12.46-.45.22-.03-.02-.2.3-.32.45-.03.05-.09.07-.14.09-.48-.37-.84-.49-.92-.3.08.13.17.26.26.39-.06.06-.1.1-.15.13-.45.26-1.14.23-1.12,1.06,0,.03-.04.07-.08.09-.17.09-.22.34-.55.22-.18-.07-.41.23-.6.36-.25-.22-.41-.56-.69-.37.09.15.18.29.33.54-.58.13-1.11.24-1.66.37.11.1.21.2.33.32-.37.34-.68.72-1.09.97-.4.24-.75.7-1.39.42-.07-.03-.16.08-.25.13.13.11.21.18.27.22-.29.39-.57.78-.87,1.16-.08.1-.23.25-.32.21-.32-.12-.45.09-.65.2-.41.22-.55.23-1.2.1-.16-.03-.33-.04-.59-.07.17.2.27.31.37.42-.37.45-1.17,0-1.46.67.25-.02.43-.04.61-.05l.03.09c-.28.22-.57.45-.84.66-.41-.52-.63-.09-.93-.1q.19.51-.48.81c-.04-.08-.09-.16-.12-.22-.78.33-1.32.99-2.13,1.26-.49.16-.88.56-1.3.86-.73.52-1.44,1.09-2.2,1.58-.41.26-.91.4-1.37.59.54.26-.02.78.49.94-.56.45-1.07.87-1.58,1.28q-.31-.34-.94.17c.03.1.03.26.1.33.42.41.47,1.09,1.02,1.41.07.04.13.22.13.32,0,.73.62,1.11.95,1.65.41.05.59.49.67.76.15.5.42.94.65,1.38.26.48.36.99.66,1.47.27.42.75.66.86,1.18,0,.03.07.08.11.09.24.09.34.29.47.51.09.16.31.3.48.34.85.23,1.5-.18,1.7-1.04.11-.47.27-.54.74-.45.27.05.57.1.79,0,.74-.31,1.46-.68,2.18-1.05.15-.08.31-.2.38-.36.24-.56.88-.57,1.21-1,.04-.05.15-.05.23-.05.45.03.71-.23.89-.6.13-.25.28-.38.61-.38.22,0,.43-.24.59-.42.14-.16.22-.39.49-.37.43.03.65-.24.85-.56.09-.15.2-.33.35-.37.33-.08.53-.28.77-.5.2-.19.6-.13.91-.18.02,0,.04-.02.05-.03.36-.35.66-.78,1.25-.79.11,0,.18-.19.25-.32.08-.14.16-.29.21-.45.09-.27.25-.39.55-.34.39.06.62-.19.88-.4.49-.4,1.04-.73,1.57-1.08.04-.03.12-.01.18-.01.33,0,.54-.2.77-.4.18-.16.41-.31.65-.34.48-.06.83-.28,1.03-.71.13-.26.31-.38.59-.44.6-.13,1-.65,1.66-.68.12,0,.22-.16.31-.26.26-.31.58-.51.97-.64.32-.11.57-.39.84-.61.2-.16.34-.47.56-.49.54-.06.82-.43,1.12-.8.11-.13.24-.26.39-.33.43-.2.84-.42,1.09-.87.06-.11.2-.21.32-.22.56-.02.91-.33,1.19-.78.09-.15.23-.29.39-.33.48-.12.86-.38,1.16-.77.09-.12.24-.2.38-.27.41-.22.87-.37,1.11-.83.03-.06.12-.12.19-.12.72.01,1.13-.43,1.43-1.02.12-.23.29-.3.56-.23.37.09.64-.03.84-.32.26-.38.57-.72.89-1.12.57.3.96.04,1.28-.4.15-.21.3-.44.48-.61.1-.1.29-.2.41-.15.68.31,1.08.02,1.47-.39.2-.21.45-.44.73-.47.53-.06.83-.4,1.16-.74.11-.11.23-.24.37-.26.54-.04.84-.38,1.11-.81.09-.15.28-.28.46-.29.47-.05.83-.22,1.09-.62.14-.21.34-.46.57-.48.75-.08,1.21-.53,1.59-1.13.07-.11.19-.25.3-.24.7.08,1.03-.42,1.41-.85.23-.26.53-.51.86-.57.47-.08.8-.31,1.06-.68.23-.32.53-.51.88-.67.41-.18.77-.47,1.09-.78.19-.19.35-.29.65-.3.55-.02,1.05-.15,1.37-.68.12-.2.27-.39.45-.56l2.08-2c2.71-2.61,2.79-6.92.19-9.63-.66-.68-1.45-1.21-2.27-1.56-.22-.09-.42-.21-.6-.36-.33-.28-.68-.44-1.11-.49-.18-.02-.36-.08-.49-.18-.39-.31-.84-.47-1.32-.59-.2-.05-.37-.23-.48-.41-.25-.4-.65-.54-1.07-.68-.33-.11-.67-.24-.94-.45-.35-.27-.69-.5-1.18-.47-.31.02-.54-.1-.65-.42-.2-.55-.65-.77-1.15-.95-.25-.09-.51-.23-.66-.46-.34-.54-.87-.73-1.45-.86-.37-.08-.82-.11-.92-.56-.15-.64-.64-.79-1.13-.81-.49-.02-.68-.26-.84-.67-.09-.22-.25-.43-.45-.53-.33-.15-.72-.18-1.06-.31-.25-.1-.45-.29-.68-.44-.19-.13-.36-.32-.58-.38-.51-.15-1.05-.24-1.59-.36-.05-.16-.06-.42-.18-.52-.38-.28-.79-.5-1.34-.43-.33.04-.65,0-.99-.02,0-.21,0-.38-.03-.52-.03-.14-.06-.33-.16-.37-.54-.22-1.07-.54-1.66-.56-.46-.02-.68-.21-.89-.51-.06-.09-.13-.2-.2-.3-.23.12-.45.24-.69.37-.1-.16-.16-.32-.27-.43-.26-.26-.28-.8-.77-.8-.5,0-.71-.34-.78-.83-.01-.11-.05-.21-.06-.27-.42-.12-.82-.18-1.16-.35-.25-.13-.48-.36-.6-.62-.11-.23-.25-.33-.46-.41-.45-.16-.94-.24-1.22-.68-.39-.62-.98-.94-1.66-1.15-.33-.1-.71-.23-.88-.51-.16-.25-.35-.24-.57-.3-.55-.16-1.18-.25-1.58-.62-.47-.43-.96-.71-1.58-.85-.32-.07-.68-.16-.79-.56-.12-.47-.46-.68-.87-.71-.67-.05-1.04-.46-1.36-.99-.58,0-1.1-.11-1.49-.57-.18-.21-.5-.29-.79-.33-.4-.05-.69-.18-.7-.67,0-.11-.06-.2-.1-.33-.73.17-1.25-.19-1.71-.56-.59-.48-1.3-.73-1.97-1.05-.26-.12-.49-.22-.59-.53-.04-.13-.24-.26-.36-.22-.41.12-.66-.08-.96-.22-.83-.39-1.5-.99-2.19-1.58-.34-.29-.77-.46-1.14-.7-.39-.26-.78-.52-1.14-.81-.2-.16-.34-.39-.75-.25.28.58.59,1.09,1.01,1.52.21.22.51.5.49.8-.02.35.14.44.26.63l.76.56-.09.12-.67-.69c-.26.39-.55.43-.84.24-.17-.1-.32-.23-.48-.33-.32-.19-.64-.35-1.07-.03.1.63.03,1.33.58,1.75-.43.11-.6-.11-.77-.29-.25-.28-.59-.03-.89-.03-.34,0-.33.36-.41.44-.34.05-.68-.02-.8.12-.36.45-.63.22-.96.26-.53.06-.9-.14-1.27-.38-.07-.04-.18-.02-.28-.02l-.05.09c.15.13.3.26.45.38-.22.76-.35.85-.75.43-.33-.35-.66-.64-1.19-.65-.13,0-.23-.14-.36-.2-.15-.07-.31-.14-.53-.23-.03.59-.05,1.1-.07,1.71.02.02.12.08.18.18.24.37.72.52.79,1.06v-.02c.1.04.23.06.32.14.34.29.72.56.98.93.16.22-.02.69.3.84-.17.3-.35.4-.57.29-.15-.09-.3-.18-.44-.29-.27-.24-.57-.52-.85-.76-.75.57-1.12.04-1.63-.11.76.65,1.52,1.3,2.33,1.99-.19.1-.29.16-.4.21v.12c.28-.03.56-.07.88-.11,0-.22,0-.37,0-.56.34.07.64.13,1,.21.1-.46.17-.84.25-1.23.38.16.77.32,1.18.5-.03.72.01.77.88.85.06-.22.11-.45.17-.7.54-.14,1,.21,1.55-.11.06-.04.17.08.25.13.08.05.16.17.24.16.48-.1.39.27.38.57.19.02.38.03.52.04-.08.29-.14.5-.2.71.59.09.61-.6.96-.73.02-.26.03-.48.04-.72.34,0,.27.22.23.43-.04.24-.14.49.04.69.29.31.54.67.82,1.02-.27.21-.52.4-.37.74.21.01.29-.61.54-.25-.04.13-.09.25-.16.45.21-.11.33-.17.45-.24.12-.08.23-.17.34-.27.26-.26.53-1.09.36-1.16-.52-.22-.09-.56-.03-.86.25.01.45.06.66.02.24-.04.45-.19.51-.5.05-.22.01-.44-.19-.38-.42.15-.63-.21-.97-.22-.06,0-.09-.13-.13-.2.23-.01.38.08.54.12.17.04.36.06.53-.18.32-.44.64-.39.95-.19.14.09.27.2.44.32.45-.47.77-1.12,1.4-1.29.07-.02.13-.18.19-.28.34.35.32.48-.07.82-.08.07-.19.24-.17.33.05.35-.17.41-.38.42-.17.01-.33-.05-.56-.09.01.6-.3.98-.74,1.33.25.11.45.2.65.28-.21.48-.49.33-.71.34-.34.02-.67-.04-.97-.06-.18.27-.31.47-.5.77.35.35.38,1.05,1,1.19.28-.39.53-.73.8-1.1.05-.18-.38-.27.04-.65.19.39.37.77.62,1.28.1-.55.17-.96.25-1.45.16-.03.38-.15.5-.09.3.15.5.01.7-.3-.03-.1-.07-.21-.14-.42.36-.03.63-.07.88-.05.1,0,.23.13.23.23,0,.59.43.7.8.93-.6.22-1.16.42-1.78.65.13.23.22.4.35.63-.29-.1-.51-.17-.75-.25-.42.59-.42,1.22-.39,1.83.11,0,.21,0,.41.01-.24.26-.39.43-.53.58-.04.32.01.66-.13.9-.27.48-.1.81-.1,1.34.25-.37.4-.61.56-.85-.09-.33-.11-.65-.07-.99.03-.19.42-.28.39-.19-.13.37.33.43.16.8-.05.1.03.25.06.49.36-.45.47-.06.75.05.03-.3.04-.52.07-.85.17.14.28.23.41.33.1-.19.16-.31.23-.44l.08.02c-.03.36-.06.72-.09,1.07.42-.27.48-.25.49.17,0,.2-.03.41-.06.62,0,.03-.06.06-.09.09-.13-.07-.26-.13-.39-.2-.27.72-.27.77.07,1.14.24-.36.47-.72.72-1.09.39,0,.17.7.68.64.03-.35.15-.67.66-.74-.11.36-.2.66-.31,1.03.21-.14.34-.22.38-.25.34.22.62.41.97.64-.23.23-.46.46-.72.72.15.16.1.55.39.64.07-.37.12-.7.19-1.09.19.07.3.15.41.14.26-.03.35.51.72.09.08.17.2.28.39.27-.06.11-.1.27-.18.32-.17.11-.36.15-.65.27.49.25.78.54.71,1.16.48-.51.23-1.03.48-1.6.24.3.44.54.67.82.03-.01.12-.06.21-.09.1.12.2.23.3.35.08.09.23.18.23.29-.02.19-.16.34-.36.37-.07.01-.15.08-.26.14.14.14.25.24.35.34-.39.7.16.93.23,1.54.28-.52.5-.91.71-1.29.02-.15-.19-.3.2-.52-.1.23-.16.38-.23.53.22.01.44.06.67.03.34-.03.41.18.38.49-.01.12-.07.25-.11.35.25.19.64.07.81.46-.24.15-.46.29-.71.43.05.12.07.23.12.3.05.08.14.12.21.19h-.02c.38-.54.87-.9,1.46-1.15.04.15.08.3.12.41.53-.38.51-.82.31-1.25.21-.24.38-.43.61-.7-.23-.07-.4-.12-.57-.18.12-.27.27-.5.55-.51.49-.02.7-.45.93-.84.28-.46.1-.79-.11-1.14.16-.08.28-.13.41-.2.11.18.21.34.33.53.33-.42.65-.82.95-1.2.49.23.95.45,1.41.66-.25.31-.47.57-.72.88.03.08.07.22.11.36l-.14.13c-.24-.08-.49-.15-.7-.22.06-.26.09-.42.13-.59-.22-.04-.41-.07-.66-.12-.07.17-.23.4-.19.49.17.39-.07,1.07.54,1.19-.59.04-.4.59-.61.85-.32,0-.63-.02-.9-.02-.14.44-.24.79-.36,1.17.2.16.4.59.21.84-.26.35-.08.5-.09.73-.01.36-.01.72-.05,1.09-.02.24-.08.48.25.53.2-.37.41-.75.61-1.12.19.05.36.09.57.14.23-.25.46-.49.65-.69.35,0,.64,0,.97,0-.23.45-.38.88-.07,1.21-.13.11-.33.24-.33.3.05.44-.21,1.01.25,1.31.08-.28.1-.57.24-.78.22-.32.51-.38.74-.16.62-.32.67-.9.74-1.44.43-.08.63.1.46.42-.25.47-.4,1.06-1.09,1.21.28.11.46.18.65.25.17-.17.33-.32.5-.49.1.13.2.26.28.37.25-.05.4-.62.7-.29-.18.18-.35.34-.58.57.29.14.53.26.74.36.03.27.05.54.09.92.25-.31.4-.51.64-.81.07.39.13.67.19,1,.2-.2.37-.37.54-.53.51-.23.52.44.95.39-.11.3-.2.53-.3.82.39-.18.71-.29,1.02-.47.31-.18.59-.31.92-.29.49.02.52.07.19.6-.03.05-.07.09-.12.16.17-.01.31-.02.53-.04-.22.22-.36.36-.51.51.12.06.22.11.36.17-.22.27-.58.46-.43.86.4-.37.75-.13,1.13-.18.48-.07.56.56,1.07.39,0,.27.09.57,0,.68-.17.19-.45.25-.69.37-.12.64-.1.69.47,1.28.09-.53.06-1.08.59-1.5.09.19.17.36.28.6.09-.34.15-.56.22-.83.39-.1.76-.2,1.17-.3-.17.29-.33.56-.49.82.29-.18.5-.5.73-.57.25-.08.52.08.76.13.15-.17-.08-.46.27-.51.04.44.14.82.59.93l-.79.19c.02.41-.48.2-.48.61-.25-.16-.43-.28-.62-.41-.1.13-.22.28-.36.47.23.09.4.17.55.22.11.24-.31.54,0,.73.34-.2.54-.85,1.11-.59-.03.08-.08.23-.15.41.46-.35.77-.58,1.08-.81-.09-.07-.18-.13-.29-.21q.26-.04.27.22c.03.24.06.49.1.84.19-.29.3-.48.43-.65.13-.17.29-.31.42-.46.62.37.39,1.18.59,1.65-.48.4-.94.64-1.27,1.22q.77-.3,1.09-.2c-.08.08-.16.17-.31.32.32,0,.42.4.79.18,0,0,.12.25.1.28-.26.26-.54.49-.76.68-.18.9.13,1.52.49,2.1.25-.21.49-.42.74-.62v.03c.01-.75-.66-.84-1.02-1.3.25-.26.49-.5.72-.73.14.07.23.15.35.17.7.11,1.32.37,1.81.86.06.06.2.12.26.08.37-.26.54.03.78.14.08-.07.16-.15.21-.18.21.2.41.4.6.58.16-.14.26-.23.36-.32.13.26.25.5.37.73l.15-.08c.01-.35.02-.7.04-1.12.17-.09.35-.18.59-.31,0,.31-.02.51-.03.78.26-.1.49-.19.76-.3.07.1.15.21.16.23-.21.6-.38,1.1-.6,1.72.31-.18.53-.31.76-.45-.09.2-.04.28.11.35.03.01-.07.26-.11.42.28-.08.49-.16.7-.19.09-.01.25.07.24.12-.08.42.47.36.39.79,0,.01.04.03.09.05v-4.15c-.06.07-.13.17-.12.23.06.33-.1.32-.31.3-.12-.01-.25,0-.34,0-.1.87-.79.59-1.35.57.09.28.16.5.2.65-.47.5-.9.97-1.36,1.45-.11-.12-.24-.28-.31-.36-.34.18-.63.35-.94.51,0,.07.03.18.04.28-.36-.14-.38.39-.7.34q-.52-.85-.65-.84c.09.23.22.46.26.7.06.27-.14.45-.37.33-.53-.27-.92-.15-1.25.21-.27-.58-.61-.55-1.03-.34.22-.69.41-1.26.59-1.83l-.08-.06c-.21.16-.42.32-.61.46-.3-.09-.58-.18-.87-.26.04.3.07.56.1.81.08,0,.2.01.47.03-.3.2-.48.32-.73.48.46.5.89.97,1.29,1.41-.1.17-.18.33-.27.47-.12.19-.89.22-.97,0-.23-.57-.37-.23-.55-.11v-.03c.12.21.25.42.36.61-.28.28-.54.54-.82.82-.17-.14-.3-.27-.45-.36-.08-.05-.26-.06-.28-.02-.03.09-.02.28.04.34.36.35-.01.28-.17.37-.05-.29-.09-.58-.14-.87-.76-.45-1.44-.51-1.92-.02-.29-.12-.5-.21-.74-.31.14.4.41.8.35,1.05-.08.35-.12.68.03,1.15-.16-.12-.23-.18-.3-.23-.06.33-.03.78-.56.55ZM511.7,284.7c0-.36.14-.44.57-.38-.09.25-.46.47-.26.76l-.26.18c-.32.19-.4.4-.1.61-.45.22-.5-.08-.56-.38-.25.12-.47.22-.72.34.05-.57.77-.6.76-1.15.35-.08.49.09.41.39-.1.34.2.09.22.21-.02-.19-.06-.39-.06-.58ZM510.19,284.92c-.05.13-.09.26-.16.48-.24-.13-.43-.27-.64-.35-.22-.08-.47-.11-.63-.14-.02-.4-.03-.67-.05-1.02.07,0,.25-.08.29-.02.19.31.42.45.82.2,0,0,.05.12.07.18.06-.06.15-.16.26-.27.13.13.25.24.37.36-.11.21-.22.41-.33.62v-.04ZM517.91,308.08c-.31.12-.58.23-.89.36-.2-.41-.25-.77-.07-1.06.12-.2.25-.45.61-.2.12.3.24.61.35.91ZM486.22,272.04c-.2-.15-.42-.32-.75-.57.39-.06.61.02.86-.27.25-.29.55-.1.96.05-.42.31-.73.53-1.08.79ZM492.59,272.8c-.02-.39-.03-.77-.04-1.13.32-.18.29.08.39.18.1.1.29.07.54.12-.17.3-.32.57-.47.85-.17,0-.29-.01-.41-.02ZM510.36,283.52c-.36-.49-.34-.56.41-1.36-.04.17-.06.27-.09.36-.02.09-.04.17-.08.3.16,0,.29-.01.57-.02-.36.31-.59.52-.82.72ZM514.81,282.45c-.09.19-.19.38-.32.66-.19-.39-.36-.72-.54-1.09.63-.25.55.36.86.44ZM503.77,282.11c-.05-.39-.1-.72-.14-1.05l.1-.07c.23.2.45.41.75.67-.22.14-.43.27-.71.45ZM505.28,281.43c.46-.03.82-.01.8.56-.29.1-.57-.39-.87.2l-.1-.08c.06-.23.12-.46.17-.68ZM497.05,271.13c0,.11-.03.31-.04.31-.22.04-.45.09-.66.07-.07,0-.14-.18-.13-.29,0-.06.18-.19.27-.21.17-.03.33,0,.46,0,.05.05.1.07.1.1ZM512.01,282.88c-.37.2-.55.62-1,.67.17-.32.33-.64.51-.98.18.12.3.2.48.32ZM478.82,271.33c.52.03.78.43,1.07.79-.58.04-.77-.45-1.07-.79ZM495.5,276.18q-.41.37-.69.07c.21-.02.43-.04.69-.07ZM486.87,326.28c-.26.14-.44.24-.62.34l-.1-.16c.08-.31.24-.45.71-.18ZM521.4,305.3c-.19-.19-.33-.32-.6-.59.3-.02.46-.03.67-.05-.03.24-.05.39-.08.64ZM494.2,276.33c-.06.04-.1.09-.12.08-.24-.09-.43-.2-.05-.63.08.25.12.4.17.55ZM504.31,285.25c-.04-.21-.1-.38.13-.59.14.2.22.37-.13.59ZM511.61,282.34s.01-.15.05-.18c.19-.18.32-.11.35.23-.13-.01-.27-.03-.4-.05ZM484.72,267.24l-.07.17-.51-.15.07-.18.51.16ZM522.27,305.21c-.03.14-.03.23-.07.28-.06.07-.14.1-.29.2-.08-.46.06-.51.36-.48ZM512.74,284.94s-.15-.03-.15-.04c.04-.12.08-.24.13-.35l.19.03c-.05.12-.1.24-.17.36ZM507.37,280.57q-.05-.29.32-.45c-.13.18-.21.3-.32.45ZM507.8,286.29s.03.09.01.11c-.05.05-.11.08-.16.12,0-.04-.01-.08-.02-.13l.17-.1ZM504.72,284.12l.02.07-.24.15-.03-.08.25-.14ZM510.01,287.03s.02.07.04.1l-.29.17-.03-.11c.1-.06.19-.11.28-.17ZM495.27,277.3s-.16.05-.16.04c-.02-.08-.02-.16,0-.25,0-.02.1-.03.2-.06-.01.11,0,.2-.03.27ZM486.83,269.75l-.05.08-.36-.24.06-.08.36.24Z" fill="#161616" stroke-width="0"></path><path d="M525.82,300.04c.07-.1.21-.26.19-.3-.25-.54.24-.82.56-1.26.44.81.58,1.73.88,2.56-.27.14-.45.27-.66.08-.14-.13-.41-.11-.67-.18.24-.52.05-.78-.31-.93v.03Z" fill="#161616" stroke-width="0"></path><path d="M490.92,276.38c.48.15.45.45.26.84-.08.17-.08.37-.14.55-.04.12-.14.22-.33.34,0-.26.02-.53-.02-.77-.04-.24-.16-.45-.28-.78.03-.05.13-.21.24-.36.16-.21.35-.4.51-.61.17-.23.36-.28.48-.13.05.07-.05.35-.15.48-.11.14-.29.23-.58.44Z" fill="#161616" stroke-width="0"></path><path d="M492.16,275.16c.31-.18.5-.29.75-.43-.07.76-.64,1.43-.49,2.14-.13.14-.27.29-.44.47-.04-.05-.1-.08-.11-.12-.02-.19.02-.41-.03-.58-.04-.14-.17-.22-.27-.34.29-.16.56-.32.83-.47.07-.26.15-.52-.25-.65Z" fill="#161616" stroke-width="0"></path><path d="M528.85,301.3c.15.27.3.54.44.78-.04.12-.04.17-.07.21-.53.62-.66.61-.81-.11-.12-.55-.11-.55.44-.88Z" fill="#161616" stroke-width="0"></path><path d="M480.04,273.76q.63-.16.97-.61c.08.05.17.09.23.16.14.14.32.32.11.56-.18.2-.44.42-.7.3-.19-.09-.35-.23-.62-.4Z" fill="#161616" stroke-width="0"></path><path d="M501.52,287.12c-.11-.48-.06-.95.33-1.39.08-.09.25-.17.34-.14.09.02.17.17.16.28,0,.15-.07.36-.17.46-.26.23-.21.75-.66.8Z" fill="#161616" stroke-width="0"></path><path d="M528.59,300.99c-.3-.19-.56-.37-.86-.56.48-.31.09-.62.28-.9.64.24.78.56.58,1.46Z" fill="#161616" stroke-width="0"></path><path d="M507.26,289.96c-.15.06-.28.11-.45.17.04-.33.07-.62.11-.96-.13.09-.23.16-.33.23l-.07-.04c.1-.17.19-.36.32-.49.1-.09.31-.17.39-.12.12.06.22.24.22.38-.01.25-.11.51-.19.82Z" fill="#161616" stroke-width="0"></path><path d="M480.93,263.94c.47.09.98.1,1.39.29.33.15.55.52.91.87-.87-.38-1.62-.7-2.38-1.03l.08-.14Z" fill="#161616" stroke-width="0"></path><path d="M504.01,288.2c-.07.03-.21.1-.36.16-.1-.29-.19-.55-.28-.82q.66-.37,1.05-.34c-.12.3-.25.61-.4.99Z" fill="#161616" stroke-width="0"></path><path d="M530.98,298.47c-.15-.17-.34-.4-.54-.63.48-.45.56-.43.83.09.04-.06.09-.13.15-.22.07.14.12.26.18.37l.35.05.03.12c-.3.07-.61.14-.99.22Z" fill="#161616" stroke-width="0"></path><path d="M529.6,298.28c-.69-.2-.8-.3-1.18-1.2.21.13.43.18.54.33.3.4.5.32.71.08.06-.06.16-.07.25-.1l.09.12c-.1.11-.23.2-.31.33-.06.11-.07.26-.11.43Z" fill="#161616" stroke-width="0"></path><path d="M530.54,295.98c.48.09.87.17,1.26.24.14.32.13.56-.17.64-.33.1-.68-.17-1.09-.88Z" fill="#161616" stroke-width="0"></path><path d="M530.72,302.49c-.43-.17-.43-.55-.51-.91.13,0,.24,0,.41,0-.04-.18-.07-.32-.11-.48.52-.02.55,0,.47.44-.05.29-.16.58-.26.94Z" fill="#161616" stroke-width="0"></path><path d="M516.23,295.92c-.06-.38-.11-.75-.17-1.12.65-.1.71-.08.71.26,0,.49-.15.7-.54.86Z" fill="#161616" stroke-width="0"></path><path d="M514.04,293.05c.03-.41-.42-.72.03-1.3.24-.31.43-.11.68-.46-.29.7-.5,1.23-.72,1.75Z" fill="#161616" stroke-width="0"></path><path d="M530.5,302.96c.33.07.65.14,1.04.22-.34.43-.31.95-.73,1.31.09-.72.13-1.11-.31-1.53Z" fill="#161616" stroke-width="0"></path><path d="M509.21,290.93c.28-.17.54-.33.88-.54-.04.32-.02.62-.13.87-.08.18-.34.3-.55.48-.07-.3-.13-.55-.19-.81Z" fill="#161616" stroke-width="0"></path><path d="M497.9,284.29c-.13-.33-.24-.6-.35-.89-.08-.2-.07-.22.29-.47.03.39.17.67.61.5.02.49-.38.56-.55.85Z" fill="#161616" stroke-width="0"></path><path d="M487.9,277.17c.07.79.04.84-.76,1.33.05-.18.09-.33.12-.48.02-.16.03-.31.04-.48.16-.1.38-.23.61-.37Z" fill="#161616" stroke-width="0"></path><path d="M487.27,275.14c.18-.05.37-.14.53-.13.05,0,.07.26.05.4-.03.18-.09.39-.2.53-.07.1-.26.13-.39.15-.02,0-.04-.19-.04-.3,0-.18.03-.37.05-.64Z" fill="#161616" stroke-width="0"></path><path d="M480.13,265.88c.37.03.75-.02.97.4.13.24.46.33.71.49,0,0,0,.02-.02.04-.01.02-.04.05-.05.04-.57-.27-1.14-.53-1.71-.79l.1-.18Z" fill="#161616" stroke-width="0"></path><path d="M490.42,279.97c.04-.37.06-.65.09-.96.12-.06.24-.17.36-.18.1-.01.26.04.28.12.03.12.01.34-.07.44-.17.21-.4.36-.67.59Z" fill="#161616" stroke-width="0"></path><path d="M523.43,296.05c.36-.2.7-.39,1.05-.58.11.5-.37.38-.47.64-.09.22-.23.43-.4.75-.09-.38-.14-.61-.18-.81Z" fill="#161616" stroke-width="0"></path><path d="M485.78,264.78c-.59-.17-.77-.52-.76-1.15.51.17.73.49.76,1.15Z" fill="#161616" stroke-width="0"></path><path d="M499.56,285.58c-.06-.32-.11-.58-.16-.87.59-.01.76.11.81.56-.18.09-.37.17-.65.3Z" fill="#161616" stroke-width="0"></path><path d="M514.16,294.79c.09-.4.15-.71.22-1.06-.11,0-.21-.02-.33-.03.06-.05.13-.14.16-.13.24.09.46.19.72.3-.12.43-.41.63-.77.91Z" fill="#161616" stroke-width="0"></path><path d="M520.68,297.8c.31-.08.51-.12.55.19.05.37-.17.56-.42.77-.37-.21,0-.64-.13-.97Z" fill="#161616" stroke-width="0"></path><path d="M484.74,273.01c.75-.31.88-.31,1.02,0,.04.08.04.23,0,.3-.05.07-.21.14-.27.11-.22-.09-.42-.23-.74-.42Z" fill="#161616" stroke-width="0"></path><path d="M523.47,299.08c-.19.21-.38.43-.55.62-.21-.17-.4-.33-.63-.51.39-.31.77-.13,1.15-.26l.03.15Z" fill="#161616" stroke-width="0"></path><path d="M532.29,296.43l.25.05v7.04s-.2-.94-.2-.94c.16-.04.28-.07.44-.11.02.18.1.35.11.53v-6.01c-.14-.06-.27-.17-.36-.41,0-.03-.15-.02-.23-.04v-.12Z" fill="#161616" stroke-width="0"></path><path d="M521.73,303.49c-.26-.2-.49-.36-.75-.56.25-.32.68.25.87-.08.33.47-.03.48-.12.64Z" fill="#161616" stroke-width="0"></path><path d="M479.23,269.69c.21.27.43.53.71.88-.59-.29-1.05-.58-1.42-1.21.31.16.51.26.72.36v-.02Z" fill="#161616" stroke-width="0"></path><path d="M520.47,297.07c-.1-.31-.2-.59-.33-.99.31.05.56-.07.6.19.03.24.04.52-.27.79Z" fill="#161616" stroke-width="0"></path><path d="M523.42,301.74c-.12.15-.21.26-.36.44-.2-.26-.37-.48-.55-.71l.07-.07c.26.11.52.21.84.35Z" fill="#161616" stroke-width="0"></path><path d="M482.92,274.8c.48.1.29-.32.38-.53.37-.03.25.27.23.52-.2.12-.39.24-.64.39.01-.15.03-.26.04-.38h-.02Z" fill="#161616" stroke-width="0"></path><path d="M492.63,281.47c.1-.75.18-.81.73-.67-.22.2-.43.39-.73.67Z" fill="#161616" stroke-width="0"></path><path d="M527.27,299.38c-.62.05-.85-.38-1.09-.87.33.21.58.59.96.57.02,0,.07.16.13.3Z" fill="#161616" stroke-width="0"></path><path d="M516.38,293.12c-.12.46-.26.63-.47.56-.09-.03-.1-.25-.16-.44.28-.05.45-.08.63-.12Z" fill="#161616" stroke-width="0"></path><path d="M485.7,262.74c-.23-.09-.47-.17-.74-.28.46-.35.47-.35.74.28Z" fill="#161616" stroke-width="0"></path><path d="M512.13,292.41c.4.17.4.2.03.84-.16-.26.02-.56-.03-.84Z" fill="#161616" stroke-width="0"></path><path d="M483.23,263.6c-.2-.2-.55-.22-.64-.61.44.1.52.16.64.61Z" fill="#161616" stroke-width="0"></path><path d="M528.66,298.91c.08.26.13.46.19.66-.27.19-.4-.06-.55-.35.11-.09.22-.18.36-.3Z" fill="#161616" stroke-width="0"></path><polygon points="486.06 263.3 486.97 263.68 486.89 263.85 485.98 263.46 486.06 263.3" fill="#161616" stroke-width="0"></polygon><path d="M512.14,289.93c.15.35.27.6-.06,1.02,0-.36-.2-.57.06-1.02Z" fill="#161616" stroke-width="0"></path><path d="M485.5,276.12c-.21.23-.35.38-.55.6.03-.27.05-.47.08-.74.17.05.29.09.47.14Z" fill="#161616" stroke-width="0"></path><path d="M514.88,290.74q-.31.42-.73.08c.24-.03.44-.05.73-.08Z" fill="#161616" stroke-width="0"></path><path d="M526.57,300.92c.1-.12.2-.24.31-.39.01.3.02.52.03.89-.16-.24-.25-.38-.34-.52v.02Z" fill="#161616" stroke-width="0"></path><polygon points="483.46 264.03 484.09 264.44 484.05 264.52 483.43 264.11 483.46 264.03" fill="#161616" stroke-width="0"></polygon><path d="M518.81,297.01l.61-.3c-.2.15-.31.57-.61.3Z" fill="#161616" stroke-width="0"></path><path d="M502.3,315.82c-.15.26-.31.23-.56-.01.17-.17.31-.21.56.01Z" fill="#161616" stroke-width="0"></path><path d="M522.98,297.67c-.17-.11-.28-.19-.42-.27.09-.08.14-.16.19-.17.23-.06.28.08.23.45Z" fill="#161616" stroke-width="0"></path><path d="M523.66,303.35c-.1.07-.21.14-.44.29.03-.32.05-.48.08-.81.19.29.28.42.36.55v-.03Z" fill="#161616" stroke-width="0"></path><path d="M484.75,263.35c-.15-.1-.29-.19-.53-.35.41-.12.51.05.53.35Z" fill="#161616" stroke-width="0"></path><path d="M485.72,273.8c-.1.19-.16.33-.28.57-.06-.16-.11-.22-.11-.29-.02-.32.17-.25.39-.28Z" fill="#161616" stroke-width="0"></path><path d="M495.48,282.44c-.11.22-.17.35-.24.49-.07-.04-.12-.05-.12-.07-.02-.19,0-.35.36-.42Z" fill="#161616" stroke-width="0"></path><path d="M478.38,272.09c.24.16.38.25.57.38-.39.19-.42-.07-.57-.38Z" fill="#161616" stroke-width="0"></path><path d="M515.84,291.12c.07.07.15.13.21.21,0,.01-.06.11-.1.16l-.24-.22.13-.15Z" fill="#161616" stroke-width="0"></path><polygon points="518.33 295.33 518.23 294.86 518.34 294.8 518.51 295.24 518.33 295.33" fill="#161616" stroke-width="0"></polygon><path d="M503.64,286.33q.21.32-.18.65c.09-.29.14-.47.2-.66h-.02Z" fill="#161616" stroke-width="0"></path><path d="M482.94,274.79l-.48-.32c.43-.21.33.18.46.33h.02Z" fill="#161616" stroke-width="0"></path><polygon points="511.63 291.08 511.53 290.6 511.61 290.56 511.77 291 511.63 291.08" fill="#161616" stroke-width="0"></polygon><path d="M526.58,300.9c-.12.03-.24.06-.43.1.13-.36.3-.13.43-.08v-.02Z" fill="#161616" stroke-width="0"></path><polygon points="523.68 301.92 523.73 301.54 523.85 301.59 523.77 301.95 523.68 301.92" fill="#161616" stroke-width="0"></polygon><polygon points="492.11 322.7 491.75 322.69 491.73 322.6 492.09 322.55 492.11 322.7" fill="#161616" stroke-width="0"></polygon><polygon points="493.16 279.4 492.78 279.67 492.72 279.54 493.11 279.28 493.16 279.4" fill="#161616" stroke-width="0"></polygon><path d="M511.59,289.39c.06-.01.12-.04.16-.02.02,0,.01.09.02.14-.06,0-.12.02-.17.02-.01,0,0-.07,0-.14Z" fill="#161616" stroke-width="0"></path><path d="M510.19,284.92c-.2.2-.27.1-.28-.15l.28.19v-.04Z" fill="#161616" stroke-width="0"></path></svg>