<?xml version="1.0"?><svg id="Layer_1" xmlns="http://www.w3.org/2000/svg" viewBox="0 0 600 600"><path d="M240.79,382.85c.11.03.44.02.66.02q2.91.01,3.39.68c-2.28-.12-4.4-.37-6.82-.26-.44.02-1.11-.2-1.68-.31-.88.47.22.84,1.36,1.27,3.31-.31,4.14.48,6.53.76.2-.4.37-.76.57-1.16,1.17-.1,2.42-.21,3.79-.33,1.13.38,4.04.38,3.38.95,1.34.11,2.4.19,3.46.28.97.1,1.95.21,2.95.31,1.18-1.05,1.7-.99-2.83-1.55.21-.19.23-.38,1.6-.36,2.23.04,4.56-.04,5.86.52.27.11,1.18.14,1.68.24.92.18,1.76.38,2.98.65.18,0,.96-.02,1.74-.03l-1.18.27c1.6.18,3.21.37,4.71.54.44-.1.96-.23,1.45-.34-.25-.15-.59-.31-.73-.47-.73-.82-2.82-1.14-6.56-1-.83.04-1.65.07-2.74.12.24-.31.41-.52.58-.74,5.39-.07,9.45.56,13.75,1.07.29.2.58.41.79.56,1.34.02,2.5-.01,3.44.07,1.05.09,1.9.3,2.84.45,1.37-1.19,4.6-.81,7.87-.49-.16-.22-.25-.34-.36-.49h1.4c.72.3,1.32.55,2,.84q2.36-.71,5.73-.34c.4.04.9.1,1.29.08,1.75-.07,2.75.18,3.89.39.22.04.56.04,1.25.1-.43-.15-.69-.22-.84-.31-.19-.1-.3-.22-.43-.31,3.73-.39,3.75-.4,7.09-.09,1.74.16,3.37.37,5.07.56.12.01.36-.03.51-.04-.3-.17-.6-.35-.96-.56.94.03,1.95.11,2.15.05,1.98-.57,5.01-.27,7.52-.55.16.26.23.43.37.59.25.29,1.99.52,2.58.32-.53-.14-1.07-.28-1.67-.43,1.46-.35,2.95-.21,4.22-.08,1.86.18,3.45.18,4.95-.26.36.41.63.71,2.45.69.75-.29,1.51-.58,2.35-.9.9.02,2.25.14,2.79.05,2.07-.37,3.91-.1,5.83,0,1.1.06,2.29.08,3.27.19.96.11,2.06-.32,2.94.06.08.03,1.95-.14,3-.2.31-.02.67,0,.98,0,1.14.57,2.54.87,3.56.76v-.47c.49-.01.82-.03,1.15-.03,3.02.03,6.28.43,8.84-.27.11-.03.44-.03.65-.03,1.12.02,2.17-.17,3.42.12.69.16,2.75.03,4.11.03.53.32.19.69,2.19.69.04-.18.07-.34.13-.63,3.23.21,6.22.41,9.28.61-.19-.15-.36-.28-.58-.45,2.88-.08,5.67-.23,8.43-.21,2.75.02,5.9-.17,8.14.41.23.06,1,.02,1.65.03-.28-.16-.47-.26-.59-.33,2.69-.17,5.32-.33,7.93-.49.73-.04,1.91-.09,2.25,0,1.15.27,2.49.18,3.82.19,2.71.04,3.39.11,6.16.58.73.11,1.46.21,2.63.39-.22-.26-.34-.41-.46-.56,3.25-.17,5.68.64,9.25.24-1.27-.12-2.22-.21-3.16-.3l.13-.1c2.11-.03,4.22-.06,6.2-.09.34.66,2.77.42,4.22.59q.72-.53,4.96-.42c-.04.09-.09.18-.12.25,4.87.15,9.63-.1,14.43.12,2.91.13,6.07.01,9.12,0,5.26-.04,10.53-.12,15.79-.11,2.86,0,5.71.17,8.57.26-1.79-.51,2.58-.64.63-1.06,4.18-.07,8.03-.14,11.82-.2q.46.45,5.12.37c.19-.1.68-.24.55-.33-.76-.57,1.18-1.17-.47-1.74-.21-.07.06-.26.38-.34,2.37-.6.54-1.27.64-1.9-1.86-.27-1.3-.74-.84-1,.87-.5.97-1.01,1.23-1.51.27-.54,1.42-1.02,1.48-1.59.05-.5-1.56-.96-.41-1.46.07-.03-.08-.1-.22-.14-.86-.21-.72-.43-.67-.69.04-.18-.58-.42-1.25-.55-3.39-.66-7.91-.67-11.61-.06-2.04.33-3.09.3-5.06-.03-1.13-.19-2.49-.4-3.84-.44-4.64-.15-9.32-.23-14-.32-1-.02-2.17,0-3.02.09-2.95.34-6.12,0-9.1.17-.37.02-.9-.04-1.28-.08-2.11-.27-4.19-.19-6.26.01-1.42.14-2.6.17-4.17-.02-1.08-.13-2.85-.04-4.24.03-1.22.05-2.33.21-3.6.04-1.98-.26-3.94-.16-5.95,0-.92.07-2.04.17-2.89.11-1.84-.11-3.5-.06-5.35,0-1.57.04-3.34-.22-5.02-.35-.1,0-.23,0-.34,0-2.88.1-5.73.29-8.63-.03-.53-.06-1.52.06-2.26.12-.85.07-1.69.16-2.47.26-1.31.17-2.5.19-3.81-.02-1.71-.27-3.62-.18-5.61-.15-3.69.06-7.42.04-11.13.04-.31,0-.63-.06-.94-.09-1.62-.18-3.28-.14-5.02-.09-1.4.04-2.99.04-4.27-.07-2.53-.22-4.94-.22-7.33.02-1.46.15-2.75.14-4.29.04-3.33-.22-6.97-.01-10.27-.35-.62-.06-1.58.01-2.36.05-2.26.11-4.45.11-6.78,0-1.93-.08-4.04,0-6.06.04-1.47.03-3.14.21-4.34.1-2.84-.24-5.39-.09-8.07.06-.96.05-2.01.09-2.98.06-2.75-.07-5.45-.11-8.11.13-.66.06-1.64.07-2.26,0-2.8-.29-5.5-.23-8.3,0-.9.07-2.05.11-2.95.06-2.74-.16-5.41-.15-8.14,0-.85.05-1.81.03-2.71.02-2.71-.04-5.42-.17-8.07.09-.37.04-.96.03-1.31,0-3.48-.41-6.88-.26-10.23.07-1.29.13-2.37.09-3.47-.11-1.51-.28-3.19-.33-5.14-.19-2.49.17-5.07.29-7.94.45-1.83-.56-4.57-.56-7.52-.37-1.42.09-2.85.2-4.31.25-.8.03-2.05,0-2.45-.1-2.31-.64-5.21-.61-8.43-.48-1.65.07-3.59.12-5.06-.01-2.78-.24-5.36-.12-8.05-.02-.86.03-1.9.08-2.64,0-2.77-.26-5.34-.15-8.01.07-.95.08-2.27.08-3.2,0-2.43-.22-4.74-.27-7.28-.08-1.36.1-3.12.2-4.32.09-3.93-.34-7.62-.22-11.39.07-.69.05-1.73.1-2.24.03-3.2-.45-6.34-.22-9.62-.06-1.95.09-4.22.14-6.04,0-2.57-.19-4.91-.18-7.37-.02-2.1.14-4.27.16-6.24.02-2.36-.08-4.82-.28-7.18-.38-1.41-.13-2.42-.26-3.76-.59-1.22-.33-2.46-.69-3.77-.96-1.32-.26-2.68-.62-4.16-.8-1.14-.13-2.33-.45-3.55-.73-.61-.16-1.22-.29-1.82-.48-.59-.2-1.17-.41-1.75-.6-2.19-.74-4.06-1.5-6.09-2.06-.8-.27-1.72-.64-2.53-1.02-1.21-.54-2.36-1.12-3.51-1.67-.58-.26-1.15-.53-1.74-.8-.56-.28-1.13-.57-1.71-.85-.92-.47-2.05-1.13-2.87-1.79-.93-.72-1.87-1.34-2.83-1.94-.93-.64-1.87-1.25-2.85-1.87-.78-.47-1.51-1.05-2.27-1.6-.74-.57-1.51-1.1-2.19-1.73-.88-.79-1.75-1.55-2.61-2.26-.84-.73-1.67-1.44-2.55-2.07-1.13-.78-2.06-1.79-2.95-3-.77-1.01-1.54-2.08-2.42-3.09-.89-1-1.76-2.06-2.67-3.12-.94-1.04-1.89-2.36-2.55-3.49-1.61-2.72-3.25-5.13-4.92-7.67-.55-.78-1.08-1.65-1.57-2.53-.47-.88-.94-1.75-1.16-2.63-.32-1.27-.79-2.49-1.33-3.65-.48-1.18-1.02-2.29-1.56-3.31-.54-1.01-.84-1.93-1.12-2.8-.26-.88-.5-1.73-.63-2.7-.16-1.05-.44-2.39-.79-3.49-.24-.93-.51-1.84-.79-2.75l-.42-1.37c-.12-.46-.22-.93-.33-1.4-.28-1.39-.57-2.85-.71-4.3-.14-1.24-.28-2.55-.44-3.71-.19-1.35-.38-2.71-.58-4.08-.13-1.37-.27-2.75-.41-4.15.09-.71.35-1.52.38-2.37.04-2.55.24-5.07.07-7.38-.03-1.39.01-3.02.07-4.6.29-.65.51-1.05.71-1.59.2-.53.47-1.23.55-1.79.24-1.54.62-3.12.9-4.67.35-1.53.71-3.02.93-4.4.22-1.05.48-1.95.76-2.81.28-.86.6-1.68,1.03-2.53.26-.54.53-1.08.81-1.66.04-.72.05-1.42.14-2.17.47-.83.87-1.49,1.23-2.22.42-.9.96-1.66,1.48-2.46.52-.81.98-1.68,1.41-2.73.9-2.13,2.02-3.79,3.34-5.07.28-.28.57-.62.74-.8.53-1,1.12-1.89,1.67-2.79.56-.88,1.08-1.78,1.72-2.59.93-1.21,2.01-2.57,3.06-3.49.88-.81,1.48-1.52,2.26-2.45.82-.94,1.66-1.9,2.47-2.85.88-.91,1.82-1.78,2.82-2.6.7-.59,1.46-1.11,2.16-1.7.72-.56,1.4-1.18,2.12-1.74,1.45-1.12,2.82-2.36,4.31-3.48.71-.56,1.47-1.18,2.26-1.73.8-.53,1.59-1.03,2.31-1.41,1.29-.71,1.97-1.19,2.98-1.85.62-.41,1.26-.83,1.91-1.25.66-.39,1.33-.78,1.98-1.16,1.32-.8,2.69-1.46,4.04-2.02,3.18-1.33,6.07-2.42,9.1-3.66,1.57-.64,3.4-1.25,5.1-1.44,2.01-.1,4.1-.68,6.04-1.17.77-.22,1.54-.41,2.3-.58.76-.16,1.53-.23,2.29-.32.76-.08,1.52-.15,2.27-.2.76-.04,1.52-.02,2.29-.01,1.32-.26,2.66-.52,4.08-.59,1.43-.09,2.84-.17,4.56-.07,1.51.08,3.38-.03,4.91-.16,2.13-.18,3.93-.23,5.59.18.36.09.93.14,1.54.22,3-.54,6.68-.53,10.13-.47,4.42.07,8.67-.1,12.98-.2,1.65-.04,3.08-.08,4.6.12.61.08,2,.08,2.47-.01,1.6-.33,3.5-.29,5.41-.34,5.29-.13,10.51,0,15.76.12,2.58.06,5.21-.04,7.82-.04,2.73,0,5.46,0,8.18.05,1.47.02,2.93.14,4.49-.2-3.26-.33-6.4-.58-9.79-.71-1.75-.07-4.09-.14-4.94-.4-1.01-.3-2.13-.29-3.31-.38l-5.52-.05.04-.15,5.49.2c.04-.47,1.31-.66,3.3-.66h3.42c2.14-.01,4.27-.05,5.34-.56-2.5-.47-4.43-1.09-8.47-1.14,1.77-.33,3.29-.24,4.69-.18,2.11.09,2.98-.3,4.43-.47,1.64-.19.47-.49.59-.59,1.53-.23,3.39-.36,3.48-.54.29-.58,2.39-.53,3.89-.74,2.38-.34,4.83-.37,7.45-.38.48,0,.95-.09,1.43-.13l-.06-.1c-1.16-.02-2.32-.05-3.42-.07-1.36-.75-1.03-.9,2.26-.77,2.76.11,5.3.17,7.89-.12.64-.07,1.58-.02,2.37-.03.97-.03,1.94-.06,3.32-.1-1.78-.51-3.31-.95-5.12-1.47-.14,0-.85,0-1.48-.05-2.39-.18-5.2-.04-7.26-.46h.11c-.68.04-1.38.09-2.04.08-2.61-.06-5.3-.07-7.78-.24-1.47-.1-2.14-.58-4.16-.54-.11-.35.44-.53,1.85-.55,1.02-.01,2.06-.02,3.08,0,2.24.06,4.48.12,6.61.17,1.83-.89,5.33-.64,8.29-.8-5.79-.12-11.58-.25-17.77-.38.61-.19.94-.29,1.27-.39l-.32-.1c-1.28.19-2.57.37-4.01.58.73.18,1.22.31,1.85.47-1.87.13-3.55.24-5.53.38,1.02.44,1.85.8,2.71,1.17-2.39.08-4.8.15-7.35.23-2.16-.62-2.56-.64-7.03-.23.45.22.89.44,1.38.68-2.2.41-5.56.38-7.21.95-.18.06-1.08.03-1.65.03-.57,0-1.33-.06-1.68,0-2.02.35-2.78-.01-3.65-.27-.98.09-1.95.18-2.69.25-.53-.28-.91-.49-1.31-.7-3.15.25-1.03.84-2.33,1.14.76.23,1.39.42,2.1.63-1.66.18-2.01-.03-2.52-.23-.56-.23-.88-.49-2.41-.56-2.41-.1-4.77-.26-7.25-.4.64-.32,1.22-.62-.56-.82-1.09.11.53.66-1.84.5-.19-.13-.37-.25-.67-.47-.65.21-1.08.32-1.39.45-.32.13-.58.27-.75.41-.43.35.9,1.21,1.98,1.17,3.23-.1,2.26.42,2.93.7-1.27.13-2.4.2-3.29.34-1.05.17-1.56.41-.89.7.47.21,1.38.38,2.12.21,1.59-.35,3.72-.17,5.44-.35.28-.03.83.06,1.26.1-1.08.14-2.09.14-3.04.2-.97.06-1.94.15-2.02.44-.14.55-1.89.68-4.01.68-.99,0-1.98-.02-3.18-.03-.69.65-.17,1.36-2.71,1.85-.26.05-.04.22-.04.34-2.8-.11-3.1-.22-2.27-.73.18-.11.13-.3-.2-.37-1.35-.26-.49-.43.49-.56.79-.1,1.76-.14,3.01-.23-1.98-.5-1.66-.99-.69-1.52-1.56.05-2.83.08-4.08.12-.54-.52,1.35-.54,2.37-.68,1.59-.2,3.37-.34,4.94-.49v-.92c-2.83-.1-5.26-.67-8.7-.44-.13.48-.25.9-.37,1.36.32.17,2.73.01,1.91.56-2.16-.22-4.26-.44-7.13-.73,1.29.51,2.25.89,3.41,1.35-.66.11-1.37.34-2.17.35-1.97.04-2.5.27-2.48.64.5.07,1,.13,2.03.27-1.67.22-2.83.4-4.12.53-.49.05-1.54.01-1.84-.07-1.85-.5-4.33-.35-6.88-.34,2.22-.51,4.33-.99,6.62-1.52-1.39-.12-2.38-.21-3.74-.33,1.7-.08,3.07-.14,4.46-.2.17-.72-1.85-1.25-3.95-1.74-.53.06-1.07.11-2.06.21.33-.35.54-.58.73-.78-.83-.29-2.16-.54-2.26-.82-.23-.54-2.04-.76-3.91-1.13,0,.45.01.73.02,1.02,1.6.17,2.71.45,3.57.75.49.17-1.16.47-1.29.37-.49-.4-3.06-.11-3.44-.51-.11-.11-.97-.17-1.99-.33-.29.56-2.19.46-3.96.65.89.2,1.56.34,2.53.56-1.35.08-2.16.13-3.15.19.15.2.25.33.35.46l-.47.06c-1.07-.24-2.14-.39-3.19-.58-1.18.62-1.51.64-3.01.53-.7-.04-1.25-.14-1.83-.23-.08-.01.08-.1.13-.15.87-.16,1.73-.36,2.66-.49-1.1-.62-1.33-.59-4.3-.19.08.42.16.84.25,1.29-.98.27-1.79.31-2.64.41-.85.09-1.74.2-2.85.62,1.09.06,1.58.29-.6,1.15-.72-.17-1.31-.31-2.05-.49-.52.38-.84.62-.95.71-.59.17-1.16.33-1.72.49-.55.19-1.09.37-1.63.55-1.08.37-2.17.72-3.35,1.15.26-.46.53-.86.84-1.35-1.29.36-2.35.46-4.03,1.2.98-.01,1.84-.02,2.86-.04-1.1.49-1.86.78-2.34,1.05-1.1.57-3.33,1.16-3.52,1.85-.91.31-1.8.66-2.63,1.19-.11-.08-.46-.08-.28-.27.37-.41,1.05-.85,1.96-1.55-1.52.69-2.81,1.35-3.96,1.85-1.15.51-2.17.81-3.04,1.01-.14.49.47.4,1.24.26.77-.13,1.69-.35,2.11-.22-2.05.88-3.66,1.74-5.54,2.69-.07.07-.32.32-.54.54-.8.46-1.57.9-2.33,1.34-.63.36-1.52.95-1.84,1.04-.54.17-.47-.14.22-.75.25-.22.34-.4.57-.67-.51.3-.96.57-1.37.82-.4.27-.77.51-1.12.75-.73-.46-3.68,1.72-5.81,2.88.6.28,1.04.49,1.48.71.4-.14,1.66-1.11.88,0-.36-.03-.59-.05-.83-.07-.85.82-1.81,1.63-2.53,2.46-1.09,1.22-1.97,1.8-2.81,2.17-.33.15-.51.11-.71.16-1.42,1.35-2.38,2.6-4.02,3.98.32-.73.64-1.36,1-2.05-.51.39-.93.65-1.32,1.03-.4.37-.82.82-1.23,1.23l.05-.08c.43.54-.11,1.84-1.15,3.83-.53.46-1.08.94-1.51,1.32-.47,1.48.83.52,2.59-1.14.06.41.1.75.17,1.21.84-1.11,1.55-1.84,2.21-2.63.4,0,.6.19-.21,1.28-1.42,1.88-.75,1.98-.39,2.21.43.28,1.92-1.01,3.52-2.44-.26.49-.44.85-.66,1.26-.81.73-1.59,1.38-2.43,2.24.22.56.43,1.08.64,1.6-.98,1.18-1.93,2.32-2.78,3.51-.88,1.17-1.74,2.31-2.52,3.52-.18-.43-.34-.8-.52-1.22-.27.28-.72.75-1.16,1.22v-.32c.75-1.2,1.52-2.4,2.27-3.41.53-.28.85-.44,1.21-.62.33-.49.65-.96.97-1.44.35-.46.7-.95,1.11-1.49-.26.03-.44-.19-.8.14-.78.7-1.44,1.16-2.15,1.79-.7.63-1.51,1.41-2.41,2.83,1.38-2.42-.55-.49-.69-.84.83-1.37,1.69-2.71,2.43-3.89-.82.33-1.47.58-2.18.87-.49.61-1.17,1.34-1.72,1.91-.54.58-.99.97-1.09.83-.27-.36-1.1.76-1.7,1.26-.94.75-1.82,1.6-2.66,2.31-.55.47-1.05.78-1.9,2.45.46.04.93.09,1.4.13-.51,1.01-.97,1.92-1.51,3,.12.46.24.92.34,1.29-.69,1.62-1.18,3.04-1.78,4.58-.6.05-1.28.47-2.48,2.88-.04-.32,0-.95-.12-.78-.5.71-.96,1.13-1.46,1.77-.48.65-.99,1.52-1.61,3.11.45-.39,1.01-1.13,1.24-1.02.35.17.07,1.42-.67,3.22-.07,2.16.9.72,1.88-.4-.39,1.88-.88,3.37-1.31,3.44-.59.1-1.53,1.08-1.05-1.91-.5,1.72-.87,2.78-1.14,3.96.14.37.26.71.4,1.08-.32.91-.61,1.75-.87,2.5-.12,1.11.7.14.02,2.6-.17-.38-.32-.73-.53-1.21-.38,1.92-.77,3.45-.96,4.85-.39.98-.78,1.94-1.32,3.3.36.27.58.45.92.71-.49,1.61-.84,2.76-1.27,4.17.23.38.42.7.64,1.01.17.91.07,1.92-.06,2.95-.14,1.04-.27,2.1-.14,3.12-.32.42-.57.75-.88,1.15.33,1.37.55,2.62.92,3.56.34.95.63,1.92.84,3.61.4,2.49.43,2.8-.19,2.92-.06.01-.12-.04-.21-.07.17.81.3,1.43.52,2.47-.33-.34-.54-.57-.77-.8.06.77.17,1.44.3,2.33-.37-.16-.88-1.33-.87.8.62.71.92,3.27,1.52,4.92.66,2.11.76,4.61,1.63,6.48-.04.94.19,2.36,0,2.27-.3-.17-.85-1.27-1.24-2.01-.13.81-.17,1.28-.02,2.14.15.86.4,2.14,1.07,4.51.04-1.38-.03-3.44.92-2.39.17,1.07.41,2.04.72,3.37.1-.73.17-1.22.25-1.81.82,1.44,1.53,2.81,2.44,4.3-.28.21-.54.4-.79.59.61.7.97.55,1.47,1.33.28.43.59,1.07.9,1.76.35.68.71,1.38,1.03,2.01.28.09-.46-1.86.39-.53.18.81.38,1.63.7,2.54.33.9.82,1.87,1.47,2.98l-2.02-2.65c.3,1.42-1.11-1.39-.85,0-.73-1.63-1.29-2.82-1.84-4.1-.18,0-.38-.01-.64-.02.59,1.32,1.13,2.33,1.53,3.18.43,1.28-.49.49.47,2.45.79.76.87-.52,2.66,2.76-.01.14-.04.42-.08.76,1.06.75,1.76,1.25,2.46,1.75-.32-.57-.64-1.14-1.04-1.85q.73.92.99,1.79c.31.9.59,1.83,1.11,3.1.3-.19.44-.37.67-.39.24-.02.57.11.84.17.58.89,1.02,1.67,1.38,2.36.38.68.68,1.28.94,1.85.53,1.12.86,2.14,1.54,3.21-1.16-.48-2.36-1.46-2.79-.88,1.16,1.01,1.74,1.52,2.14,1.87.45.42.78.8,1.42,1.55-.18-.04-.35-.07-.67-.13,1.11,1.17,2.09,2.72,3.15,3.34,0,0,.21.3.42.6.21.3.4.6.38.59-.58-.12-1.25-.37-1.78-.55.37,1.08,1.08,2.39,2.09,3.73.49.68,1.03,1.39,1.61,2.12.58.72,1.23,1.42,1.88,2.14.63.17,1.24.33,1.85.49l.07.1c-.68-1.09-1.75-2.21-2.92-3.4-1.12-1.23-2.4-2.48-3.46-3.81.54.09,1.05.16,1.56.22.66.67,1.17,1.23,1.65,1.66,1.43,1.34,2.97,2.58,4.44,3.93,1.51,1.32,3.02,2.62,4.59,3.99.39.33,1.12.87,1.28.92,1.04.29,2.36,1.53,3.68,2.37.2.01.4.02.51.03.7.52,1.37,1.03,2.03,1.53.68.47,1.34.92,1.98,1.36.39,0,.64,0,.89,0,1.18.97,2.33,1.72,3.45,2.53l.49.11c-.8-.81-1.59-1.61-2.53-2.57.55.13,1.16.27,1.95.46.7.7,1.15,1.16,1.76,1.78.92.28,1.81.46,2.77.7.58.35,1.22.73,1.34.81.53.98,1.02,1.74,1.62,2.71,1,.1,1.71.16,2.43.23.08.28.56.55,1.45.85.16.06.38.42.61.68,1.13.21,1.94.34,2.86.55.39.08,1.42.41,1.5.48.79.67,3.33,1.21,4.17,1.82.06.04,1.69.44,1.95.42.84-.09,1.57.25,2.5.58.58.2,1.15.41,1.6.57.86.02,1.64.12,2.38.25.75.1,1.44.25,2.12.43,1.35.35,2.6.84,3.96,1.14.52-.22.93-.39,1.2-.51,1.99.21,3.91.26,5.81.32,1.9.11,3.78,0,5.7-.01.12.17.28.37.36.48,2.24.04,4.21.07,6.25.1.17-.06.44-.16.71-.26,1.34.32,3.11-.12,4.5.1q-.2.99.49,1.06c.3-.24.43-.51.94-.73.58-.25,2.1-.3,2.85-.07,1.72.52,4.04.63,6.77.51-.51.63,1.22.8,3.93.85-3.29.45-6.03.83-8.77,1.2l.18.1c1.53-.02,3.06-.03,4.46-.05,1.15.24,2.25.46,3.38.7.8-.27,1.47-.5,2.14-.73-.37-.05-.92-.12-2.17-.28h5.1c-.64-.67-1.24-1.3-1.8-1.89,1.01-.09,1.94-.17,2.86-.25,1.19-.09,5.02.31,4.76.53-.7.6,1.07.4,2.31.39l-.1.02c.08-.24.16-.49.23-.71,2.25-.08,4.35-.16,6.64-.24.37.21.6.39,1.05.55.25.09,1.08.19,1.3.17.45-.06,1.03-.22.92-.31-.61-.49.96-.23,2.01-.21-.7.27-1.4.54-2.09.8,2.27.79,5.4,1.21,9.33,1.07,1.03.26,1.78.45,2.62.66.57-.41.58-.89,1.65-1.07,1.5-.25,2.78-.51,3.55-.97.37.19.54.27.71.36,1.36-.24,2.62-.63,4.5-.15ZM82.27,245.96c.75-.88.68-.5-.02,1.66-.37.23-.33-.94-1.16.8v-.76c.02-1-.28-.85-1.08,1.17.15-1.54.78-2.62,1.53-3.69.14-.89.25-1.65.39-2.5,1.13-1.27.08,2.06,1.23.62-.37,1.45-.94,2.55-1.42,2.91-.56.41-.43,1.17-.71,1.6.41-.62.83-1.33,1.25-1.82ZM84.23,239.48c-.21.12-.43.24-.77.44.71-1.45,1.35-2.67,1.98-3.82.65-1.21,1.17-2.44,1.6-3.19,1.03-1,1.72-1.68,2.63-2.57-.13.29-.37.95-.58,1.23-.59.77-1.1,1.5-1.49,2.18-.37.69-.62,1.35-.72,1.96,0,.01-.37.5-.56.76.03.12.07.31.11.54-.56.86-1.03,1.7-1.5,2.56-.27,0-.53,0-.79,0l.08-.09ZM251.61,382.11c1.91.07,3.61.12,5.49.19-.37.45-1.24.78-3.05.93-1.23.1-2.67.24-3.62-.17.39-.31.79-.64,1.18-.95ZM223.8,184.86c1.45.02,3.05.03,5.47.06-1.69.26-3.05.32-3.34.7-.29.38-2.34.39-4.86.49,1.07-.49,1.85-.85,2.73-1.25ZM190.27,187.72c1.32.32,2.61.62,3.85.92-1.01.33-1.68.09-2.47.07-.78-.03-1.67.1-2.98.2-.15-.34-.29-.65-.43-.97.83-.09,1.43-.15,2.04-.21ZM87.09,236.88c1.82-2.76,1.97-2.83,2.33-1.32-.32.22-.49.33-.66.45-.16.1-.31.21-.55.37-.29.7-.53,1.25-1.05,2.49-.03-.87-.05-1.43-.07-1.98ZM82.82,254.56c-.25.08-.5.16-.86.27.44-.97.86-1.87,1.26-2.75.45-.86.89-1.72,1.36-2.62-.15,1.12-.48,1.98-.85,2.76-.33.8-.69,1.52-.91,2.34ZM109.21,207.32c1.42-.72,2.56-1.35,3.77-1.88l-.15.25c-1.47.99-2.87,2.09-4.75,3.49.33-.6.68-1.13,1.12-1.87ZM106.06,211.8c-1.47,1.64-2.59,3.06-4.23,3.92.65-.96,2.94-2.79,2.2-2.99l.57-.52c.48-.15.99-.28,1.47-.41ZM173.87,191.56c-.32-.09-.84-.28-.79-.28.95-.16,1.92-.32,3.01-.42.38-.03,1.28.07,1.57.17.17.05-.27.25-.68.32-.71.12-1.6.18-2.28.25-.41-.01-.73,0-.83-.03ZM85.57,242.79c.2-1.2-.42-.98.24-2.89.41-.02.82-.03,1.27-.05-.56,1.1-.94,1.84-1.51,2.94ZM262.23,181.38c-2.62.26-5.18.07-7.77-.07,2.68-.36,5.19-.04,7.77.07ZM165.15,186.62c.78-.55.79-.55,3.17-.51-.99.16-1.98.32-3.17.51ZM461.61,383.95c1.73.02,2.92.04,4.12.05l-.04.18c-1.39.22-2.63.24-4.08-.24ZM225.68,382.52c.33.26.56.45,1.03.82-1.55-.15-2.35-.22-3.46-.33.92-.19,1.48-.3,2.43-.49ZM171.06,185.65c.17-.07.23-.13.35-.13,1.44-.06,2.74-.07,2.24.5-1.16-.16-1.88-.27-2.59-.37ZM97.93,214.45c.74-.56,1.4-1.09,1.31-.55-1.02.94-1.76,1.57-1.31.55ZM87.43,239.69s.3-.3.31-.22c.06.43-.28,1.15-1.1,2.15.26-.65.53-1.29.79-1.93ZM246.56,188.04l-.21-.18,2.99-.16.21.19-2.99.15ZM221.1,382.12c.6-.1.88-.17,1.24-.19.48-.03,1.02,0,2.08,0-1.09.42-1.94.4-3.32.2ZM80.44,251.54s.22-.79.23-.79c.19-.15.36-.25.53-.35l-.3.96c-.16.07-.33.17-.47.18ZM102.03,218.26c.97-.71.97-.7.31.47-.12-.19-.21-.31-.31-.47ZM85.75,231.82c-.1.11-.29.34-.3.32-.01-.1.04-.29.06-.45.11-.12.22-.23.37-.4-.05.17-.09.35-.14.54ZM99.9,214.08l-.27.22c.11-.23.21-.47.32-.7l.33-.25c-.13.24-.27.48-.39.73ZM79.96,244.09s-.18.3-.28.46l.09-.94.28-.43-.09.92ZM162.5,185.74s.62-.18.68-.17c.34.03.63.08.83.15.04.01-.38.11-.76.22-.33-.08-.65-.12-.75-.19ZM228.17,187.1v-.1s2.52,0,2.52,0l-.02.1h-2.5Z" fill="#161616" stroke-width="0"></path><path d="M101.93,358c.08-.1.36-.12.19-.31-2.01-2.36-.54-1.63-.07-1.95,1.6,1.9,3.13,3.46,4.52,5.09.73.76,1.46,1.52,2.18,2.28.72.77,1.47,1.52,2.29,2.24-.89-.31-1.42-.41-2.73-1.51-.91-.77-2.07-1.42-3.29-2.35-.03-.79-1.39-2.06-3.16-3.59l.07.1Z" fill="#161616" stroke-width="0"></path><path d="M186.92,183.81c-2.85.14-3.64-.13-3.97-.56-.15-.19-.82-.35-1.08-.54-.17-.12-.03-.26.53-.46.84.21,1.57.45,2.54.63.98.18,2.21.29,3.86.5,0,.06.07.25-.02.43-.13.26-.45.52-.53.79-.09.29-.88.43-1.95.37-.46-.03-.88-.32-.82-.48.07-.18.7-.35,1.44-.68Z" fill="#161616" stroke-width="0"></path><path d="M184.79,185.51c-.94.32-1.52.52-2.26.77-2.1-.68-1.48-1.54-4.47-2.05.19-.18.4-.39.64-.63.35.02.74,0,.92.04.7.15,1.22.35,2.01.47.63.09,1.55.09,2.42.14-.88.3-1.71.57-2.55.85.49.26.93.52,3.3.4Z" fill="#161616" stroke-width="0"></path><path d="M118.05,369.38c1.37.95,2.78,1.94,4,2.78.12.21.25.32.2.35-.93.43-1.6.09-4.11-1.94-1.89-1.62-1.86-1.65-.1-1.19Z" fill="#161616" stroke-width="0"></path><path d="M248.45,180.02q-2.56.48-2.76,1.04c-.54,0-1.1.02-1.64,0-1.13-.04-2.59-.09-2.34-.41.21-.27.77-.59,2.45-.63,1.22-.03,2.46,0,4.28,0Z" fill="#161616" stroke-width="0"></path><path d="M101.64,206.6c1.94-1.23,3.21-1.77,3.18-.98,0,.16-.37.69-.75,1.05-.38.36-1.13.91-1.45,1.06-.43.21-.91.34-.84.1.18-.6-1.62.42-.14-1.23Z" fill="#161616" stroke-width="0"></path><path d="M116.13,368.01c-1.84-1.13-3.41-2.29-5.15-3.53,1.46.4-.98-1.39-.73-1.67,3.34,2.28,4.64,3.4,5.88,5.2Z" fill="#161616" stroke-width="0"></path><path d="M78.16,238.57c.15-.6.28-1.07.45-1.74.7-.69,1.27-1.31,2.03-2,.05-.39.09-.69.13-.99l.23-.41c.18.07.49-.04.51.27.02.24-.24,1.04-.52,1.55-.39.71-.97,1.71-1.31,2.07-.55.6-.96.8-1.53,1.25Z" fill="#161616" stroke-width="0"></path><path d="M275.63,188.72c-2.58.18-5.11.45-7.75.52-2.12.06-4.38-.13-7.24-.23,5.43-.16,10.17-.3,14.92-.44l.08.16Z" fill="#161616" stroke-width="0"></path><path d="M90.32,219.05c.11-.26.33-.75.59-1.25,1.13-1.02,2.17-1.96,3.21-2.9q-.94,2.11-2.17,3.81c-.51.09-1.02.19-1.63.33Z" fill="#161616" stroke-width="0"></path><path d="M156.5,382.02c.14.25.33.57.52.89-.98-.1-1.74-.17-2.32-.26-.57-.1-.97-.19-1.22-.27-.51-.17-.48-.32-.26-.58-.43-.05-.86-.09-1.5-.16.15-.13.28-.23.41-.34-.51-.17-1.02-.34-1.53-.51l.28-.07c.85.21,1.7.42,2.62.64.46.11.93.23,1.43.35.5.1,1.02.2,1.58.31Z" fill="#161616" stroke-width="0"></path><path d="M162.75,383.58c2.82.77,3.07.87,1.91,1.8-.67-.27-1.58-.51-1.63-.7-.15-.52-1.42-.65-3.34-.72-.49-.04-1.06-.17-1.59-.26l-.05-.16c.9.08,1.84.21,2.68.18.68,0,1.23-.09,2.02-.15Z" fill="#161616" stroke-width="0"></path><path d="M150.11,383.32c-2.05-.77-3.7-1.46-5.35-2.14.42-.24,1.32-.24,3.06.26,1.9.56,2.75,1.13,2.29,1.87Z" fill="#161616" stroke-width="0"></path><path d="M130.08,375.59c-2.6-1.06-3.62-1.86-4.91-2.85.63.24,1.16.44,1.96.75-.64-.47-1.18-.85-1.75-1.27,2.4.91,2.59.93,3.38,1.75.53.54.82,1,1.31,1.61Z" fill="#161616" stroke-width="0"></path><path d="M69.57,304.23c0-1.6,0-3.19,0-4.76.96,2.91,1.05,3.29.97,4.46-.07,1.69-.32,1.73-.97.31Z" fill="#161616" stroke-width="0"></path><path d="M68.76,283.08c.39-1.22.49-4.58,1.21-4.18.39.21.29,1.85.7,1.97-.77.88-1.34,1.54-1.91,2.2Z" fill="#161616" stroke-width="0"></path><path d="M130.3,376.24c1.8.64,3.6,1.21,5.77,1.87-.47.42,1.21,1.43.15,1.63-.84-.61-1.47-1.13-2.31-1.66-.84-.54-1.93-1.05-3.61-1.84Z" fill="#161616" stroke-width="0"></path><path d="M73.22,251.21c.01.91,0,1.76.04,2.86-.52.76-1.05,1.77-1.38,1.95-.24.14-.22-.83-.34-1.39.56-1.29,1.14-2.34,1.69-3.42Z" fill="#161616" stroke-width="0"></path><path d="M125.75,191.05c1.74-.56,3.23-1.07,4.7-1.51,1.08-.29,1.07-.27.28.48-1.48.29-3.06.86-4.52,1.93-1.78.42-.23-.66-.45-.91Z" fill="#161616" stroke-width="0"></path><path d="M199.14,181.49c-2.85-.62-2.88-.69-.54-1.53.37.18.61.33.97.46.38.14.87.27,1.37.43-.46.17-1.13.4-1.8.64Z" fill="#161616" stroke-width="0"></path><path d="M208.76,182.84c-.73.15-1.35.32-2.16.4-.24.02-1.17-.18-1.5-.31-.42-.17-.79-.37-.72-.56.05-.12.84-.25,1.42-.33.1-.02.84.14,1.18.23.57.16,1.05.33,1.79.56Z" fill="#161616" stroke-width="0"></path><path d="M273.3,186.66c-1.91.18-3.6.42-6.03.2-1.44-.13-3.32-.02-5.04-.02,0,0-.05-.02-.04-.04,0-.02.07-.06.12-.06l10.89-.28.1.2Z" fill="#161616" stroke-width="0"></path><path d="M177.89,180.54c1,.33,1.79.58,2.64.86-.38.12-.65.28-1.17.35-.47.07-1.4.11-1.78.05-.55-.08-1.15-.28-1.07-.4.19-.27.81-.52,1.37-.86Z" fill="#161616" stroke-width="0"></path><path d="M87.09,337.24c.93.78,1.79,1.51,2.75,2.21.99,2-.77-.19-.8.24-.02.37-.23.5-.43.86-.77-1.51-1.16-2.49-1.52-3.31Z" fill="#161616" stroke-width="0"></path><path d="M249.25,190.68c3.42-.18,5.44.02,7.39.54-3.03.14-5.15,0-7.39-.54Z" fill="#161616" stroke-width="0"></path><path d="M114.18,197.34c1.33-.55,2.38-1.07,3.59-1.49-2.44,1.86-3.52,2.59-5.22,3.28.45-.53.92-1.01,1.64-1.79Z" fill="#161616" stroke-width="0"></path><path d="M67.53,289.65c.31-.96.61-1.67.92-2.49-.07-.57-.13-1.16-.21-1.81.08.14.2.21.21.38.12,1.51.12,3.04.34,4.74-.36.85-.75.06-1.25-.82Z" fill="#161616" stroke-width="0"></path><path d="M80.39,331.75c.84,1.1,1.43,1.76,1.86,3.01.52,1.46.04,1.2-.54.82-1.32-2.26-.67-2.19-1.32-3.83Z" fill="#161616" stroke-width="0"></path><path d="M227.91,183.24c-2.67.68-3.29.74-4.97.56-.43-.05-.94-.17-.94-.26,0-.08.56-.23.94-.24,1.39-.04,2.8-.04,4.97-.06Z" fill="#161616" stroke-width="0"></path><path d="M91.12,347.12c-.37-.02-.75-.04-1.09-.06-.5-.66-.99-1.31-1.49-1.96-.49-.66-.95-1.37-1.46-2.11.47.25,1.09.9,1.74,1.61.68.69,1.39,1.44,1.99,1.95l.31.57Z" fill="#161616" stroke-width="0"></path><path d="M143.15,380.26c-.78-.36-1.56-.73-2.36-1.1-.8-.38-1.6-.83-2.45-1.27.67.1,1.18.18,1.85.27,1.21.67,3.29,1.34,2.38,1.66-.05.02.63.29.97.44h-.4Z" fill="#161616" stroke-width="0"></path><path d="M218.24,383.85c.65.31,1.2.57,1.85.88-2.26.13-2.51-.58-4.51-.42-.11-.57,1.67-.38,2.66-.47Z" fill="#161616" stroke-width="0"></path><path d="M265.51,182.98c-1.9-.1-3.8-.21-6.27-.34,3.8-.09,7.01-.1,10.81.23-2.04.04-3.35.07-4.66.1.01,0,.12.02.12.02Z" fill="#161616" stroke-width="0"></path><path d="M79.19,328.32c-.53-1.52-.91-2.89-1.52-4.86.84,1.55,1.42,2.26,1.69,3.33.23.97.5,1.93-.17,1.53Z" fill="#161616" stroke-width="0"></path><path d="M204.35,384.38c1.07-.06,1.89-.1,3.16-.17.14.32.27.61.39.89l-.56.03c-.93-.23-1.86-.47-2.99-.75Z" fill="#161616" stroke-width="0"></path><path d="M231.07,180.74c-2.69.18-.39.43-.17.65-1.71.23-2.1-.09-2.8-.31.58-.21,1.13-.41,1.85-.68.4.13.72.24,1.04.34h.07Z" fill="#161616" stroke-width="0"></path><path d="M161.61,180.87c2.13.53,1.89.64-1.44,1.07.43-.32.85-.63,1.44-1.07Z" fill="#161616" stroke-width="0"></path><path d="M177.96,384.24c3.18.3,2.92.79,2.55,1.32-.95-.36-.94-.81-2.88-1.01-.08,0,.18-.17.33-.32Z" fill="#161616" stroke-width="0"></path><path d="M70.63,295.25c-.33.98-.57.89-.79-.47-.11-.57.02-1.33.07-2.33.28,1.23.47,2,.72,2.8Z" fill="#161616" stroke-width="0"></path><path d="M256.17,192.34c1.42-.06,2.84-.11,4.5-.18-1.12.55-1.16.55-4.5.18Z" fill="#161616" stroke-width="0"></path><path d="M69.06,270.99c-.26,2.64-.29,2.75-1.04,2.93.29-1.73.69-1.77,1.04-2.93Z" fill="#161616" stroke-width="0"></path><path d="M265.48,190.26c1.63.06,3.39-.12,5.07.16-2.47.16-3.06.15-5.07-.16Z" fill="#161616" stroke-width="0"></path><path d="M169.7,383.86c.5-.25.83-.45,1.19-.65,1.92,0,1.73.27,1.57.6-.82.01-1.65.03-2.76.05Z" fill="#161616" stroke-width="0"></path><polygon points="252.64 192.06 246.98 192.25 246.86 192.07 252.53 191.9 252.64 192.06" fill="#161616" stroke-width="0"></polygon><path d="M72.48,263.11c-.62,1.85-.96,3.26-1.45,2.89.5-1.1.88-2.85,1.45-2.89Z" fill="#161616" stroke-width="0"></path><path d="M214.2,181.05c.3-.3.49-.51.78-.8.73.24,1.25.42,1.98.66-1,.05-1.71.08-2.76.14Z" fill="#161616" stroke-width="0"></path><path d="M71.24,279.64c-.5-.22-.56-.23-.25-3.43.09,1.15.09,2.06.25,3.43Z" fill="#161616" stroke-width="0"></path><path d="M186.33,383.33c-.87.05-1.74.1-2.8.16.91-.26,1.58-.44,2.72-.76v.62l.09-.02Z" fill="#161616" stroke-width="0"></path><polygon points="263.01 190.03 258.6 190.03 258.57 189.94 262.87 189.94 263.01 190.03" fill="#161616" stroke-width="0"></polygon><path d="M74.88,320.59l1.33,1.78c-.41-.42-.48.54-1.33-1.78Z" fill="#161616" stroke-width="0"></path><path d="M352.68,384.22c1.56-.13,2.26-.03,2.67.32-1.38.05-2.22,0-2.67-.32Z" fill="#161616" stroke-width="0"></path><path d="M87.48,340.74c-.76-1.03-1.16-1.74-1.69-2.55.2.08.27.03.42.19.67.73.97,1.39,1.27,2.36Z" fill="#161616" stroke-width="0"></path><path d="M208.37,382.9h3.08c-1.18.25-1.78.38-2.98.63,0-.35,0-.5,0-.66l-.1.02Z" fill="#161616" stroke-width="0"></path><path d="M258.86,191.3h3.69c-1.6.32-2.64.23-3.69,0Z" fill="#161616" stroke-width="0"></path><path d="M220.61,183.11c-.16-.21-.27-.36-.46-.63.81.1,1.23.12,1.48.18,1.09.25-.03.3-1.02.45Z" fill="#161616" stroke-width="0"></path><path d="M143.72,184.67c-.25-.18-.4-.29-.56-.4.46-.14.75-.24.86-.25.75-.03,1.22-.02-.29.65Z" fill="#161616" stroke-width="0"></path><path d="M261.97,180.51h-3.99c1.31-.37,2.29-.17,3.99,0Z" fill="#161616" stroke-width="0"></path><path d="M71.39,285.8c0,.59,0,1.19-.01,1.75,0,.09-.12.04-.19.05v-1.95s.2.15.2.15Z" fill="#161616" stroke-width="0"></path><polygon points="73.32 312.46 73.07 310.34 73.28 310.66 73.65 312.97 73.32 312.46" fill="#161616" stroke-width="0"></polygon><path d="M96.88,213.71q-1.6,1.46-1.35.49c.58-.19.94-.3,1.31-.42l.05-.08Z" fill="#161616" stroke-width="0"></path><path d="M231,180.75h3.36c-1.43.42-2.21.04-3.28-.01-.01,0-.08.01-.08.01Z" fill="#161616" stroke-width="0"></path><path d="M71.01,264.09c.22-.68.52-1.33.78-2l.02.29c-.27.72-.53,1.45-.75,2.19l-.06-.48Z" fill="#161616" stroke-width="0"></path><path d="M186.25,383.35c.66.04,1.33.08,2.44.15-1.79.23-1.87-.05-2.35-.17l-.09.02Z" fill="#161616" stroke-width="0"></path><polygon points="203.66 384.09 202.22 384.38 201.8 384.27 203.36 384.01 203.66 384.09" fill="#161616" stroke-width="0"></polygon><polygon points="424.51 384.06 426.26 384.27 426.09 384.36 424.16 384.2 424.51 384.06" fill="#161616" stroke-width="0"></polygon><polygon points="166.09 182.62 167.12 182.16 167.85 182.21 166.77 182.67 166.09 182.62" fill="#161616" stroke-width="0"></polygon><path d="M73.67,258.7c-.03.25-.03.48-.08.74-.03.15-.15.34-.23.52.02-.27.04-.54.08-.83,0-.06.12-.24.23-.43Z" fill="#161616" stroke-width="0"></path><path d="M84.23,239.48c-.11-.4.27-1.04.83-1.69l-.91,1.78.08-.09Z" fill="#161616" stroke-width="0"></path><path d="M511.28,385.04s-.07.02-.1.04q-.38.23-.81-.28c.36-.09.77-.06,1.02-.36.05-.05.25.08.39.12-.15-.47-.49-.69-.87-.95-.26.54-.8-.06-1.26-.09.2.35.37.67.56,1.01-.09.18-.19.38-.3.6-.35-.22-.73.02-.95-.51-.23.02-.41.05-.6.06-.18,0-.36,0-.55-.01.42.97.33.97,1.21,1.06.07.17.18.34-.01.43-.31.16-.56.41-1.03.06-.1-.07-.23-.02-.35-.06-.22-.07-.43-.17-.74-.29-.02.02-.11.1-.2.17v-.33c-.3-.02-.61-.04-.9-.05,0,.12,0,.27,0,.41.12.11.24.21.35.33.54.62.99.72,1.39.28.08-.09.17-.2.29-.33.14.28.23.47.33.66-.65.51-1.52.33-2.35.26-.15-.15-.3-.29-.41-.4-.18.09-.31.22-.48.23-.19.01-.41-.09-.61-.14.48,1.11-.14,1.07-.74,1.08.14.17.22.26.31.38-.09.06-.16.1-.18.12-.26-.19-.47-.35-.72-.53q.09.79-.55.77c-.08,0-.17,0-.21.04-.19.21-.45.08-.71,0-.05-.01-.1,0-.21.02.14.09.21.13.28.18.08.07.16.15.23.23-.26.64-.26.65-.86.68-.31.01-.64-.03-.95-.04-.02,0-.03.05-.04.08.13.12.27.24.43.38-.13.06-.31.08-.3.14.06.64-.49.65-.66,1.09-.16-.2-.27-.33-.37-.46-.19-.22-.54-.26-.51-.05.14.07.29.14.45.22,0,.42-.26.42-.49.43-.34,0-.54.14-.49.63-.27-.31-.47-.54-.69-.37.06.3.12.61.2.95-.13.06-.37.07-.38.19-.06.48-.44.42-.75.49-.17.04-.34.12-.53.11-.18-.01-.09.44-.41.2-.03-.02-.18.28-.27.42-.03.04-.08.06-.12.09-.46-.38-.8-.52-.87-.33.08.13.17.26.26.39-.06.05-.09.09-.13.12-.4.23-1.04.17-.98.97,0,.03-.04.06-.07.08-.16.08-.19.32-.5.19-.17-.07-.37.21-.54.32-.24-.22-.4-.56-.66-.39.09.15.18.29.33.54-.53.1-1.02.18-1.52.27.1.11.2.2.32.33-.33.31-.6.67-.96.89-.36.22-.66.64-1.27.34-.06-.03-.14.07-.23.11.12.11.2.18.26.23-.25.37-.49.73-.75,1.08-.07.1-.2.23-.29.19-.3-.13-.42.06-.6.16-.37.2-.5.19-1.11.04-.15-.04-.3-.06-.55-.1.17.2.27.31.36.43-.32.41-1.08-.06-1.32.58.23,0,.4-.01.57-.02l.04.09c-.25.2-.51.41-.74.6-.41-.52-.59-.12-.87-.14q.2.5-.41.77c-.04-.08-.09-.16-.12-.22-.71.29-1.18.89-1.92,1.12-.45.13-.79.5-1.17.77-.65.47-1.28.99-1.96,1.42-.37.24-.82.34-1.24.5.51.28.02.75.5.94-.5.41-.95.79-1.4,1.17q-.31-.34-.86.12c.03.1.04.25.11.32.41.41.49,1.08,1.01,1.41.06.04.13.22.14.32.03.7.63,1.1.96,1.64.39.07.57.51.66.77.16.49.43.93.67,1.37.26.48.38.98.68,1.45.27.42.73.67.86,1.19,0,.03.07.08.1.09.22.1.33.3.46.52.1.16.31.3.46.35.8.26,1.38-.11,1.52-.92.08-.45.23-.51.67-.4.25.07.54.12.73.04.68-.27,1.32-.59,1.97-.91.14-.07.28-.18.34-.33.19-.53.78-.51,1.07-.91.04-.05.14-.05.21-.04.42.05.64-.19.8-.54.11-.24.24-.36.54-.33.21.02.39-.21.53-.38.13-.15.18-.37.44-.34.4.05.59-.2.76-.5.08-.14.17-.31.31-.34.3-.06.48-.24.69-.44.18-.17.55-.09.84-.13.02,0,.03-.01.05-.03.31-.32.58-.72,1.12-.7.1,0,.16-.18.22-.29.07-.13.13-.27.17-.43.07-.25.22-.37.5-.31.37.08.57-.15.8-.35.44-.37.93-.66,1.41-.97.04-.03.11,0,.17,0,.31.02.49-.16.69-.35.16-.15.36-.28.59-.3.44-.03.76-.23.93-.64.1-.25.27-.35.53-.4.55-.1.9-.58,1.51-.58.11,0,.2-.14.28-.24.23-.28.51-.46.87-.58.29-.09.51-.35.75-.55.17-.14.29-.44.5-.45.5-.04.74-.38,1-.73.09-.12.21-.24.35-.3.39-.17.76-.37.97-.79.05-.1.17-.2.29-.19.52.01.83-.27,1.06-.7.07-.14.2-.27.35-.3.44-.1.78-.33,1.04-.69.08-.11.21-.18.34-.24.37-.19.79-.31.99-.75.03-.06.1-.11.17-.11.67.05,1.02-.36,1.27-.92.1-.21.25-.28.5-.2.35.11.59,0,.77-.27.22-.35.49-.67.77-1.04.54.32.89.08,1.17-.33.13-.2.25-.41.41-.57.09-.09.26-.18.37-.12.64.34,1,.07,1.35-.31.17-.19.4-.4.65-.42.49-.03.75-.35,1.04-.66.09-.1.2-.23.33-.23.5-.02.76-.33.99-.73.08-.14.25-.25.41-.26.43-.02.76-.17.98-.54.12-.2.29-.43.5-.44.69-.04,1.1-.46,1.42-1.02.06-.1.17-.23.27-.21.66.11.93-.35,1.27-.76.2-.24.47-.47.77-.51.43-.06.73-.26.95-.61.19-.29.46-.47.78-.6.37-.16.69-.42.97-.71.17-.17.31-.27.59-.26.51.01.97-.1,1.24-.59.1-.19.24-.37.39-.52l2.27-2.27c2.6-2.61,2.6-6.83-.01-9.43-.66-.66-1.45-1.16-2.26-1.48-.2-.08-.38-.18-.54-.32-.3-.25-.61-.39-1.01-.42-.16-.01-.33-.06-.44-.15-.34-.28-.75-.41-1.2-.51-.18-.04-.33-.21-.43-.37-.22-.38-.58-.49-.96-.61-.3-.09-.61-.2-.85-.4-.31-.25-.62-.45-1.07-.4-.29.03-.49-.07-.59-.37-.16-.52-.57-.72-1.02-.86-.23-.07-.47-.2-.59-.41-.29-.5-.77-.67-1.31-.76-.34-.06-.76-.07-.83-.5-.1-.62-.56-.73-1.01-.73-.45,0-.62-.22-.75-.61-.07-.21-.21-.41-.39-.49-.3-.13-.66-.14-.97-.25-.23-.08-.41-.26-.61-.39-.17-.12-.32-.29-.52-.34-.47-.12-.96-.18-1.46-.27-.04-.15-.03-.41-.14-.49-.34-.26-.71-.45-1.22-.35-.31.06-.6.02-.92.03,0-.21.02-.37,0-.5-.02-.13-.04-.32-.13-.36-.49-.19-.97-.47-1.51-.46-.42,0-.62-.17-.81-.46-.05-.09-.11-.18-.18-.28-.22.13-.43.26-.66.39-.08-.15-.13-.3-.23-.4-.23-.24-.22-.76-.68-.73-.47.03-.65-.29-.68-.77,0-.1-.03-.2-.04-.26-.38-.09-.75-.13-1.06-.28-.23-.11-.42-.33-.53-.58-.09-.21-.21-.31-.41-.37-.41-.13-.86-.19-1.1-.6-.34-.58-.87-.87-1.49-1.04-.3-.08-.64-.19-.79-.45-.14-.23-.31-.21-.51-.26-.5-.13-1.08-.19-1.43-.52-.41-.4-.86-.64-1.43-.74-.3-.05-.63-.12-.7-.5-.09-.45-.39-.64-.77-.65-.61-.02-.94-.4-1.21-.9-.54.03-1.02-.06-1.36-.48-.15-.19-.45-.26-.72-.28-.37-.03-.63-.14-.62-.62,0-.1-.04-.19-.08-.31-.68.2-1.15-.12-1.56-.46-.53-.43-1.17-.65-1.77-.93-.23-.11-.44-.19-.52-.49-.03-.12-.21-.24-.32-.2-.39.14-.61-.05-.88-.17-.75-.33-1.34-.89-1.95-1.43-.3-.26-.69-.41-1.02-.63-.35-.23-.7-.47-1.02-.73-.18-.14-.3-.36-.69-.21.23.55.5,1.03.86,1.42.19.2.45.46.42.75-.04.34.11.42.22.59l.68.51-.09.12-.59-.63c-.26.39-.53.44-.79.28-.15-.09-.28-.21-.43-.29-.29-.16-.58-.31-.99.02.06.61-.03,1.28.46,1.67-.41.12-.55-.08-.7-.25-.22-.26-.55,0-.82.02-.31.02-.33.37-.4.44-.32.06-.63.02-.74.16-.35.46-.6.24-.91.29-.49.09-.82-.09-1.16-.31-.06-.04-.17,0-.26,0l-.05.09c.14.12.27.24.4.35-.24.74-.36.84-.71.45-.29-.33-.58-.59-1.08-.57-.12,0-.21-.12-.32-.17-.14-.06-.28-.12-.48-.2-.05.58-.1,1.07-.15,1.66.02.02.11.07.16.17.21.35.64.47.68.99v-.02c.09.04.21.05.29.12.3.27.64.51.87.85.14.2-.05.67.24.8-.18.3-.35.41-.54.3-.14-.08-.27-.16-.39-.26-.24-.22-.51-.47-.75-.7-.72.59-1.04.09-1.5-.03.67.59,1.35,1.18,2.07,1.82-.18.11-.28.16-.38.22v.11c.25-.05.52-.09.82-.14,0-.22.01-.36.02-.55.31.05.59.1.92.15.11-.45.2-.82.29-1.2.35.14.7.28,1.07.43-.07.7-.02.75.77.79.06-.22.13-.44.19-.68.51-.16.92.15,1.44-.18.06-.04.16.06.23.11.07.05.14.16.22.14.45-.12.35.25.32.53.18,0,.35.01.48.02-.09.28-.15.49-.22.7.54.06.59-.61.92-.76.03-.25.05-.46.07-.7.31-.01.24.2.19.41-.05.24-.16.48,0,.67.25.29.47.62.71.95-.26.21-.5.42-.38.73.2,0,.3-.6.51-.26-.05.13-.09.24-.17.45.2-.12.31-.18.42-.26.11-.08.22-.18.32-.28.25-.26.55-1.08.39-1.15-.47-.19-.06-.54.01-.83.23,0,.42.04.61,0,.22-.05.42-.21.5-.51.05-.21.03-.43-.16-.36-.4.16-.57-.17-.89-.17-.05,0-.07-.12-.11-.19.21-.02.35.06.5.09.16.03.33.04.5-.2.32-.44.61-.41.89-.23.13.08.24.18.39.29.44-.48.77-1.12,1.36-1.32.06-.02.13-.18.19-.28.3.33.28.45-.11.8-.08.08-.18.24-.18.32.03.33-.17.4-.37.42-.16.02-.3-.03-.51-.06-.02.58-.33.96-.75,1.33.23.09.41.17.59.24-.22.48-.47.34-.68.37-.32.04-.62,0-.9-.01-.18.27-.31.47-.5.77.31.32.31,1,.87,1.1.28-.39.52-.73.8-1.11.05-.17-.34-.24.07-.63.16.37.31.72.51,1.21.11-.53.2-.93.3-1.42.15-.04.36-.17.47-.11.27.13.47-.01.67-.32-.03-.1-.05-.2-.11-.4.33-.04.58-.1.82-.09.09,0,.2.12.2.21-.04.57.36.66.69.87-.56.24-1.1.47-1.68.71l.3.59c-.26-.08-.47-.14-.68-.21-.42.59-.45,1.2-.45,1.79.1,0,.2,0,.38,0-.23.26-.39.44-.52.59-.05.31-.02.63-.16.88-.28.48-.13.79-.16,1.3.25-.37.4-.61.56-.85-.07-.31-.07-.63-.01-.96.03-.19.41-.29.37-.2-.14.36.28.4.11.76-.05.1.01.24.04.48.35-.45.44-.08.69.02.04-.29.07-.51.11-.83.16.13.25.21.36.3.1-.19.17-.31.23-.43l.07.02c-.04.35-.09.7-.13,1.04.4-.28.46-.27.44.15,0,.19-.05.4-.08.6,0,.03-.06.06-.09.09-.12-.06-.23-.12-.36-.18-.29.71-.29.76,0,1.11.24-.36.47-.72.72-1.09.36-.01.13.67.6.58.04-.34.17-.66.65-.75-.12.35-.22.65-.34,1.01.2-.14.32-.23.37-.26.3.2.56.37.87.57-.23.24-.45.47-.7.73.13.15.06.53.34.6.08-.36.15-.68.23-1.06.18.06.27.13.38.11.24-.04.3.48.67.05.06.16.17.26.35.25-.06.11-.11.27-.19.32-.16.11-.34.17-.62.29.44.22.7.49.6,1.09.47-.52.26-1.01.52-1.57.21.28.38.5.58.76.02-.01.12-.06.2-.1.09.11.18.21.26.32.07.09.21.16.2.27-.02.18-.17.33-.36.38-.07.02-.14.08-.24.15.12.13.22.22.31.31-.4.69.11.9.14,1.48.29-.52.5-.9.72-1.29.03-.15-.16-.28.21-.51-.1.23-.17.37-.23.52.2,0,.4.03.62,0,.32-.05.37.15.32.45-.02.12-.08.24-.11.34.23.18.59.04.73.4-.23.16-.44.3-.68.45.04.11.05.22.1.29.05.07.13.11.19.17h-.02c.38-.54.85-.91,1.41-1.18.03.14.06.28.09.39.51-.39.52-.82.35-1.22.2-.24.38-.44.6-.7-.21-.06-.36-.1-.52-.14.13-.26.28-.49.54-.52.45-.04.67-.47.91-.85.29-.46.13-.77-.05-1.1.15-.08.26-.14.39-.21.09.17.18.32.28.5.33-.43.64-.82.94-1.21.44.2.86.39,1.28.58-.25.31-.46.58-.71.89.02.08.05.21.09.34l-.14.14c-.22-.06-.44-.13-.64-.18.07-.25.11-.41.15-.58-.2-.03-.38-.05-.61-.08-.07.17-.23.39-.2.48.14.37-.11,1.04.45,1.13-.55.07-.4.59-.61.85-.29,0-.59.01-.84.02-.15.44-.26.77-.39,1.15.18.15.34.55.16.81-.25.35-.1.49-.11.71-.03.35-.05.7-.1,1.05-.03.24-.09.46.21.5.2-.37.42-.74.62-1.11.18.04.33.07.52.11.22-.25.45-.5.63-.7.32-.02.6-.03.9-.05-.24.44-.4.87-.12,1.17-.13.12-.32.25-.32.3.02.42-.25.99.17,1.26.09-.27.12-.55.26-.76.22-.32.49-.4.7-.19.59-.34.66-.9.76-1.43.4-.1.58.06.41.39-.25.46-.42,1.05-1.07,1.22.26.09.42.15.59.21.17-.17.32-.32.49-.49.09.13.17.24.24.35.24-.06.4-.62.66-.32-.18.18-.34.35-.57.58.27.12.48.22.67.31.01.26.02.52.04.88.25-.31.4-.51.64-.81.05.37.09.64.13.96.2-.21.36-.37.52-.54.48-.25.46.41.86.34-.12.29-.21.53-.32.8.37-.19.67-.32.97-.51.29-.19.56-.33.87-.33.45,0,.48.04.15.57-.03.05-.07.09-.12.16.16-.02.29-.04.49-.07-.21.22-.35.37-.49.52.11.05.2.09.32.15-.21.27-.56.47-.44.86.39-.38.7-.16,1.06-.23.45-.09.49.51.98.33,0,.26.05.55-.04.66-.17.19-.43.27-.66.39-.14.62-.13.67.37,1.22.11-.52.11-1.05.62-1.48.07.18.14.34.24.57.1-.33.17-.55.24-.82.37-.12.71-.23,1.1-.35-.17.29-.33.56-.49.82.28-.19.49-.51.71-.59.24-.09.48.05.7.09.15-.17-.05-.44.28-.51.02.42.09.79.5.87l-.74.23c0,.39-.45.21-.47.61-.22-.15-.39-.25-.56-.37-.1.14-.21.28-.36.47.21.08.37.14.5.19.09.23-.31.54-.04.71.32-.21.54-.85,1.06-.62-.03.07-.09.22-.15.41.44-.36.74-.59,1.04-.83-.08-.06-.16-.12-.26-.19q.24-.05.24.2c.01.23.03.47.05.81.19-.29.3-.48.43-.65.13-.17.28-.32.41-.47.55.33.3,1.13.47,1.57-.46.41-.9.67-1.24,1.25q.73-.33,1.02-.24c-.08.09-.16.17-.31.33.3-.02.37.37.72.13,0,0,.1.24.08.26-.25.26-.52.5-.74.7-.21.88.05,1.47.35,2.01.24-.22.48-.43.71-.64v.03c.04-.73-.57-.78-.88-1.21.25-.26.48-.5.7-.74.13.06.21.14.32.15.64.07,1.2.3,1.64.75.05.06.18.11.23.07.35-.27.5,0,.71.1.08-.07.16-.15.2-.19.19.19.36.37.53.53.16-.15.25-.24.35-.33.11.25.21.47.31.69l.14-.09c.03-.34.06-.68.09-1.09.16-.09.33-.19.56-.33-.02.3-.04.49-.06.76.24-.11.47-.21.72-.32.06.09.13.2.14.22-.22.59-.41,1.08-.64,1.69.3-.19.51-.33.72-.47-.1.2-.05.28.08.33.02,0-.07.25-.12.41.26-.09.46-.18.66-.22.08-.02.23.06.22.1-.1.41.42.33.32.74,0,.01.03.03.08.05v-4.15c-.05.06-.11.16-.1.22.07.33-.08.31-.28.28-.12-.02-.23-.02-.32-.02-.06.83-.7.53-1.22.49.1.28.17.49.22.64-.41.47-.79.89-1.19,1.34-.11-.13-.24-.28-.3-.36-.3.16-.57.3-.85.45.01.07.03.17.05.28-.35-.15-.33.36-.63.3q-.52-.84-.64-.84c.1.23.22.46.28.69.06.26-.11.43-.33.3-.51-.29-.86-.19-1.15.14-.28-.57-.59-.56-.97-.38.17-.65.32-1.2.46-1.74l-.08-.07c-.19.14-.37.29-.54.42-.28-.1-.54-.2-.82-.3.05.29.09.54.13.79.07,0,.18.02.43.05-.27.18-.43.28-.65.43.45.5.87.98,1.27,1.43-.08.16-.15.31-.23.45-.1.18-.81.17-.9-.04-.24-.56-.36-.24-.51-.13v-.03c.12.21.25.42.36.61-.24.26-.47.5-.72.76-.16-.14-.29-.28-.44-.37-.08-.05-.25-.07-.26-.03-.02.09,0,.27.05.34.35.36,0,.27-.14.35-.06-.28-.12-.57-.17-.84-.72-.47-1.36-.56-1.78-.11-.27-.13-.48-.23-.7-.33.15.39.42.79.38,1.04-.05.34-.08.66.08,1.11-.15-.13-.22-.18-.29-.24-.04.32.01.75-.5.5ZM504.88,365.83c.02-.34.15-.44.54-.39-.1.25-.45.48-.28.75l-.25.18c-.3.2-.39.41-.12.6-.43.23-.46-.06-.5-.34-.24.13-.45.24-.68.36.07-.56.74-.62.76-1.15.33-.09.45.07.36.35-.11.33.18.08.19.19-.01-.19-.04-.37-.03-.56ZM503.47,366.12c-.05.13-.1.26-.17.47-.22-.12-.38-.24-.58-.31-.2-.07-.43-.08-.57-.1,0-.39,0-.65,0-.99.06-.01.24-.09.27-.03.16.29.37.42.75.16,0,0,.04.11.06.17.06-.06.15-.16.26-.27.11.12.22.22.32.33-.12.21-.23.41-.34.61v-.04ZM510.3,386.57c-.28.11-.53.2-.81.3-.2-.41-.27-.75-.12-1.03.1-.19.21-.42.56-.17.12.29.25.6.37.9ZM481.85,354.78c-.18-.14-.37-.29-.67-.51.36-.08.57,0,.81-.3.25-.29.51-.13.89,0-.41.32-.7.55-1.03.81ZM487.72,355.21c0-.37,0-.74.01-1.09.31-.19.27.06.35.15.09.09.27.05.49.09-.17.3-.32.57-.48.85-.15,0-.26,0-.38,0ZM503.7,364.75c-.31-.46-.29-.53.45-1.33-.05.17-.07.26-.1.35-.02.08-.05.17-.08.3.15-.01.27-.02.53-.05-.35.32-.57.53-.8.73ZM507.88,363.5c-.1.19-.19.38-.33.65-.16-.37-.3-.68-.45-1.03.6-.27.49.32.78.38ZM497.65,363.7c-.03-.38-.06-.69-.08-1.01l.1-.08c.2.19.4.37.66.62-.21.15-.41.28-.68.47ZM499.09,362.97c.43-.05.76-.05.72.51-.28.11-.51-.35-.82.24l-.09-.08c.06-.23.13-.45.19-.67ZM491.93,353.38c0,.1-.04.3-.05.3-.21.05-.42.11-.62.1-.07,0-.12-.17-.11-.27,0-.06.17-.19.26-.21.16-.04.3-.02.43-.02.05.04.09.06.09.09ZM505.25,364.06c-.36.21-.54.62-.96.69.17-.32.34-.63.52-.98.16.11.27.18.43.28ZM475.01,354.45c.48,0,.7.38.96.71-.54.07-.69-.4-.96-.71ZM490.26,358.35q-.39.38-.64.1c.2-.03.4-.06.64-.1ZM482.37,402.73c-.23.13-.4.21-.56.3l-.1-.16c.06-.3.2-.42.65-.14ZM513.4,384.05c-.19-.19-.32-.33-.58-.6.28,0,.42-.01.62-.02-.02.23-.03.37-.04.61ZM489.05,358.56c-.06.04-.1.09-.12.08-.22-.07-.39-.17-.01-.61.06.24.1.38.13.52ZM498,366.71c-.03-.2-.07-.36.15-.58.12.19.19.35-.15.58ZM504.91,363.55s.02-.14.05-.18c.18-.18.3-.13.32.21-.12,0-.25-.01-.37-.03ZM480.69,350.2l-.07.17-.47-.12.08-.18.47.13ZM514.21,384c-.02.13-.02.22-.05.27-.05.06-.13.09-.26.18-.09-.45.03-.5.32-.45ZM505.84,366.02s-.14-.02-.13-.03c.04-.12.09-.23.13-.35l.17.02c-.06.12-.11.24-.17.35ZM501.06,362.03q-.03-.28.32-.45c-.13.18-.21.3-.32.45ZM501.19,367.56s.02.09,0,.1c-.05.05-.1.08-.16.12,0-.04,0-.07-.01-.12l.16-.1ZM498.44,365.61l.02.06-.23.16-.02-.08.23-.14ZM503.2,368.17s.02.06.03.1l-.28.18-.02-.1c.09-.06.18-.12.27-.18ZM490,359.45s-.15.06-.15.05c-.01-.07,0-.16.01-.24,0-.02.09-.04.18-.07-.02.11-.01.19-.04.27ZM482.53,352.53l-.05.08-.32-.21.06-.08.32.21Z" fill="#161616" stroke-width="0"></path><path d="M517.25,380.02c.07-.1.2-.26.19-.3-.2-.51.26-.8.58-1.25.37.77.46,1.65.7,2.44-.26.15-.43.29-.61.11-.13-.12-.38-.09-.61-.14.25-.52.08-.76-.24-.89v.03Z" fill="#161616" stroke-width="0"></path><path d="M486,358.76c.44.12.39.42.2.8-.08.17-.09.36-.16.54-.04.11-.14.22-.32.34,0-.25.05-.51.02-.74-.03-.23-.12-.43-.22-.74.03-.05.13-.21.24-.36.16-.21.35-.4.5-.61.17-.23.35-.29.45-.15.04.06-.06.34-.16.47-.11.15-.28.23-.56.45Z" fill="#161616" stroke-width="0"></path><path d="M487.21,357.52c.3-.19.48-.3.71-.45-.1.74-.66,1.41-.55,2.09-.12.14-.27.3-.43.47-.04-.04-.09-.07-.09-.11,0-.19.04-.4,0-.56-.03-.13-.15-.21-.23-.32.28-.17.53-.33.8-.5.08-.26.17-.51-.2-.62Z" fill="#161616" stroke-width="0"></path><path d="M520,381.09c.13.25.26.51.37.73-.04.12-.05.17-.07.2-.52.63-.64.62-.75-.07-.08-.53-.08-.53.45-.87Z" fill="#161616" stroke-width="0"></path><path d="M476.03,356.75q.59-.19.93-.64c.07.05.15.08.21.14.12.13.28.29.08.54-.17.21-.43.43-.66.32-.17-.08-.32-.2-.55-.36Z" fill="#161616" stroke-width="0"></path><path d="M495.32,368.66c-.08-.46,0-.92.37-1.36.08-.09.24-.17.32-.16.08.02.15.16.14.26-.02.14-.08.36-.18.45-.25.24-.23.74-.65.8Z" fill="#161616" stroke-width="0"></path><path d="M519.78,380.81c-.26-.17-.5-.33-.77-.5.46-.32.11-.61.3-.88.58.21.69.5.47,1.39Z" fill="#161616" stroke-width="0"></path><path d="M500.51,371.14c-.15.07-.26.12-.43.19.05-.32.1-.6.15-.94-.13.1-.22.17-.32.24l-.06-.04c.1-.17.19-.36.32-.49.1-.1.29-.18.37-.14.1.06.2.22.18.36-.02.24-.13.5-.22.8Z" fill="#161616" stroke-width="0"></path><path d="M477.33,347.19c.43.06.9.05,1.28.22.3.13.49.48.8.8-.79-.32-1.47-.6-2.16-.89l.08-.14Z" fill="#161616" stroke-width="0"></path><path d="M497.58,369.59c-.07.04-.2.1-.34.17-.08-.27-.15-.53-.22-.78q.63-.39.99-.38c-.13.3-.26.6-.42.98Z" fill="#161616" stroke-width="0"></path><path d="M521.97,377.88c-.15-.18-.34-.4-.53-.64.42-.41.5-.39.77.13.04-.06.07-.12.13-.21.07.14.13.25.18.37l.32.06.03.12c-.28.05-.56.1-.91.17Z" fill="#161616" stroke-width="0"></path><path d="M520.68,377.64c-.65-.22-.76-.33-1.15-1.22.2.13.41.2.52.35.3.41.48.34.66.11.05-.06.15-.06.23-.08l.09.12c-.09.1-.2.18-.27.31-.05.1-.05.25-.08.41Z" fill="#161616" stroke-width="0"></path><path d="M521.44,375.45c.45.11.81.2,1.18.29.15.32.14.54-.13.61-.3.08-.64-.2-1.05-.91Z" fill="#161616" stroke-width="0"></path><path d="M521.68,382.16c-.39-.15-.38-.51-.43-.86.12,0,.22,0,.38-.01-.03-.17-.05-.31-.08-.46.48-.04.51-.03.41.4-.06.29-.17.57-.28.93Z" fill="#161616" stroke-width="0"></path><path d="M508.55,376.49c-.03-.36-.07-.72-.1-1.07.61-.13.66-.11.64.22-.03.48-.17.69-.54.85Z" fill="#161616" stroke-width="0"></path><path d="M506.66,373.81c.05-.4-.35-.68.09-1.26.24-.31.41-.13.65-.47-.3.69-.52,1.21-.75,1.73Z" fill="#161616" stroke-width="0"></path><path d="M521.45,382.63c.3.05.59.1.95.17-.34.43-.33.93-.74,1.3.12-.7.18-1.08-.21-1.47Z" fill="#161616" stroke-width="0"></path><path d="M502.28,371.99c.26-.18.52-.35.84-.57-.05.31-.05.6-.16.85-.09.18-.33.31-.54.49-.05-.28-.09-.53-.14-.77Z" fill="#161616" stroke-width="0"></path><path d="M492.1,366.09c-.11-.31-.19-.57-.29-.84-.06-.19-.05-.21.29-.46,0,.38.12.64.55.46,0,.48-.38.56-.55.85Z" fill="#161616" stroke-width="0"></path><path d="M483.16,359.67c.02.76,0,.82-.77,1.33.05-.18.1-.33.13-.47.03-.15.04-.3.06-.47.15-.1.37-.24.58-.39Z" fill="#161616" stroke-width="0"></path><path d="M482.67,357.73c.17-.06.35-.15.5-.15.04,0,.05.25.02.38-.04.18-.1.38-.21.53-.07.1-.24.14-.37.16-.02,0-.03-.19-.02-.29.01-.18.05-.36.08-.62Z" fill="#161616" stroke-width="0"></path><path d="M476.49,349.11c.34.01.69-.05.89.34.11.23.41.3.63.44,0,0,0,.02-.02.04-.01.02-.04.05-.05.04-.52-.23-1.04-.46-1.55-.68l.1-.18Z" fill="#161616" stroke-width="0"></path><path d="M485.36,362.26c.05-.36.09-.63.13-.94.12-.07.23-.17.34-.19.1-.02.24.03.26.11.02.12,0,.33-.08.43-.17.21-.39.37-.65.6Z" fill="#161616" stroke-width="0"></path><path d="M515.22,376.27c.34-.21.67-.41,1.01-.61.08.48-.36.38-.47.64-.09.22-.23.42-.41.75-.06-.36-.1-.58-.13-.77Z" fill="#161616" stroke-width="0"></path><path d="M481.79,347.77c-.54-.14-.69-.47-.65-1.07.46.14.66.44.65,1.07Z" fill="#161616" stroke-width="0"></path><path d="M493.58,367.26c-.04-.31-.07-.56-.11-.83.55-.04.7.07.72.51-.18.09-.35.18-.61.32Z" fill="#161616" stroke-width="0"></path><path d="M506.68,375.49c.1-.39.17-.69.26-1.03-.1,0-.2,0-.31,0,.06-.05.13-.14.16-.13.21.07.42.16.65.26-.13.42-.41.63-.76.92Z" fill="#161616" stroke-width="0"></path><path d="M512.59,378.1c.29-.09.48-.14.5.16.03.35-.18.55-.43.77-.33-.18.03-.62-.07-.93Z" fill="#161616" stroke-width="0"></path><path d="M480.43,355.79c.71-.34.83-.34.94-.05.03.07.03.22-.02.29-.05.07-.2.15-.25.12-.2-.08-.38-.2-.67-.37Z" fill="#161616" stroke-width="0"></path><path d="M515.12,379.2c-.18.22-.37.43-.54.63-.19-.15-.36-.3-.56-.47.38-.32.72-.16,1.08-.3l.02.14Z" fill="#161616" stroke-width="0"></path><path d="M523.08,375.97l.24.06v7.04s-.14-.9-.14-.9c.15-.05.26-.08.41-.13.01.18.08.34.07.51v-6.01c-.14-.06-.26-.17-.35-.41-.01-.03-.14-.03-.22-.05v-.12Z" fill="#161616" stroke-width="0"></path><path d="M513.62,382.31c-.25-.2-.47-.38-.72-.58.22-.29.64.28.81-.03.33.47,0,.46-.08.61Z" fill="#161616" stroke-width="0"></path><path d="M475.47,352.84c.19.25.37.49.62.82-.54-.25-.95-.51-1.26-1.11.28.14.47.22.65.31v-.02Z" fill="#161616" stroke-width="0"></path><path d="M512.43,377.4c-.08-.3-.15-.56-.26-.94.28.03.52-.09.55.16.02.23.01.5-.29.78Z" fill="#161616" stroke-width="0"></path><path d="M515.11,380.69c-.11.14-.19.24-.31.41-.19-.26-.37-.48-.54-.71l.06-.07c.25.12.49.23.79.37Z" fill="#161616" stroke-width="0"></path><path d="M478.66,357.61c.44.08.28-.32.38-.53.34-.05.22.25.19.49-.19.13-.37.25-.61.41.02-.14.04-.26.05-.37h-.02Z" fill="#161616" stroke-width="0"></path><path d="M487.35,363.61c.13-.74.21-.8.71-.68-.21.2-.42.4-.71.68Z" fill="#161616" stroke-width="0"></path><path d="M518.57,378.59c-.57.02-.81-.41-1.05-.89.32.22.57.6.92.6.01,0,.07.16.13.29Z" fill="#161616" stroke-width="0"></path><path d="M508.83,373.77c-.13.45-.27.63-.47.56-.08-.03-.08-.23-.13-.42.26-.06.42-.1.59-.14Z" fill="#161616" stroke-width="0"></path><path d="M481.81,345.8c-.21-.07-.43-.15-.67-.23.44-.36.45-.36.67.23Z" fill="#161616" stroke-width="0"></path><path d="M504.91,373.28c.36.15.36.18-.01.81-.14-.24.04-.54.01-.81Z" fill="#161616" stroke-width="0"></path><path d="M479.48,346.75c-.17-.19-.5-.18-.56-.56.41.07.47.13.56.56Z" fill="#161616" stroke-width="0"></path><path d="M519.83,378.2c.08.26.15.45.21.65-.24.17-.37-.08-.53-.37.1-.08.19-.17.32-.28Z" fill="#161616" stroke-width="0"></path><polygon points="482.11 346.33 482.94 346.65 482.86 346.81 482.04 346.48 482.11 346.33" fill="#161616" stroke-width="0"></polygon><path d="M505.04,370.88c.12.33.22.56-.11.99.03-.35-.16-.54.11-.99Z" fill="#161616" stroke-width="0"></path><path d="M480.99,358.77c-.21.23-.34.39-.54.6.04-.27.07-.45.11-.72.16.04.27.07.43.12Z" fill="#161616" stroke-width="0"></path><path d="M507.54,371.53q-.31.42-.68.12c.23-.04.41-.07.68-.12Z" fill="#161616" stroke-width="0"></path><path d="M517.99,380.05c.08-.11.17-.23.27-.37.02.29.04.5.07.87-.16-.24-.25-.38-.34-.52v.02Z" fill="#161616" stroke-width="0"></path><polygon points="479.67 347.15 480.23 347.52 480.19 347.6 479.64 347.24 479.67 347.15" fill="#161616" stroke-width="0"></polygon><path d="M510.89,377.42l.58-.32c-.19.15-.32.56-.58.32Z" fill="#161616" stroke-width="0"></path><path d="M496.19,393.33c-.13.24-.27.21-.52-.04.15-.16.28-.19.52.04Z" fill="#161616" stroke-width="0"></path><path d="M514.72,377.86c-.16-.1-.26-.17-.37-.25.09-.09.14-.16.18-.18.21-.07.25.07.19.42Z" fill="#161616" stroke-width="0"></path><path d="M515.41,382.27c-.09.06-.19.12-.39.26.01-.31.02-.47.03-.78.19.29.28.42.36.55v-.03Z" fill="#161616" stroke-width="0"></path><path d="M480.9,346.44c-.13-.09-.26-.17-.47-.31.38-.13.47.03.47.31Z" fill="#161616" stroke-width="0"></path><path d="M481.3,356.51c-.1.19-.16.32-.29.57-.05-.15-.09-.21-.09-.28,0-.3.17-.25.38-.29Z" fill="#161616" stroke-width="0"></path><path d="M489.94,364.42c-.11.22-.18.35-.25.49-.06-.03-.11-.04-.11-.06,0-.18.02-.34.36-.42Z" fill="#161616" stroke-width="0"></path><path d="M474.57,355.2c.22.14.34.22.51.34-.37.2-.39-.05-.51-.34Z" fill="#161616" stroke-width="0"></path><path d="M508.42,371.86c.06.06.13.12.19.19,0,.01-.06.11-.1.16l-.22-.2.13-.15Z" fill="#161616" stroke-width="0"></path><polygon points="510.52 375.82 510.45 375.37 510.56 375.3 510.69 375.72 510.52 375.82" fill="#161616" stroke-width="0"></polygon><path d="M497.33,367.79q.18.3-.2.64c.1-.29.16-.47.22-.65h-.02Z" fill="#161616" stroke-width="0"></path><path d="M478.67,357.6l-.43-.29c.41-.22.3.16.41.3h.02Z" fill="#161616" stroke-width="0"></path><polygon points="504.51 372.02 504.44 371.56 504.52 371.51 504.64 371.94 504.51 372.02" fill="#161616" stroke-width="0"></polygon><path d="M518,380.03c-.11.02-.22.04-.4.08.11-.34.27-.12.39-.06v-.02Z" fill="#161616" stroke-width="0"></path><polygon points="515.36 380.88 515.39 380.52 515.5 380.57 515.44 380.92 515.36 380.88" fill="#161616" stroke-width="0"></polygon><polygon points="487.07 399.51 486.72 399.48 486.7 399.39 487.04 399.36 487.07 399.51" fill="#161616" stroke-width="0"></polygon><polygon points="487.94 361.58 487.57 361.86 487.53 361.74 487.89 361.47 487.94 361.58" fill="#161616" stroke-width="0"></polygon><path d="M504.56,370.38c.05-.01.11-.04.15-.03.02,0,0,.09,0,.14-.05.01-.11.03-.16.03,0,0,0-.07,0-.13Z" fill="#161616" stroke-width="0"></path><path d="M503.47,366.12c-.19.21-.26.11-.26-.13l.25.17v-.04Z" fill="#161616" stroke-width="0"></path></svg>