<?xml version="1.0"?><svg id="Layer_1" xmlns="http://www.w3.org/2000/svg" viewBox="0 0 600 600"><path d="M253.97,229.81c-.14-.03-.57-.02-.87-.02q-3.82-.01-4.46-.68c3,.12,5.78.37,8.96.26.57-.02,1.46.2,2.22.31,1.15-.47-.29-.84-1.79-1.27-4.35.31-5.45-.48-8.58-.76-.26.4-.49.76-.74,1.16-1.54.1-3.19.21-4.99.33-1.49-.38-5.31-.38-4.44-.95-1.76-.11-3.16-.2-4.55-.28-1.29-.1-2.56-.21-3.88-.31-1.56,1.05-2.23.99,3.71,1.55-.28.19-.3.38-2.11.36-2.93-.04-5.99.04-7.71-.52-.35-.11-1.55-.14-2.2-.24-1.21-.18-2.31-.38-3.91-.65-.23,0-1.26.02-2.28.03l1.55-.27c-2.11-.18-4.22-.37-6.2-.54-.69.12-1.49.26-2.26.4.45.13,1.16.25,1.33.41.96.82,3.71,1.14,8.62,1,1.09-.04,2.17-.07,3.6-.12-.32.31-.53.52-.76.74-3.54.04-6.65-.1-9.58-.32-.75-.05-1.4-.12-2.22-.16l-1.4-.02c-.46.02-.93.07-1.39.11-1.85.22-3.68.73-5.41,1.57-.54.09-1.11.18-1.52.29-2.04,1.39-3.47,3.02-4.51,4.39-1.16,1.55-2.04,2.89-2.76,4.55.11.72.04,1.58.02,2.59,0,.51-.07,1.04-.06,1.61,0,.29,0,.58,0,.88v.45s0,.34,0,.34c.02,1.82-.16,3.96-.32,6.11.22-.21.34-.33.49-.48v1.85c-.3.95-.55,1.74-.84,2.63q.71,3.1.34,7.53c-.04.53-.1,1.18-.08,1.7.07,2.3-.18,3.61-.39,5.11-.04.28-.04.73-.1,1.65.15-.56.22-.9.31-1.1.1-.26.22-.4.31-.57.39,4.9.4,4.93.09,9.32-.16,2.28-.37,4.44-.56,6.67-.01.15.03.47.04.67.17-.39.35-.79.56-1.26-.03,1.23-.11,2.57-.05,2.82.57,2.61.27,6.58.55,9.88-.26.21-.42.3-.59.49-.29.33-.52,2.62-.32,3.39.14-.69.28-1.41.43-2.2.18.96.23,1.93.22,2.87,0,.47-.02.93-.05,1.38-.01.22-.03.44-.04.66-.02.19-.02.49-.05.58-.24,1.53-.58,2.68-.86,3.97-.52.04-.8.11-1.75,1.15-.23.59-.5,1.25-.98,1.88-.69.39-1.8.71-2.23.86-.2.11-.41.19-.63.24-.21.05-.42.14-.64.15-.22.02-.43.04-.65.05-.26,0-.62,0-.92,0-1.26-.03-2.5-.13-3.77-.18-1.44-.06-3.01-.08-4.3-.19-1.27-.11-2.7.32-3.86-.06-.1-.03-2.56.14-3.94.2-.41.02-.88,0-1.29,0-1.5-.57-3.33-.87-4.67-.76v.47c-.64.01-1.08.02-1.52.03-3.97-.03-8.26-.43-11.62.27-.14.03-.57.03-.86.03-1.47-.02-2.85.17-4.5-.12-.9-.16-3.61-.03-5.41-.03-.7-.32-.25-.69-2.87-.69-.05.18-.09.34-.17.63-4.25-.21-8.17-.41-12.2-.61.25.15.48.28.76.45-3.78.08-7.45.23-11.08.21-3.62-.02-7.75.17-10.7-.41-.3-.06-1.32-.02-2.18-.03.37.16.61.26.78.33-3.54.17-6.98.33-10.43.49-.96.04-2.51.09-2.96,0-.76-.14-1.57-.18-2.42-.19-.43,0-.86,0-1.29,0h-.69s-.88.05-.88.05c-2.38.16-3.85.57-5.29,1.05-1.42.52-2.91,1.05-4.99,2.5-1.02.75-2.12,1.64-3.51,3.36.45-.19.7-.27.95-.37-1.68,2.4-2.79,4.78-3.36,7.4-.15.65-.26,1.32-.3,2-.03.32-.06.74-.07.98,0,.25-.01.51-.02.76-.02,1.03,0,2.11.11,3.28.12-1.68.21-2.91.3-4.15l.1.17c.03,2.77.06,5.55.09,8.15-.66.45-.42,3.64-.59,5.55q.53.95.42,6.52c-.09-.06-.18-.12-.25-.16-.15,6.4.1,12.65-.12,18.98-.13,3.83-.01,7.98,0,11.99.04,6.92.12,13.84.11,20.76,0,3.76-.17,7.51-.26,11.27.51-2.35.64,3.39,1.06.83.07,5.49.14,10.55.2,15.54q-.45.61-.37,6.73c.1.25.24.89.33.73.57-1,1.17,1.55,1.74-.62.07-.27.26.08.34.5.6,3.11,1.27.71,1.9.84.27-2.44.74-1.71,1-1.11.5,1.14,1.01,1.28,1.51,1.61.54.36,1.02,1.87,1.59,1.95.5.07.96-2.05,1.46-.53.03.09.1-.11.14-.29.21-1.13.43-.95.69-.88.18.05.42-.76.55-1.64.66-4.45.67-10.4.06-15.27-.33-2.68-.3-4.06.03-6.66.19-1.49.4-3.27.44-5.05.15-6.1.23-12.25.32-18.4.02-1.31,0-2.85-.09-3.97-.34-3.88,0-8.04-.17-11.97-.02-.49.04-1.18.08-1.69.27-2.77.19-5.51-.01-8.23-.14-1.87-.17-3.41.02-5.48.13-1.42.04-3.74-.03-5.58-.05-1.61-.21-3.07-.04-4.74.26-2.6.16-5.18,0-7.82-.07-1.2-.17-2.68-.11-3.8.11-2.42.06-4.6,0-7.03,0-.26,0-.52,0-.79v-.4c.02-.09.03-.12.04-.18.03-.22.07-.44.16-.65.13-.42.37-.8.59-1.14.03-.04.06-.1.08-.15.48-1.32,1.8-2.49,3.25-2.47.14.03.31-.03.51-.09.1-.01.2-.04.31-.07.07-.01.06-.03.2-.04.13,0,.26-.02.38-.03,1.12-.07,2.23-.16,3.25-.26,1.72-.17,3.29-.19,5.01.02,2.25.27,4.76.18,7.38.15,4.85-.06,9.75-.04,14.63-.04.41,0,.83.06,1.23.09,2.13.18,4.31.14,6.6.09,1.84-.04,3.93-.04,5.61.07,3.33.22,6.49.22,9.63-.02,1.92-.15,3.62-.14,5.64-.04,4.37.22,9.17.01,13.51.35.81.06,2.08-.01,3.1-.05,2.98-.11,5.85-.11,8.91,0,2.54.08,5.31,0,7.97-.04,1.93-.03,4.13-.21,5.7-.1.93.06,1.84.1,2.74.11h.33s.4,0,.4,0l1.08-.04c.72-.02,1.43-.13,2.14-.25,2.83-.5,5.49-1.63,7.84-3.26,1.68-1.18,3.32-2.71,4.63-4.31,1.86-2.27,3.21-4.94,3.9-7.76.19-.7.31-1.41.4-2.13.12-.71.13-1.43.15-2.14.03-.83,0-1.12-.03-1.59-.03-.43-.05-.87-.08-1.31-.06-.87-.07-2.16,0-2.97.3-3.68.23-7.23,0-10.91-.07-1.18-.11-2.69-.06-3.88.16-3.61.15-7.11,0-10.7-.05-1.12-.03-2.38-.02-3.56.04-3.56.17-7.13-.09-10.61-.04-.48-.03-1.27,0-1.72.41-4.57.26-9.07-.07-13.43-.13-.71.06-1.31.45-1.76.52-.62,1.02-1.25,1.7-1.97.44-.45.99-.82,1.63-1.06.16-.06.32-.13.5-.16.17-.05.35-.1.53-.11l.3-.05.69-.03c.46-.02.93-.04,1.4-.06,2.4.56,6.01.56,9.89.37,1.87-.09,3.74-.2,5.66-.25,1.05-.03,2.7,0,3.22.1,3.03.64,6.85.61,11.09.48,2.16-.07,4.72-.12,6.65.01,3.66.24,7.05.12,10.59.02,1.14-.03,2.49-.08,3.47,0,3.64.26,7.02.15,10.54-.07,1.25-.08,2.98-.08,4.21,0,3.2.22,6.23.27,9.58.08,1.78-.1,4.11-.2,5.69-.09,2.58.17,5.09.23,7.57.2,1.24-.01,2.47-.04,3.7-.09l.92-.04,1.1-.06c.5-.04,1-.09,1.5-.13.5-.07,1-.17,1.49-.26.73-.12,1.62-.41,2.47-.64.82-.29,1.55-.54,2.13-.74,3.23-1.17,6.12-3.27,8.21-6.02,2.11-2.73,3.5-6.06,3.94-9.55.17-1.03.18-2.14.21-3.2,0-.68-.02-1.37-.03-2.05,0-1.37.02-2.71.08-3.91.19-3.38.18-6.45.02-9.69-.14-2.78-.14-5.52-.08-8.45.07-3.37.03-6.91-.06-10.29-.05-2.03-.05-3.48.11-5.45.29-3.59.45-7.39.19-11.68-.04-.83-.09-1.68-.13-2.54-.02-.44-.03-.88-.05-1.32v-.33s-.02-.17-.02-.17v-.08s0-.25,0-.25c0-.67.17-1.33.5-1.89.63-1.06,1.48-1.81,2.48-2.38.41-.23.95-.42,1.48-.39h.14s.22,0,.32-.01h.7c.47,0,.93,0,1.39,0,.92-.01,1.84-.03,2.75-.04,1.82-.04,3.62-.11,5.44-.19,1.47-.07,3.33-.01,4.83.08,3.32.2,6.47.09,9.74-.02,2.59-.09,5.31-.16,7.92-.13,3.37.04,6.54.04,9.56-.25,1.91-.18,3.85-.21,5.97,0,3.59.35,7.45.28,11.39.16,1.99-.06,4.3-.09,6.14.02,4.48.26,8.65.13,12.95-.08,2.71-.14,5.76-.36,8.29-.04,3.65.46,7.46.3,10.7.05,3.22-.25,5.46-.15,8.2.1,1.49.13,3.44.22,5.09.19,2.75-.05,5.39-.25,8.14-.32,2.01-.05,4.13-.01,6.19,0,1.77,0,3.64.07,5.3,0,3.91-.16,7.72-.38,11.69-.57,1,.11,2.14.32,3.35.33,3.6.03,7.18-.02,10.41-.37,1.94-.22,4.23-.35,6.43-.53.96.17,1.57.32,2.37.42.78.1,1.82.24,2.62.22,2.21-.05,4.48-.1,6.71-.15.55-.02,1.1-.03,1.65-.05.4,0,.79,0,1.18,0,.38-.03.75,0,1.11.04.36.04.72.02,1.07.07,2.13.25,3.67.96,5.19,2.12.46.4.93.77,1.38,1.23.33.15.66.29.99.43.34.14.63.35.99.54.32.38.55.76.76,1.13.22.36.45.69.64,1.07,1.01,1.79,1.26,3.51,1.93,5.67.15.56.31,1.11.32,1.67.02.28.04.54.05.81.02.25,0,.69-.01,1.02-.05,1.41-.19,2.73-.38,3.99-.08.55-.15,1.18-.19,1.52.13,3.18.3,6.02.35,8.93.03,2.14-.04,4.57-.19,6.52-.13,1.67-.14,2.99-.09,4.69.11,3.52.31,7.05.1,10.69-.3,5.15-.25,10.29-.05,15.54.1,2.54.19,5.52.06,7.81-.12,2.07,0,3.24.06,4.93.17,4.21.44,8.65.35,12.74-.1,4.82-.07,9.17.16,13.72.12,2.37.24,5.05-.03,7.41-.33,2.76-.32,5.81-.12,8.6.32,4.49.18,8.64-.08,12.91.32,3.75.51,7.55.34,11.98-.08,1.99.03,4.45.16,6.46.18,2.8.23,5.17-.18,7.35-.09.47-.14,1.22-.22,2.02.54,3.95.53,8.79.47,13.32-.07,5.81.1,11.41.2,17.06.04,2.17.08,4.05-.12,6.05-.08.81-.08,2.63.01,3.24.33,2.1.29,4.6.34,7.12.13,6.96,0,13.82-.12,20.72-.06,3.39.04,6.85.04,10.28-.02,3.59-.03,7.18-.05,10.76-.02,1.94-.14,3.85.2,5.9.33-4.28.58-8.41.71-12.87.07-2.3.14-5.38.4-6.5.3-1.32.29-2.8.38-4.35l.05-7.26.15.05c-.07,2.41-.13,4.81-.2,7.22.47.06.66,1.72.66,4.34,0,1.5,0,3,0,4.5.02,2.82.06,5.61.56,7.02.47-3.29,1.09-5.83,1.14-11.14.33,2.32.24,4.33.18,6.17-.09,2.78.3,3.92.47,5.82.19,2.15.49.62.59.77.23,2.01.36,4.46.54,4.58.58.38.53,3.15.74,5.11.34,3.13.37,6.35.38,9.79,0,.63.09,1.25.13,1.87l.1-.08c.03-1.53.05-3.05.07-4.49.75-1.79.9-1.35.77,2.98-.11,3.63-.17,6.97.12,10.37.07.85.02,2.08.03,3.12.03,1.28.06,2.55.1,4.36.51-2.34.95-4.35,1.47-6.73,0-.18,0-1.11.05-1.94.18-3.14.04-6.83.46-9.54v.14c-.04-.9-.09-1.81-.08-2.68.06-3.43.07-6.97.24-10.23.1-1.94.58-2.81.54-5.46.35-.15.53.57.55,2.43.01,1.35.02,2.71,0,4.05-.06,2.94-.12,5.88-.17,8.69.89,2.41.64,7.01.8,10.9.12-7.61.25-15.22.38-23.36.19.8.29,1.23.39,1.67l.1-.42c-.18-1.69-.37-3.38-.58-5.27-.18.96-.31,1.6-.47,2.43-.13-2.46-.24-4.67-.38-7.28-.44,1.34-.8,2.43-1.17,3.56-.08-3.15-.15-6.3-.23-9.67.62-2.84.64-3.36.23-9.24-.22.59-.44,1.17-.68,1.82-.41-2.89-.38-7.3-.95-9.49-.06-.24-.03-1.42-.03-2.16,0-.75.06-1.75,0-2.21-.35-2.66.01-3.66.27-4.8-.09-1.29-.18-2.56-.25-3.54.28-.69.49-1.2.7-1.72-.25-4.14-.84-1.36-1.14-3.07-.23,1-.42,1.83-.63,2.76-.18-2.18.03-2.65.23-3.31.23-.74.49-1.16.56-3.17.13-3.14.26-6.27.4-9.53.32.84.62,1.61.82-.73-.11-1.43-.66.7-.5-2.42.13-.25.25-.48.47-.89-.21-.86-.32-1.42-.45-1.83-.13-.42-.27-.77-.41-.99-.36-.56-1.21,1.19-1.17,2.6.1,4.24-.42,2.97-.7,3.86-.13-1.67-.2-3.15-.34-4.33-.17-1.38-.41-2.06-.7-1.17-.21.61-.38,1.81-.21,2.79.35,2.09.17,4.89.35,7.16.03.37-.06,1.09-.1,1.65-.14-1.42-.14-2.75-.2-3.99-.06-1.28-.15-2.55-.44-2.65-.55-.19-.68-2.48-.68-5.27,0-1.3.02-2.61.03-4.18-.65-.91-1.36-.23-1.85-3.56-.05-.34-.22-.05-.34-.05.11-3.69.22-4.07.73-2.99.11.23.3.17.37-.26.26-1.77.43-.64.56.64.1,1.04.14,2.31.23,3.95.5-2.61.99-2.18,1.52-.91-.05-2.05-.08-3.72-.12-5.36.52-.71.54,1.77.68,3.12.2,2.08.34,4.43.49,6.49h.92c.1-3.72.67-6.91.44-11.44-.48-.17-.9-.32-1.36-.49-.17.43-.01,3.59-.56,2.51.22-2.84.44-5.6.73-9.37-.51,1.69-.89,2.96-1.35,4.49-.11-.86-.34-1.8-.35-2.85-.04-2.59-.27-3.28-.64-3.26-.07.66-.13,1.31-.27,2.67-.22-2.19-.4-3.73-.53-5.42-.05-.65-.01-2.02.07-2.43.5-2.43.35-5.69.34-9.04.51,2.92.99,5.69,1.52,8.7.12-1.83.21-3.13.33-4.91.08,2.24.14,4.04.2,5.86.72.23,1.25-2.43,1.74-5.2-.06-.7-.11-1.4-.21-2.71.35.43.58.71.78.96.29-1.09.54-2.84.82-2.98.55-.28.73-2.77,1.17-5.03h-1.02c-.22,1.98-.49,3.47-.79,4.59-.17.65-.47-1.53-.37-1.7.38-.68.18-3.89.58-4.38.11-.14.19-1.22.38-2.49-.57-.4-.31-2.79-.37-5.02-.26,1.11-.46,1.93-.75,3.15.02-1.72.04-2.75.05-4-.21.17-.35.28-.49.39l-.03-.61c.32-1.33.64-2.66.94-3.95-.46-1.58-.48-2.01-.12-3.86.17-.87.36-1.53.55-2.23.03-.1.08.12.13.2.01,1.11.03,2.22.05,3.4.75-1.26.8-1.54.92-5.27h-1.31c-.21-2.55.49-4.07.16-7.03-.3,1.31-.65,1.86-.98-1.1.36-.82.66-1.5,1.03-2.34-.23-.76-.37-1.23-.42-1.4v-8.91c.32.51.64,1,.99,1.57.05-1.68.41-2.95.32-5.24-.35,1.15-.65,2.16-1.01,3.36-.05-1.52-.04-2.54-.11-3.23-.17-1.56.23-4.44-.32-5.01.1-1.21.12-2.42.01-3.66.13-.08.28-.48.37-.17.18.64.33,1.66.59,3.06-.06-4.18.02-7.29.58-9.42-.69-.9-.99,2.89-1.6,3.69.12-2.81.21-5.12.32-7.78-.02-.11-.12-.56-.19-.94.04-1.17.08-2.28.12-3.4.03-.92.02-2.26.12-2.66.16-.68.37-.39.51.76.05.42.15.63.25,1.06.04-1.48.06-2.62.09-3.69.8-.42.69-4.98,1.16-7.94-.59.36-1.03.64-1.47.91-.14.5-.15,2.51-.54.87.24-.33.4-.55.56-.77-.11-1.48-.19-3.05-.34-4.42-.21-2.04-.07-3.37.2-4.46.11-.43.25-.57.35-.8.02-2.45-.29-4.41-.06-7.1.26.93.49,1.77.75,2.7.08-.8.15-1.39.19-2.07.03-.68.03-1.44.04-2.16l.02.11c-.67-.11-1.24-1.75-1.77-4.49.1-.88.2-1.79.28-2.5-.61-1.8-.97.17-1.21,3.25-.31-.34-.57-.63-.92-1.01.07,1.78.12,3.09.17,4.41-.29.34-.56.35-.73-1.39-.29-3.04-.76-2.56-1.21-2.47-.54.11-.72,2.68-.9,5.51-.15-.71-.26-1.22-.39-1.81.09-1.44.17-2.78.26-4.37-.54-.36-1.04-.7-1.53-1.04-.08-4.13-.15-7.99-.22-11.86.4.32.74.6,1.13.92.06-.52.15-1.37.24-2.23l.19.34c.07,1.88.14,3.77.2,5.42-.25.72-.4,1.16-.56,1.64.09,1.58.16,2.97.26,4.76.18-.26.46-.19.51-.83.24-2.75.93-4.09.7-8.5.36,3.62.71.08,1.05.35.17,2.07.33,4.12.48,5.9.45-.99.79-1.76,1.18-2.61.02-2,.27-5.06.59-4.93.43.17.46-1.59.66-2.54.31-1.45.61-2.95.94-4.26.22-.87.44-1.52.3-3.85-.42.25-.85.51-1.27.77-.03-.72-.06-1.39-.09-2.08-.07-.81-.15-1.64-.23-2.54-.4-.48-.81-.93-1.13-1.29-.24-1.25-.7-2.36-1.07-3.44-.48-1.05-.91-2.1-1.54-3.11.12-.3.21-.74-.02-1.52-.25-.76-.73-1.94-1.92-3.53.37.22,1.09.81.93.53-.32-.56-.54-1.06-.81-1.52-.27-.46-.53-.91-.86-1.42-.32-.52-.77-1.03-1.37-1.66-.57-.65-1.4-1.29-2.45-2.07.5.71,1.42,1.72,1.23,1.89-.31.3-1.84-.8-4.32-2.25-1.51-.4-1.74-.19-1.42.26.16.23.46.51.81.82.35.35.71.72,1.07,1.08-1.2-.61-2.34-1.02-3.16-1.44-.85-.35-1.4-.65-1.47-.87-.1-.32-.52-.76-.39-1.01.12-.22.82-.34,2.96.29-2.46-.98-4.11-1.37-5.86-1.63-.49.16-.94.31-1.44.47-.69-.14-1.35-.15-1.99-.22-.32-.03-.63-.05-.93-.08-.27-.01-.53-.02-.78-.04-1.42.18.05.73-3.22.63.42-.25.81-.48,1.34-.79-2.49.04-4.5.08-6.3.11-1.32-.21-2.6-.42-4.41-.72-.28.4-.45.65-.72,1.03-2.11-.28-3.62-.49-5.47-.73-.45.28-.82.51-1.19.74-2.28.47-5.19-.09-7.77.19-.55-.31-.98-.55-1.49-.85-1.74.36-3.33.64-4.54.95-1.22.32-2.48.58-4.68.75-3.24.25-3.66.23-3.75-.39,0-.06.06-.11.11-.21-1.06.11-1.86.19-3.23.33.48-.3.79-.5,1.12-.7-.99.02-1.86.03-3,.05.27-.34,1.8-.71-.87-.96-.99.53-4.28.52-6.47.77-2.81.32-5.96-.16-8.54.26-1.15-.22-2.98-.43-2.8-.57.31-.25,1.84-.46,2.86-.69-1.91-.6-2.23-.63-8.42-.81,1.63.49,4.16.93,2.55,1.58-1.36-.11-2.64-.21-4.36-.35.84.33,1.41.55,2.09.82-2.07.3-4.04.58-6.25.9-.12-.34-.24-.65-.35-.95-1.11.31-1.11.7-2.28.88-1.3.2-3.67.22-5.47.31-.26.22,2.45.34.42.58-2.1-.34-4.35-.61-7.69-.45l4.24-.59c-1.81-.33,2.23-.43.48-.77h5.74c.1-.17.2-.35.33-.59-1.84.05-3.29.08-4.48.11-1.71-.15-.3-.62-3.07-.61-1.3.36.11,1.01-4.67,1.11-.15-.08-.45-.23-.8-.42-1.5.54-2.5.9-3.5,1.26.85,0,1.69.01,2.74.02q-1.49.17-2.64-.04c-1.21-.19-2.41-.38-4.15-.65,0,.35.11.57-.03.78-.13.21-.51.42-.77.62-5.53.03-7.47-.78-10.74-1.05,1.39-.59,3.3-1.05,3.02-1.72q-3.66.68-6.19.77c.17-.12.35-.23.66-.44-2.04.18-4.35-.1-5.82.29-.01,0-.47-.04-.93-.07-.46-.04-.91-.08-.88-.1.6-.36,1.4-.71,2.01-.99-2.66-.85-7.24-1.2-12.01-1.49-.71.31-1.41.62-2.1.92l-.14-.02c3.1.63,7.77.34,12.05.53-.54.35-1.04.68-1.53,1.01-1.19.02-2.15,0-2.97.05-4.97.29-10.02.41-15.27.28-.65-.02-1.8,0-2,.07-1.27.42-3.58.27-5.57.31-.22.11-.44.21-.55.27-2.23-.05-4.33-.11-6.33-.15-.43.21-.69.34-.97.47-1.95-.15-3.71-.28-5.47-.41l-.61.15c1.41.3,2.82.6,4.49.96-.7.16-1.48.34-2.48.58-1.24-.26-2.04-.43-3.13-.66-1.22.22-2.34.43-3.61.66-.88-.05-1.84-.1-2.03-.11-.59-.31-1.13-.59-1.68-.88-.27-.14-.55-.29-.83-.43-.28-.15-.56-.3-.96-.44-.36.1-.7.19-1.02.28-.31.11-.6.22-.87.33-.54.19-1.01.44-1.48.68-.32-.15-1.14.02-2.42.65-.22.12-.82.09-1.3.21-1.41,1.06-2.2,2.02-3.08,3.11-.39.45-1.34,1.75-1.45,1.85-.27.25-.59.66-.92,1.16-.27.53-.62,1.11-.83,1.75-.52,1.25-.76,2.58-1.06,3.3,0,.02-.04.2-.07.46,0,.26-.02.6-.03.96,0,.17,0,.35,0,.52,0,.14.02.28.03.41.02.25.04.44.07.52.31,1.01.21,2.04.08,3.3-.07.77-.14,1.56-.19,2.16.67,4.33.06,7.54-.26,11.07.29.63.51,1.11.66,1.44.16,5.14.31,9.89.47,14.85-.16.16-.37.36-.47.47-.03,2.94-.06,5.52-.09,8.2.06.22.16.58.26.93-.32,1.76.12,4.09-.1,5.91q-.99-.26-1.06.64c.24.39.51.57.73,1.24.25.76.3,2.76.07,3.74-.25,1.25-.43,2.14-.77,3.3-.34,1.11-.83,2.31-1.61,3.48-.26-.82-1.18.69-3.39,1.97,1.21-.98,2.03-2.13,2.51-3.31.49-1.17.68-2.33.63-3.46l-.12.13c-.16,1.21-.58,2.39-1.23,3.31-.72.63-1.5,1.07-2.31,1.35-.16.28-.34.51-.51.77-.19.21-.37.45-.58.66.29-.08.73-.16,1.69-.61-.73.48-1.35.82-1.99,1.02-.3.14-.63.17-.95.27-.33.04-.66.12-1.03.14.58.62,1.27,1.16,1.98,1.56-.49.19-.98.31-1.47.42-.24.06-.49.07-.73.11-.24.03-.49.07-.82.08-1.57.09-6.6-.31-6.26-.53.92-.6-1.41-.4-3.04-.39l.13-.02c-.1.24-.21.49-.3.71-2.96.08-5.72.16-8.72.24-.49-.21-.79-.39-1.39-.55-.33-.09-1.42-.19-1.7-.17-.59.06-1.35.22-1.21.31.81.49-1.26.23-2.64.21.92-.27,1.84-.54,2.74-.8-2.98-.79-7.1-1.21-12.26-1.07-1.35-.26-2.35-.45-3.45-.66-.75.41-.76.89-2.17,1.07-1.98.25-3.65.51-4.67.97-.49-.19-.71-.27-.93-.36-1.79.24-3.44.63-5.92.15ZM523.49,159.38c.72,1.29.33.94-1.84-1-.17-.5,1.19.17-.64-1.61.31.1.58.26.88.38.58.3.84.35.69.08-.16-.26-.69-.92-1.89-1.77,1.92.83,2.97,2.27,3.96,3.7.89.78,1.72,1.45,2.48,2.33.37,1.1-.17.66-.66.27-.5-.39-.96-.73-.54.39-1.22-1.53-2.26-2.77-2.52-3.48-.27-.84-1.21-1.14-1.63-1.66.32.39.64.78.95,1.17.28.41.54.82.75,1.17ZM528.76,166.6c.03-.31.06-.62.11-1.12.83,2.08,1.13,3.98,1.4,5.78.07.93.19,1.92.22,2.69.04.79.08,1.5.12,2.05-.32,1.81-.54,3.04-.83,4.65-.04-.41-.2-1.3-.18-1.76.14-2.53.18-4.61-.31-6.13,0-.01.03-.83.04-1.26-.09-.12-.22-.3-.42-.51-.09-.67-.17-1.33-.26-1.97-.15-.64-.29-1.26-.44-1.89.19-.23.34-.45.51-.68l.03.17ZM239.75,230.55c-2.5-.07-4.74-.12-7.21-.19.49-.45,1.63-.78,4.01-.93,1.62-.1,3.52-.24,4.76.17-.51.31-1.05.64-1.55.95ZM532.23,374.99c-.02,1.91-.03,4.01-.06,7.2-.26-2.23-.32-4.02-.7-4.4-.38-.38-.39-3.07-.49-6.39.49,1.4.85,2.44,1.25,3.59ZM529.36,330.9c-.32,1.73-.62,3.43-.92,5.06-.33-1.33-.09-2.21-.07-3.25.03-1.02-.1-2.19-.2-3.92.34-.2.65-.38.97-.56.09,1.09.15,1.88.21,2.68ZM528.47,171.59c.03,2.13-.1,3.29-.27,3.7-.18.41-.47.09-1-.65.17-.47.26-.72.35-.96.08-.22.15-.44.27-.77-.07-.47-.13-.89-.21-1.41-.1-.51-.27-1.1-.47-1.91.57.83,1.02,1.41,1.33,2ZM513.71,156.88c-.1-.26-.19-.52-.33-.89,2.28,1.01,4.02,2.23,5.66,3.87-.56-.3-1.08-.56-1.52-.87-.45-.28-.89-.53-1.29-.82-.39-.3-.82-.49-1.22-.73-.4-.25-.84-.43-1.3-.56ZM531.01,219.85c-.3,2.01-.55,3.67-.8,5.34l-.12-.35c.05-2.31.09-4.61.15-7.64.24.83.46,1.61.76,2.65ZM529.6,212.99c-.28-2.85-.46-5.21.03-7.53.24,1.48-.01,5.29.65,4.76v1c-.24.6-.46,1.19-.68,1.77ZM525.52,309.34c.09-.43.28-1.11.28-1.04.16,1.25.32,2.53.42,3.96.04.5-.07,1.68-.17,2.07-.05.22-.25-.36-.32-.89-.12-.93-.18-2.11-.25-3,.01-.53,0-.97.03-1.1ZM525.11,164.79c.95,1.14,1.16.4,2.27,2.73-.28.36-.56.71-.87,1.07-.09-.37-.18-.7-.26-1.03-.12-.31-.22-.61-.33-.91-.11-.3-.22-.6-.34-.91-.15-.3-.3-.61-.46-.96ZM535.71,425.5c-.26-3.45-.07-6.82.07-10.21.36,3.53.04,6.82-.07,10.21ZM530.59,297.99q.53,1.04.43,4.11c-.14-1.28-.27-2.57-.43-4.11ZM66.73,356.73c-.02,2.28-.04,3.85-.05,5.41l-.18-.05c-.22-1.82-.24-3.45.24-5.36ZM273.84,230.14c-.43-.26-.74-.45-1.35-.82,2.04.15,3.08.22,4.54.33-1.21.19-1.94.3-3.19.49ZM531.44,305.65c.07.22.13.31.13.46.06,1.89.07,3.6-.5,2.95.16-1.53.27-2.48.37-3.41ZM533.33,203.13c-.15,1.14-.26,2.22-.57,1.65.09-1.75.19-2.97.57-1.65ZM526.37,169.01s0,.51-.07.44c-.18-.18-.33-.5-.45-.96-.06-.23-.1-.51-.17-.81-.08-.3-.15-.64-.22-1.02.17.38.36.75.51,1.14l.4,1.21ZM529.04,404.9l.18-.27.16,3.93-.19.28-.15-3.93ZM279.85,230.54c-.78.1-1.16.17-1.63.19-.64.03-1.34,0-2.73,0,1.44-.42,2.56-.4,4.36-.2ZM517.31,154.95s.25.09.48.22c.23.13.46.26.47.26.17.24.27.45.38.66l-1.13-.6c-.07-.2-.18-.39-.19-.54ZM527.74,203.26q-.22,1.58-.55-.16c.22.06.36.11.55.16ZM532.28,176.31c.03-.19.06-.57.08-.54.07.1.13.34.19.53-.03.2-.06.39-.1.68-.06-.22-.11-.44-.17-.67ZM532.17,205.2l.04-.43.26.92-.05.52-.25-1ZM526.4,158.35s-.07-.11-.15-.24c-.09-.13-.2-.28-.28-.39.38.24.7.54,1.05.83l.38.63c-.33-.28-.66-.55-.99-.83ZM531.66,294.66s.13.81.12.88c-.06.42-.13.79-.21,1.05-.01.05-.08-.5-.16-.99.1-.41.17-.82.25-.93ZM529.98,380.72h.1s0,3.32,0,3.32l-.1-.03v-3.29Z" fill="#161616" stroke-width="0"></path><path d="M370.24,147.1c.01.12-.23.33.08.36,3.87.32,1.91.81,1.75,1.36-6.28-.44-11.05-1.13-16.47-1.65,1.13-.27,1.73-.48,3.85-.43,1.49.03,3.12-.13,5.02-.22.66.57,2.99.68,5.91.61l-.14-.02Z" fill="#161616" stroke-width="0"></path><path d="M533.28,326.49c-.14-3.75.13-4.78.56-5.22.19-.19.35-1.08.54-1.42.12-.22.26-.04.46.7-.21,1.1-.45,2.06-.63,3.35-.18,1.29-.29,2.91-.5,5.07-.06,0-.25.09-.43-.02-.26-.16-.52-.59-.79-.7-.29-.11-.43-1.16-.37-2.57.03-.61.32-1.16.48-1.08.18.09.35.92.68,1.9Z" fill="#161616" stroke-width="0"></path><path d="M531.58,323.7c-.32-1.23-.52-1.99-.77-2.98.68-2.76,1.54-1.94,2.05-5.88.18.25.39.53.63.85-.02.46,0,.98-.04,1.21-.15.91-.35,1.6-.47,2.64-.09.82-.09,2.04-.14,3.18-.3-1.16-.57-2.24-.85-3.35-.26.64-.52,1.22-.4,4.34Z" fill="#161616" stroke-width="0"></path><path d="M345.48,147.72c-2.08-.14-4.24-.29-6.1-.41-.26-.12-.47-.17-.43-.21.78-.81,1.68-.87,5.65-.35q3.06.39.87.98Z" fill="#161616" stroke-width="0"></path><path d="M537.07,407.39q-.48-3.36-1.04-3.62c0-.71-.02-1.45,0-2.15.04-1.49.09-3.41.41-3.07.27.28.59,1.01.63,3.22.03,1.6,0,3.23,0,5.63Z" fill="#161616" stroke-width="0"></path><path d="M536.43,213.16c-.34,2.76-.76,4.39-1.34,3.74-.12-.13-.28-.9-.3-1.55-.03-.65.05-1.8.14-2.22.13-.57.34-1.11.47-.85.34.65.74-1.81,1.03.87Z" fill="#161616" stroke-width="0"></path><path d="M348.44,147.84h7.86c-1.79.52,2.04.57,2,.9-5.14.15-7.33-.04-9.87-.9Z" fill="#161616" stroke-width="0"></path><path d="M533.13,161.81c.57.81.87,1.52,1.42,2.52.14.76.15,1.5.2,2.23.05.72.08,1.45.03,2.25.24.57.42.99.59,1.42.04.25.06.51.07.76-.19.07-.38.47-.58.07-.11-.31-.51-1.57-.65-2.48-.08-.64-.28-1.39-.42-2.09-.13-.64-.24-1.24-.34-1.71-.25-1.23-.12-1.9-.32-2.98Z" fill="#161616" stroke-width="0"></path><path d="M528.37,443.12c-.18-3.39-.45-6.72-.52-10.2-.06-2.79.13-5.75.23-9.52.16,7.15.3,13.38.44,19.61l-.16.1Z" fill="#161616" stroke-width="0"></path><path d="M535.97,192.59c.07.33.2.97.33,1.64-.19,1.86-.36,3.55-.53,5.25q-.68-2.7-.86-5.3c.32-.49.65-.98,1.05-1.59Z" fill="#161616" stroke-width="0"></path><path d="M315.3,182.2c-.23.22-.52.51-.82.8-.11-4.97-.06-5.4.53-4.95-.03-.55-.06-1.09-.1-1.91.15.16.28.3.41.43.08-.68.15-1.35.23-2.03l.12.33c-.11,2.23-.22,4.46-.36,7.33Z" fill="#161616" stroke-width="0"></path><path d="M314.39,190.26c-.54,3.61-.69,3.89-1.65,2.52.22-.84.39-1.99.57-2.08.5-.23.54-1.83.46-4.23-.02-.62.03-1.34.05-2.01l.15-.09c.03,1.13.04,2.32.11,3.37.05.85.18,1.53.3,2.52Z" fill="#161616" stroke-width="0"></path><path d="M312.97,174.56c.34-2.68.62-4.88.89-7.09.35.43.53,1.53.44,3.81-.1,2.49-.52,3.66-1.34,3.28Z" fill="#161616" stroke-width="0"></path><path d="M327.51,148.17c1.16-.28,2.18-.4,3.09-.4.22,0,.44,0,.66,0,.16,0,.31.02.46.02.29.02.58.04.86.07,1.09.1,1.99.24,3,.37-.85.07-1.56.13-2.65.22.99.13,1.82.23,2.7.34-1.62.15-2.5.23-3.13.21-.32,0-.58-.04-.84-.09-.13-.03-.26-.06-.41-.1-.17-.03-.36-.07-.58-.11-1.14-.24-1.93-.42-3.16-.53Z" fill="#161616" stroke-width="0"></path><path d="M449.2,145.28c1.94.28,3.87.56,5.78.84-3.74.44-4.25.46-5.64.17-2.04-.42-2.01-.67-.13-1.01Z" fill="#161616" stroke-width="0"></path><path d="M475.33,146.48c1.52.36,5.71.37,5.26,1.1-.25.39-2.31.33-2.45.76-1.12-.74-1.97-1.3-2.81-1.86Z" fill="#161616" stroke-width="0"></path><path d="M326.61,147.88c-3.16,1-6.03,2.84-8.43,5.86-.05-.37-.68,0-1.21.33-.53.32-1,.56-.71-.29,1.32-1.28,2.49-2.07,3.93-3.03.39-.24.78-.48,1.18-.72.45-.24.91-.48,1.41-.74.52-.24,1.09-.48,1.71-.75.65-.2,1.33-.49,2.12-.66Z" fill="#161616" stroke-width="0"></path><path d="M517.42,147.41c-.7-.09-1.36-.22-2.08-.25-.71-.02-1.46-.05-2.3-.08-1.29-.52-3.03-1.01-3.45-1.26-.3-.22,1.21-.39,2.07-.48.55.14,1.08.27,1.59.41.5.18.99.35,1.46.51.96.31,1.83.72,2.7,1.15Z" fill="#161616" stroke-width="0"></path><path d="M536.05,248.32c-.2,2.22-.37,4.12-.55,6.01-.13,1.36-.14,1.34-.55.08.32-1.83.47-3.88.08-6.07.4-2.21.68.1,1.01-.02Z" fill="#161616" stroke-width="0"></path><path d="M535.59,342.56c.62-3.75.69-3.79,1.53-.71-.18.48-.33.8-.46,1.27-.14.5-.27,1.15-.43,1.8-.17-.61-.4-1.48-.64-2.36Z" fill="#161616" stroke-width="0"></path><path d="M534.24,355.21c-.15-.96-.32-1.78-.4-2.84-.02-.31.18-1.54.31-1.97.17-.55.37-1.04.56-.95.12.06.25,1.1.33,1.86.02.14-.14,1.1-.23,1.55-.16.75-.33,1.38-.57,2.35Z" fill="#161616" stroke-width="0"></path><path d="M530.43,440.06c-.18-2.51-.42-4.73-.2-7.93.13-1.89.02-4.36.02-6.62,0,.01.02-.07.04-.06.02,0,.06.09.06.16l.28,14.32-.2.13Z" fill="#161616" stroke-width="0"></path><path d="M536.55,314.62c-.33,1.32-.58,2.35-.86,3.48-.12-.5-.28-.86-.35-1.54-.07-.62-.11-1.85-.05-2.34.08-.72.28-1.52.4-1.4.27.25.52,1.06.86,1.8Z" fill="#161616" stroke-width="0"></path><path d="M402.44,149.13c-1.47.36-2.87.71-4.31,1.07-2.84-.36.76-.52.33-.79-.37-.23-.35-.48-.59-.85,2.13.27,3.45.43,4.57.57Z" fill="#161616" stroke-width="0"></path><path d="M526.4,408.45c.18,4.49-.02,7.15-.54,9.72-.14-3.98,0-6.76.54-9.72Z" fill="#161616" stroke-width="0"></path><path d="M536.22,232.2c-.23,1.73-.43,3.16-.63,4.7-.33-3.75-.32-5.37.03-7.58.17.82.35,1.64.61,2.88Z" fill="#161616" stroke-width="0"></path><path d="M467.26,145.09c1.15.38,2.02.67,3.02,1.01.71-.05,1.43-.1,2.24-.16-.18.08-.27.19-.48.2-1.88.05-3.77.09-5.88.15-1.02-.43-.01-.75,1.11-1.19Z" fill="#161616" stroke-width="0"></path><path d="M412.65,146.16c-1.69.24-2.76.38-4.37.14-1.89-.28-1.3-.56-.54-.88,3.21-.03,2.75.54,4.91.74Z" fill="#161616" stroke-width="0"></path><path d="M533.85,380.38c-.68-3.51-.74-4.32-.56-6.53.05-.56.17-1.23.26-1.24.08,0,.23.73.24,1.24.04,1.82.04,3.69.06,6.53Z" fill="#161616" stroke-width="0"></path><path d="M389.37,146.62c.31-.28.61-.56.89-.82,2.05.03,3.99.05,6.21.08-1.19.48-4.4.53-6.31.85l-.79-.11Z" fill="#161616" stroke-width="0"></path><path d="M314.31,165.22c.06-.46.16-1.24.27-1.95.12-.71.32-1.41.52-2.11.46-1.39,1.08-2.75,1.94-4.04-.18.52-.35.97-.49,1.42-.11.46-.22.93-.35,1.45-.19.51-.43,1.1-.6,1.69-.14.6-.33,1.19-.4,1.69-.18.99-.37,1.58-.61.92,0-.06-.06.31-.08.56-.03.28-.06.62-.09.86l-.11-.48Z" fill="#161616" stroke-width="0"></path><path d="M283.61,228.81c-.85-.31-1.58-.57-2.43-.88,2.97-.12,3.3.58,5.93.42.14.57-2.19.38-3.49.47Z" fill="#161616" stroke-width="0"></path><path d="M534.11,429.82c.1-2.5.21-4.99.34-8.25.09,5,.1,9.21-.23,14.22-.04-2.68-.07-4.41-.1-6.13,0,.01-.02.15-.02.15Z" fill="#161616" stroke-width="0"></path><path d="M417.12,146.65c1.99.2,3.74.38,6.3.64-2.2.13-3.31.36-4.67.17-1.22-.18-2.44-.41-1.63-.81Z" fill="#161616" stroke-width="0"></path><path d="M301.87,228.28c-1.41.06-2.49.1-4.15.17-.18-.32-.35-.61-.51-.89l.73-.03c1.22.23,2.44.47,3.93.75Z" fill="#161616" stroke-width="0"></path><path d="M536.35,384.54c-.18-3.53-.43-.52-.65-.22-.23-2.25.09-2.75.31-3.68.21.76.41,1.48.68,2.43-.13.52-.24.95-.34,1.37v.09Z" fill="#161616" stroke-width="0"></path><path d="M536.59,294.03c-.68,2.54-.78,2.26-.96-1.87.29.56.57,1.11.96,1.87Z" fill="#161616" stroke-width="0"></path><path d="M314.02,209.86c-.3,4.19-.79,3.84-1.32,3.35.36-1.25.81-1.24,1.01-3.79,0-.1.17.23.32.44Z" fill="#161616" stroke-width="0"></path><path d="M460.01,147.71c-1.18-.45-1.02-.67.7-.72.72-.02,1.65.15,2.89.28-1.57.2-2.56.32-3.59.45Z" fill="#161616" stroke-width="0"></path><path d="M524.75,417.54c.06,1.87.11,3.74.18,5.91-.55-1.48-.55-1.53-.18-5.91Z" fill="#161616" stroke-width="0"></path><path d="M490.32,145.96c-3.28.08-3.42.05-3.73-.69,2.15.12,2.25.47,3.73.69Z" fill="#161616" stroke-width="0"></path><path d="M526.82,429.78c-.06,2.14.12,4.46-.16,6.66-.16-3.24-.15-4.02.16-6.66Z" fill="#161616" stroke-width="0"></path><path d="M314.4,199.01c.26.62.46,1.08.65,1.55,0,2.53-.27,2.27-.6,2.06-.02-1.08-.03-2.16-.05-3.61Z" fill="#161616" stroke-width="0"></path><polygon points="525.02 412.9 524.84 405.46 525.02 405.3 525.19 412.75 525.02 412.9" fill="#161616" stroke-width="0"></polygon><path d="M500.74,148.04c-2.45-.21-4.26-.35-3.91-.89,1.46.31,3.71.36,3.91.89Z" fill="#161616" stroke-width="0"></path><path d="M536.04,362.37c.31.39.51.65.8,1.02-.24.96-.42,1.64-.66,2.61-.05-1.32-.09-2.25-.14-3.63Z" fill="#161616" stroke-width="0"></path><path d="M479.74,148.87q.26-.52,4.32-.47c-1.44.16-2.6.28-4.32.47Z" fill="#161616" stroke-width="0"></path><path d="M314.91,220.77c0-.16-.01-.49-.02-.77-.01-.29-.02-.58-.04-.89-.03-.6-.05-1.24-.08-1.94.25,1.19.44,2.05.75,3.53-.29,0-.46,0-.62,0v.08Z" fill="#161616" stroke-width="0"></path><polygon points="527.05 426.53 527.05 420.74 527.14 420.69 527.14 426.35 527.05 426.53" fill="#161616" stroke-width="0"></polygon><path d="M428.02,145.78l-2.66.58c.67-.23-.39-.64,2.66-.58Z" fill="#161616" stroke-width="0"></path><path d="M181.12,313.46c-2.05.13-2.96.03-3.51-.32,1.82-.05,2.92,0,3.51.32Z" fill="#161616" stroke-width="0"></path><path d="M398.47,147.52h3.84c-.22.12-.22.21-.49.25-1.23.17-2.14.08-3.35-.25Z" fill="#161616" stroke-width="0"></path><path d="M296.6,229.76h-4.04c1.55-.25,2.34-.38,3.91-.63,0,.35,0,.5,0,.66l.13-.02Z" fill="#161616" stroke-width="0"></path><path d="M525.78,421.08v4.85c-.32-2.11-.23-3.47,0-4.85Z" fill="#161616" stroke-width="0"></path><path d="M533.97,370.78c.21-.21.36-.35.63-.61-.1,1.07-.12,1.62-.18,1.95-.25,1.44-.3-.04-.45-1.34Z" fill="#161616" stroke-width="0"></path><path d="M535.84,271.68c.24-.24.39-.39.54-.54,0,.59.03.96,0,1.09-.15.89-.3,1.45-.55-.55Z" fill="#161616" stroke-width="0"></path><path d="M536.58,425.16v-5.25c.37,1.72.17,3.01,0,5.25Z" fill="#161616" stroke-width="0"></path><path d="M471.9,149.08c-.75-.02-1.51-.02-2.23-.06-.12,0-.04-.12-.06-.19l2.48.05-.19.2Z" fill="#161616" stroke-width="0"></path><polygon points="438.2 146.93 440.83 147.26 440.37 147.38 437.46 147.1 438.2 146.93" fill="#161616" stroke-width="0"></polygon><path d="M534.6,202.89q.15-2.67.64-1.59c-.29.66-.48,1.07-.66,1.48l.02.11Z" fill="#161616" stroke-width="0"></path><path d="M536.34,384.45v4.42c-.42-1.88-.04-2.9.01-4.31,0-.02-.01-.11-.01-.11Z" fill="#161616" stroke-width="0"></path><polygon points="499.16 146.8 501.8 147.14 501.45 147.23 498.59 146.94 499.16 146.8" fill="#161616" stroke-width="0"></polygon><path d="M314.9,220.7c-.08.61-.12,1.22-.47,2.17.15-1.6.31-1.64.48-2.08v-.08Z" fill="#161616" stroke-width="0"></path><polygon points="302.78 228.57 304.68 228.28 305.23 228.39 303.17 228.65 302.78 228.57" fill="#161616" stroke-width="0"></polygon><polygon points="86.68 313.62 84.38 313.41 84.61 313.32 87.14 313.48 86.68 313.62" fill="#161616" stroke-width="0"></polygon><polygon points="534.57 299.39 535 300.69 534.93 301.59 534.5 300.24 534.57 299.39" fill="#161616" stroke-width="0"></polygon><path d="M506.49,148.19c-.31.04-.6.1-.93.11-.19,0-.47-.07-.7-.11.34-.04.67-.08,1.04-.11.07,0,.33.06.6.11Z" fill="#161616" stroke-width="0"></path><path d="M528.76,166.6c.4.31.61,1.32.67,2.47-.21-.88-.41-1.77-.7-2.63l.03.16Z" fill="#161616" stroke-width="0"></path></svg>