<?xml version="1.0" encoding="UTF-8"?><svg id="Laag_1" xmlns="http://www.w3.org/2000/svg" viewBox="0 0 1050 360"><defs><style>.cls-1{fill:#333;stroke-width:0px;}</style></defs><path class="cls-1" d="m310.15,205.75h12.61v-51.41h-13.58v-24.25h13.58v-4.07c0-32.79,28.71-37.05,44.23-37.05,6.79,0,11.83.78,11.83.78v26.38s-2.52-.58-8.15-.58c-4.85,0-14.36.19-14.36,9.7v4.85h20.56v24.25h-20.56v51.41h14.74v24.25h-60.92v-24.25Z"/><path class="cls-1" d="m439.93,167.92h6.01v-2.91c0-8.15-6.6-11.06-14.16-11.06-13.58,0-27.55,9.51-27.55,9.51l-11.64-22.7s17.07-13,42.29-13c29.1,0,44.62,14.55,44.62,40.74v32.98c0,2.71,1.55,4.27,4.27,4.27h7.37v24.25h-28.91c-9.7,0-13.39-5.63-13.39-10.48v-.58c0-1.75.39-3.1.39-3.1h-.39s-8.15,16.49-29.49,16.49c-17.46,0-32.79-10.67-32.79-30.85,0-29.29,37.83-33.56,53.35-33.56Zm-10.67,40.16c8.54,0,17.07-10.28,17.07-19.01v-2.33h-3.1c-11.06,0-22.89,3.49-22.89,12.42,0,5.24,3.49,8.92,8.92,8.92Z"/><path class="cls-1" d="m555.94,127.76c27.16,0,39.77,15.13,39.77,15.13l-14.16,22.5s-9.7-9.7-23.47-9.7c-15.91,0-23.86,12.03-23.86,23.86s8.15,24.83,25.03,24.83c13.97,0,27.35-12.03,27.35-12.03l12.22,23.47s-14.94,16.49-42.87,16.49c-35.7,0-55.68-24.83-55.68-52.38s19.79-52.19,55.68-52.19Z"/><path class="cls-1" d="m619.38,154.34h-13.58v-24.25h14.55v-26.97h32.59v26.97h20.95v24.25h-20.95v35.31c0,12.03,11.45,13.77,17.85,13.77,2.72,0,4.46-.19,4.46-.19v27.16s-3.69.58-9.12.58c-15.91,0-46.75-4.27-46.75-37.83v-38.8Z"/><path class="cls-1" d="m689.41,205.75h12.61v-51.41h-13.58v-24.25h13.58v-4.07c0-32.79,28.71-37.05,44.23-37.05,6.79,0,11.83.78,11.83.78v26.38s-2.52-.58-8.15-.58c-4.85,0-14.36.19-14.36,9.7v4.85h20.56v24.25h-20.56v51.41h14.74v24.25h-60.92v-24.25Z"/><path class="cls-1" d="m772.44,130.09h33.56v58.59c0,9.31,3.69,13.19,10.67,13.19,14.36,0,21.15-12.61,21.15-27.55v-44.23h33.56v99.91h-32.2v-8.73c0-3.3.39-6.21.39-6.21h-.39c-5.43,10.67-17.85,17.27-31.23,17.27-19.79,0-35.5-9.31-35.5-37.44v-64.8Z"/><path class="cls-1" d="m896.02,115.54h-13.58v-24.25h47.14v99.91c0,9.51,1.75,12.8,9.31,12.8,2.13,0,4.07-.19,4.07-.19v26.58s-4.66.58-10.09.58c-17.85,0-36.86-4.27-36.86-37.83v-77.6Z"/><rect class="cls-1" x="110" y="190" width="140" height="40"/><rect class="cls-1" x="111.34" y="214.28" width="74.65" height="40" transform="translate(-128.56 245.88) rotate(-60)"/><rect class="cls-1" x="110" y="130" width="140" height="40"/></svg>